{"glyphs":{"0":{"ha":644,"x_min":61,"x_max":681,"o":"m 254 0 q 109 79 162 0 q 61 245 61 149 q 450 1002 61 628 q 517 1050 500 1050 q 543 1025 543 1050 q 524 994 543 1013 q 504 964 505 975 q 553 983 519 973 l 557 979 q 555 957 555 968 q 579 923 555 926 q 604 909 604 920 q 539 837 604 902 q 458 755 499 796 q 302 519 369 656 q 228 253 228 366 q 286 183 228 183 q 444 387 368 183 q 519 668 495 526 q 530 742 525 705 q 557 799 541 799 q 568 772 564 799 q 579 734 573 742 q 604 747 587 740 l 611 746 q 614 665 616 729 l 619 659 q 633 689 629 668 q 643 722 639 715 q 650 675 644 722 l 654 672 q 672 692 659 680 q 681 664 681 683 q 595 308 681 490 q 363 35 503 109 q 254 0 297 0 z "},"1":{"ha":514,"x_min":79,"x_max":525,"o":"m 338 761 q 330 774 338 770 q 264 719 323 769 q 205 675 213 675 q 186 688 185 675 q 204 715 193 696 l 200 724 l 187 717 l 184 724 q 147 694 172 709 l 142 703 q 157 745 149 716 l 150 751 q 90 699 132 731 q 79 717 79 698 q 248 891 79 732 q 436 1050 416 1050 q 476 1006 471 1050 q 476 940 476 1009 q 485 926 476 930 q 510 966 490 942 q 525 921 525 966 q 488 671 525 847 q 431 421 459 547 l 350 52 q 330 20 343 20 q 317 26 323 20 l 306 54 l 298 52 l 293 57 q 248 12 263 12 q 234 24 239 12 q 224 43 227 40 q 204 16 220 40 q 178 0 193 0 q 163 25 163 0 q 251 385 163 47 q 338 761 338 721 z "},"2":{"ha":644,"x_min":12,"x_max":661,"o":"m 65 0 q 31 37 50 0 q 12 85 12 72 q 224 456 12 121 q 436 803 436 791 q 424 817 436 817 q 303 755 408 817 q 171 676 237 715 q 157 692 157 675 q 172 717 157 704 q 196 736 184 726 l 186 743 q 158 728 177 737 l 151 742 q 193 791 166 758 l 186 798 q 139 775 171 789 l 131 785 q 155 819 140 795 q 144 825 152 825 q 111 808 146 825 q 103 821 103 812 q 302 949 103 848 q 554 1050 501 1050 q 609 1029 583 1050 q 635 981 635 1008 q 602 890 635 943 l 606 886 q 654 922 623 904 q 661 901 661 916 q 497 551 661 800 q 264 208 380 380 q 277 199 263 199 q 451 230 323 199 q 621 261 578 261 q 635 249 635 261 q 608 227 635 237 q 571 210 574 212 q 610 205 575 205 q 623 201 618 205 q 614 178 620 192 l 616 161 q 566 135 599 153 q 597 131 581 133 q 612 109 612 128 q 554 72 612 72 q 307 36 482 72 q 65 0 132 0 z "},"3":{"ha":644,"x_min":52,"x_max":653,"o":"m 635 541 q 416 216 635 460 q 126 -28 197 -28 q 113 -4 115 -28 q 109 28 111 12 q 94 45 94 27 q 111 79 94 64 q 136 106 132 97 l 132 109 q 81 81 116 98 q 52 123 52 94 q 54 131 52 123 q 256 311 155 220 q 416 498 416 458 q 379 515 416 515 q 326 512 361 515 q 272 509 290 509 q 231 546 249 509 q 216 604 216 577 l 435 838 q 422 847 435 847 q 259 796 395 847 q 122 745 123 745 q 103 770 103 745 q 128 811 103 797 q 178 829 135 814 q 144 836 174 831 q 119 848 119 841 q 131 877 119 867 q 154 896 142 886 q 132 902 150 901 q 118 917 118 903 q 144 935 118 926 q 567 1050 496 1050 q 609 1027 585 1050 q 633 987 633 1005 q 610 979 633 980 q 582 972 585 977 q 628 970 605 971 q 653 940 653 966 q 562 804 653 919 q 446 657 504 730 q 549 641 497 649 q 635 541 635 621 z "},"4":{"ha":668,"x_min":35,"x_max":679,"o":"m 453 0 q 421 24 443 9 q 371 -14 406 9 q 354 -1 359 -14 q 345 20 346 18 q 326 -2 335 14 q 309 -25 315 -20 q 296 -16 296 -26 q 320 93 296 21 q 345 199 345 164 q 328 205 339 205 q 203 187 286 205 q 79 168 121 168 q 39 208 39 168 q 62 264 39 224 q 85 313 85 303 l 82 317 q 40 273 69 301 q 35 293 35 280 q 247 706 35 348 q 490 1064 459 1064 q 517 1039 517 1064 q 505 1009 517 1030 q 488 978 490 983 l 490 971 q 538 1003 505 983 q 554 970 557 994 l 564 958 q 558 945 563 954 q 553 929 553 936 l 558 921 q 582 942 564 930 q 595 928 595 941 q 410 648 595 915 q 193 332 206 353 q 213 322 199 322 q 386 361 248 322 q 449 627 406 450 q 463 646 454 646 q 472 618 463 635 q 502 668 484 627 q 533 722 520 710 q 562 705 562 722 q 559 694 562 702 q 557 684 557 687 q 568 672 557 672 q 591 729 577 672 q 632 786 606 786 q 644 777 644 786 q 628 678 644 753 q 604 575 616 627 l 570 415 q 585 406 569 406 q 623 411 597 406 q 661 416 648 416 q 679 403 679 416 q 660 377 679 388 q 631 359 633 361 q 651 355 633 358 q 664 343 664 353 q 653 323 664 330 q 631 310 642 316 q 647 302 633 307 q 657 290 657 298 q 594 257 657 264 q 521 224 528 250 q 496 98 509 161 q 453 0 475 0 z "},"5":{"ha":644,"x_min":77,"x_max":703,"o":"m 526 699 q 613 663 574 699 q 653 581 653 627 q 596 452 653 527 l 597 444 q 633 486 608 460 q 640 476 640 484 q 427 193 640 423 q 175 -33 215 -33 q 164 -20 164 -33 q 189 21 164 -20 l 183 28 q 153 7 174 20 q 143 20 143 11 q 184 68 143 35 l 179 75 q 134 53 130 53 q 122 62 125 53 q 114 74 119 72 q 89 72 89 72 q 77 98 77 72 q 111 148 77 119 q 444 492 444 427 q 421 507 444 507 q 314 468 399 507 q 210 428 229 428 q 165 471 193 428 q 136 534 136 515 q 262 922 136 559 q 323 958 271 947 q 686 1050 444 992 q 697 1043 687 1049 q 703 1031 703 1040 q 671 1010 703 1023 q 631 994 651 1002 q 675 991 633 991 q 693 977 693 991 q 639 925 693 946 l 639 922 l 650 920 l 643 911 l 652 909 q 665 913 656 909 q 677 917 673 917 q 690 900 690 917 q 563 842 690 880 q 401 793 408 796 q 359 733 376 781 q 343 656 343 691 q 357 646 343 646 q 430 672 362 646 q 526 699 497 699 z "},"6":{"ha":668,"x_min":68,"x_max":663,"o":"m 300 0 q 131 85 199 0 q 68 269 68 165 q 200 659 68 404 q 418 1015 297 845 q 431 1025 422 1022 l 436 1019 q 415 972 429 1004 l 419 968 q 473 1023 435 988 q 525 1014 525 1023 q 517 995 525 1008 q 507 974 509 981 q 585 1042 533 1001 q 616 1023 616 1042 q 501 826 616 1005 q 385 628 385 648 l 393 619 q 496 653 454 653 q 623 566 576 653 q 663 407 663 494 q 555 134 663 261 q 300 0 443 0 m 350 183 q 452 252 410 183 q 488 378 488 313 q 396 503 488 503 q 306 467 337 503 q 263 377 286 442 q 243 297 243 319 q 273 216 243 250 q 350 183 303 183 z "},"7":{"ha":644,"x_min":81,"x_max":692,"o":"m 637 1050 q 670 1010 655 1050 q 682 954 682 977 q 624 802 682 941 q 551 629 588 715 q 562 615 551 615 q 623 634 581 615 q 682 653 664 653 q 692 643 692 653 q 667 625 692 636 q 633 608 638 613 q 653 602 639 604 q 673 593 668 600 q 652 581 667 587 q 631 568 637 574 q 665 554 644 567 q 649 534 663 550 q 637 513 637 522 q 623 485 637 492 q 533 459 621 484 q 464 416 474 441 q 378 186 420 301 q 272 0 303 0 q 256 7 262 0 q 244 18 248 16 q 229 5 237 12 q 212 -1 222 -1 q 199 9 199 -1 q 210 49 199 6 l 204 53 q 150 -16 189 27 q 115 -14 132 -12 l 110 -5 q 183 185 110 30 q 257 364 257 340 q 248 374 257 374 q 206 365 234 374 q 164 355 178 355 q 149 367 149 355 q 173 390 149 378 q 208 408 205 406 q 197 416 204 416 q 179 412 191 416 q 160 408 166 408 q 146 418 146 408 q 161 434 146 428 q 179 447 176 441 q 166 449 174 449 q 148 445 160 449 q 129 441 135 441 q 115 450 119 441 q 201 493 115 463 q 313 529 257 511 q 336 548 329 535 q 406 694 354 580 q 463 838 463 821 q 447 848 463 848 q 286 815 399 848 q 125 782 172 782 q 109 794 109 782 q 150 823 109 811 q 171 842 157 831 l 163 846 q 135 839 128 839 q 98 864 108 839 q 149 911 98 881 q 136 918 144 918 q 117 912 134 918 q 92 907 101 907 q 81 920 81 907 q 111 950 81 939 q 375 1003 131 957 q 637 1050 619 1050 z "},"8":{"ha":644,"x_min":28,"x_max":653,"o":"m 628 664 q 622 640 628 652 q 614 619 615 627 l 625 608 q 568 572 626 591 q 493 541 502 551 q 603 338 603 479 q 496 102 603 204 q 256 0 390 0 q 93 63 159 0 q 28 224 28 127 q 79 393 28 313 q 200 526 117 451 q 144 671 144 597 q 313 932 144 813 q 616 1042 468 1042 q 653 1018 653 1042 q 638 990 653 1002 q 623 968 623 977 l 632 947 q 610 921 632 935 q 576 901 593 911 q 589 896 580 896 q 610 899 595 896 q 631 901 624 901 q 643 890 643 901 q 498 838 643 877 q 393 785 446 823 q 328 694 328 738 q 347 644 328 668 q 484 711 370 661 q 615 761 597 761 q 637 750 637 761 q 614 721 637 739 q 582 697 598 709 q 610 683 586 693 q 628 664 628 675 m 203 253 q 224 186 203 213 q 288 158 248 158 q 379 198 339 158 q 419 290 419 239 q 399 375 419 343 q 336 436 385 395 q 248 358 285 404 q 203 253 203 303 z "},"9":{"ha":668,"x_min":102,"x_max":704,"o":"m 283 378 q 141 461 190 378 q 102 630 102 530 q 206 907 102 779 q 463 1042 317 1042 q 636 951 564 1042 q 704 764 704 867 q 513 267 704 531 q 311 7 325 7 q 298 9 311 7 q 319 54 313 38 l 315 60 q 256 8 272 8 q 233 14 241 8 q 228 47 233 43 q 171 8 188 8 q 135 33 135 8 q 254 196 135 33 q 399 403 377 366 l 390 415 q 283 378 327 378 m 428 864 q 321 791 367 864 q 279 660 279 725 q 385 525 279 525 q 487 596 446 525 q 524 724 524 658 q 503 817 524 778 q 428 864 477 864 z "}," ":{"ha":347,"x_min":0,"x_max":0,"o":""},"!":{"ha":359,"x_min":50,"x_max":385,"o":"m 385 930 q 339 698 385 873 q 273 453 307 575 q 253 369 263 411 q 220 306 235 306 q 200 311 218 306 q 186 304 197 311 q 172 297 174 297 q 161 319 161 297 q 165 349 163 334 l 158 355 q 129 311 152 338 q 118 342 118 311 q 128 432 118 376 q 144 522 136 477 q 205 956 176 726 q 229 1042 217 1042 q 249 991 247 1042 l 254 985 q 269 1001 263 985 q 285 1018 275 1018 q 325 993 311 1018 l 321 968 q 349 957 332 967 q 378 961 358 958 q 385 930 385 951 m 172 241 q 203 224 182 235 q 214 229 205 224 q 225 233 222 233 q 250 184 250 233 q 219 68 250 125 q 129 0 182 0 q 99 12 102 0 q 92 36 94 34 q 62 12 68 12 q 50 65 50 12 q 62 161 50 109 q 107 235 79 231 q 132 225 121 231 q 172 241 145 232 z "},"\"":{"ha":591,"x_min":222,"x_max":742,"o":"m 722 1107 q 742 1086 742 1107 q 646 794 742 1061 q 606 758 633 758 q 610 781 610 769 q 595 793 610 793 l 574 761 q 543 753 559 755 q 553 786 547 764 q 543 794 550 793 q 525 767 537 790 q 507 747 514 747 q 492 781 492 747 q 524 945 492 810 q 536 1029 530 987 q 568 1101 551 1101 q 582 1092 580 1101 q 585 1072 583 1082 l 600 1079 q 616 1095 607 1079 q 648 1111 625 1111 q 663 1090 658 1111 q 675 1061 669 1066 q 696 1088 679 1064 q 722 1107 710 1107 m 453 1107 q 472 1086 472 1107 q 376 794 472 1062 q 336 758 363 758 q 340 781 340 769 q 325 793 340 793 q 304 761 318 781 q 273 753 290 755 q 283 786 277 764 q 273 794 281 793 q 256 767 268 790 q 237 747 245 747 q 222 781 222 747 q 235 863 222 814 q 254 945 252 928 q 298 1101 278 1101 q 312 1092 311 1101 q 315 1072 314 1082 l 330 1079 q 347 1095 338 1079 q 379 1111 356 1111 q 394 1090 389 1111 q 406 1061 400 1066 q 427 1088 410 1064 q 453 1107 441 1107 z "},"#":{"ha":1033,"x_min":-4,"x_max":1018,"o":"m 601 633 l 455 632 q 422 455 440 549 l 573 459 l 601 633 m 1006 782 q 1013 763 1018 780 q 1001 752 1010 755 q 986 747 987 748 q 1002 730 992 743 q 971 712 991 726 q 979 703 972 709 q 980 690 983 699 q 960 675 979 686 q 971 661 965 671 q 722 635 965 641 q 690 463 707 553 q 958 465 939 468 q 964 445 970 463 q 953 434 962 437 q 938 429 940 431 q 954 412 944 425 q 924 395 943 408 q 931 386 924 392 q 932 372 935 382 q 912 357 931 368 q 924 343 918 354 q 663 317 918 323 l 612 52 q 587 33 605 30 q 576 43 579 34 q 572 61 574 52 q 554 46 567 55 q 517 75 517 52 q 551 315 516 92 l 397 314 l 345 52 q 321 33 338 30 q 310 43 313 34 q 305 61 307 52 q 288 46 301 55 q 250 75 251 52 q 284 315 250 92 q 14 319 29 317 q 3 344 -4 323 q 14 360 5 355 q 31 370 22 365 q 22 387 26 373 q 55 438 35 432 q 306 451 72 443 l 334 633 q 62 637 77 635 q 50 662 44 640 q 62 677 54 672 q 79 687 71 682 q 69 705 74 690 q 102 755 83 750 q 357 769 119 760 q 422 1146 414 1118 q 441 1158 427 1160 q 448 1146 448 1157 q 449 1130 449 1131 q 467 1152 454 1138 q 477 1120 469 1141 q 486 1131 479 1122 q 498 1135 490 1137 q 507 1115 502 1135 q 522 1131 511 1121 q 526 1111 526 1131 q 479 773 526 1046 l 625 777 q 689 1146 681 1119 q 707 1158 694 1160 q 715 1146 714 1157 q 715 1130 715 1131 q 734 1152 721 1138 q 743 1120 735 1141 q 752 1131 745 1122 q 765 1135 757 1137 q 774 1115 768 1135 q 788 1131 777 1121 q 792 1111 792 1131 q 747 780 792 1046 q 1006 782 987 785 z "},"$":{"ha":644,"x_min":60,"x_max":689,"o":"m 106 525 q 197 746 106 632 q 379 911 269 836 q 404 1054 383 962 l 422 1050 q 449 1084 428 1063 l 456 1071 l 463 1071 q 484 1097 471 1088 l 488 1095 l 468 975 q 677 1097 658 1097 q 689 1083 689 1097 q 671 1059 689 1074 q 646 1036 649 1041 q 657 1023 646 1029 q 675 1007 671 1015 q 648 971 665 996 l 656 962 l 664 958 q 660 939 662 950 q 685 945 668 941 q 656 907 685 926 q 439 752 536 831 q 288 567 288 628 q 322 530 288 542 q 434 557 349 534 q 546 575 505 575 q 613 532 589 575 q 633 450 633 497 q 538 235 633 342 q 353 77 477 165 q 342 -7 347 35 q 323 -90 335 -58 q 314 -102 321 -96 l 300 -86 q 282 -114 296 -97 l 277 -110 l 279 -98 l 271 -96 q 252 -134 266 -109 q 245 -118 245 -129 q 254 -52 245 -94 q 267 14 265 -5 q 72 -113 82 -113 q 62 -103 62 -113 q 73 -77 62 -95 q 87 -50 85 -57 l 77 -36 q 96 -9 85 -28 q 69 0 85 -9 q 82 32 74 10 q 60 49 73 35 q 156 132 60 64 q 334 263 296 231 q 431 385 431 342 q 412 399 431 399 q 336 385 387 399 q 260 371 286 371 q 148 413 189 371 q 106 525 106 454 z "},"%":{"ha":1105,"x_min":143,"x_max":1032,"o":"m 293 586 q 389 680 341 586 q 437 819 427 754 q 452 885 441 842 q 461 867 459 880 q 467 846 464 850 l 489 856 q 490 854 490 855 q 497 833 497 848 q 507 823 503 831 q 525 833 517 828 q 538 807 538 833 q 465 586 538 692 q 273 469 383 469 q 174 517 210 469 q 143 625 143 559 q 205 816 143 710 q 332 975 257 903 q 378 1016 359 1002 q 431 1042 412 1042 l 437 1038 q 429 1011 435 1029 l 436 1003 q 450 1006 449 1006 q 460 982 463 1006 l 465 975 l 473 977 l 481 968 q 345 812 412 890 q 268 625 268 718 q 293 586 268 586 m 787 117 q 897 241 852 117 q 946 415 922 328 q 956 397 954 410 q 961 376 958 380 l 983 386 q 991 364 991 379 q 1002 354 997 362 q 1019 364 1012 359 q 1032 338 1032 364 q 959 117 1032 223 q 768 0 878 0 q 669 47 705 0 q 637 155 637 89 q 700 346 637 241 q 827 505 751 432 q 872 546 854 532 q 925 572 906 572 l 932 568 q 924 542 929 559 l 930 533 q 945 536 945 536 q 954 513 958 536 l 960 505 l 968 507 l 975 498 q 839 342 907 420 q 762 155 762 248 q 787 117 762 117 m 875 917 l 880 916 l 888 918 q 890 908 890 915 q 681 562 890 904 q 440 176 468 212 q 340 31 416 145 q 235 -109 279 -60 l 229 -106 l 222 -111 l 224 -113 q 176 -174 206 -142 l 174 -168 q 201 -118 184 -152 l 200 -113 l 203 -96 q 232 -39 213 -77 l 229 -32 l 224 -36 l 220 -32 q 288 87 244 18 q 363 204 326 146 l 760 859 q 865 1050 791 926 l 873 1042 q 869 1019 869 1019 q 872 1008 869 1013 l 879 1010 l 885 1006 l 882 993 l 885 989 l 893 990 l 900 985 q 875 917 899 979 z "},"&":{"ha":772,"x_min":50,"x_max":728,"o":"m 343 406 q 262 328 276 344 q 216 231 216 276 q 239 191 216 207 q 283 175 259 175 q 406 243 315 175 q 343 406 384 296 m 449 92 q 262 0 339 0 q 110 62 170 0 q 50 216 50 124 q 93 349 50 283 q 191 456 125 397 q 300 549 245 503 q 272 725 272 686 q 283 768 272 766 q 304 736 288 756 q 314 774 314 736 q 336 831 314 806 q 406 888 362 861 q 489 918 456 918 q 594 875 545 918 q 644 777 644 831 q 486 532 644 683 q 507 459 486 507 q 530 386 528 408 q 605 484 541 397 q 668 562 663 562 q 694 543 694 562 q 681 511 694 532 q 668 478 668 489 l 675 473 q 710 504 686 485 q 722 490 722 505 q 710 464 722 486 q 694 435 696 438 l 699 425 q 718 441 705 431 q 728 427 728 437 q 671 313 728 391 q 585 208 627 250 q 633 96 608 152 q 668 -11 668 12 q 654 -33 668 -33 q 636 -20 646 -33 q 621 -1 623 -3 q 615 -11 615 -4 q 625 -41 615 -21 q 635 -72 635 -61 q 614 -97 635 -97 q 593 -80 605 -97 q 578 -56 586 -68 l 574 -64 q 586 -143 586 -144 q 558 -184 586 -184 q 507 -68 545 -184 q 449 92 491 -12 m 443 661 q 479 701 456 669 q 503 746 503 733 q 476 777 503 777 q 431 725 431 777 q 443 661 431 704 z "},"'":{"ha":322,"x_min":222,"x_max":472,"o":"m 453 1107 q 472 1086 472 1107 q 376 794 472 1062 q 336 758 363 758 q 340 781 340 769 q 325 793 340 793 q 304 761 318 781 q 273 753 290 755 q 283 786 277 764 q 273 794 281 793 q 256 767 268 790 q 237 747 245 747 q 222 781 222 747 q 235 863 222 814 q 254 945 252 928 q 298 1101 278 1101 q 312 1092 311 1101 q 315 1072 314 1082 l 330 1079 q 347 1095 338 1079 q 379 1111 356 1111 q 394 1090 389 1111 q 406 1061 400 1066 q 427 1088 410 1064 q 453 1107 441 1107 z "},"(":{"ha":463,"x_min":136,"x_max":547,"o":"m 304 4 l 306 -83 l 310 -218 q 289 -257 312 -257 q 264 -223 274 -257 q 249 -175 252 -178 q 224 -216 242 -190 q 200 -174 213 -204 q 175 -131 187 -143 q 158 -154 171 -140 q 136 164 136 -88 q 411 1054 136 571 q 452 1111 433 1092 q 461 1097 461 1112 q 456 1065 461 1105 l 461 1059 q 496 1082 472 1068 q 511 1063 511 1082 q 489 1007 511 1055 l 496 997 q 511 1006 501 1002 l 522 999 l 518 977 l 529 970 l 541 975 l 547 970 q 418 684 499 877 q 304 4 300 333 z "},")":{"ha":463,"x_min":-33,"x_max":378,"o":"m 210 850 l 208 937 l 204 1072 q 225 1111 202 1111 q 250 1077 240 1111 q 265 1029 262 1034 q 278 1050 271 1035 q 290 1071 284 1065 q 314 1028 301 1059 q 339 985 327 997 q 355 1008 343 994 q 378 690 378 945 q 103 -200 378 283 q 62 -257 81 -238 q 53 -243 53 -258 q 58 -211 53 -250 l 53 -204 q 18 -228 43 -214 q 3 -208 3 -229 q 25 -153 3 -203 l 18 -143 q 3 -151 12 -148 l -8 -144 l -4 -122 l -16 -115 l -26 -121 l -33 -115 q 96 171 14 -22 q 210 850 214 523 z "},"*":{"ha":541,"x_min":85,"x_max":636,"o":"m 85 779 q 261 829 97 798 q 121 954 121 932 q 134 970 121 970 q 150 961 138 970 q 167 950 162 951 q 155 986 163 962 l 164 993 q 179 987 174 991 l 183 991 q 167 1018 178 1000 q 176 1025 170 1025 q 189 1019 180 1025 q 201 1013 199 1013 l 205 1019 l 203 1038 q 215 1046 207 1046 q 330 925 253 1005 q 357 1074 342 972 q 372 1101 361 1101 q 385 1086 381 1101 q 392 1063 389 1066 q 408 1090 397 1067 q 424 1111 417 1111 q 435 1096 432 1107 q 443 1079 441 1082 l 458 1095 q 460 1050 463 1090 l 465 1044 q 488 1071 471 1055 l 496 1064 q 446 889 471 962 q 519 922 497 913 q 595 946 577 946 l 603 937 q 581 917 595 930 q 618 909 586 909 q 632 895 632 909 q 621 877 632 884 q 603 865 605 867 q 622 856 606 860 q 636 844 636 853 q 614 829 633 840 q 600 808 601 822 l 488 777 q 557 721 522 749 q 611 665 611 676 l 610 659 q 571 653 593 653 q 561 621 571 624 q 525 621 561 621 q 549 579 549 575 q 532 566 549 566 q 469 621 524 566 q 404 690 437 656 q 375 545 393 626 q 361 551 370 549 q 338 513 355 513 q 319 536 333 522 q 293 507 314 526 q 284 517 286 507 q 285 540 283 525 q 288 555 288 555 q 285 566 288 562 q 266 555 277 566 q 245 545 254 545 l 241 554 q 286 715 258 608 q 129 653 234 694 l 123 659 q 138 677 128 665 q 104 689 125 678 q 126 724 113 700 q 108 730 124 725 q 96 741 96 733 q 110 753 99 748 q 123 762 120 758 q 85 779 109 764 z "},"+":{"ha":787,"x_min":23,"x_max":762,"o":"m 743 564 q 758 539 762 561 q 744 526 757 530 q 724 520 726 522 q 751 499 734 515 q 711 477 736 494 q 724 467 713 474 q 730 449 732 461 q 705 431 730 444 q 715 422 707 425 q 725 414 723 418 q 467 388 722 397 q 467 137 471 168 q 436 113 463 109 q 417 126 423 115 q 405 149 411 137 q 383 130 401 140 q 320 165 328 137 q 304 384 314 189 q 50 385 82 380 q 26 414 23 389 q 40 434 28 427 q 62 446 51 440 q 43 468 54 450 q 79 530 51 524 q 296 547 103 536 q 288 829 284 807 q 311 845 290 848 q 325 830 321 843 q 330 810 329 812 q 351 838 336 820 q 374 798 357 823 q 385 811 377 800 q 402 817 389 819 q 420 791 407 816 q 429 801 426 793 q 437 811 433 810 q 463 555 454 809 q 743 564 721 567 z "},",":{"ha":322,"x_min":1,"x_max":257,"o":"m 71 -149 q 62 -127 64 -142 q 58 -103 60 -106 q 47 -129 56 -113 q 32 -142 37 -132 q 21 -154 27 -152 q 1 -131 1 -154 q 25 39 1 -87 q 62 207 47 155 q 94 224 67 224 q 133 239 109 224 q 171 254 157 254 q 186 246 176 254 q 201 235 198 236 q 220 249 207 237 q 240 258 231 258 q 257 235 257 258 q 203 33 257 190 q 121 -134 147 -134 q 107 -104 118 -123 q 92 -131 100 -118 q 71 -149 82 -149 z "},"-":{"ha":437,"x_min":40,"x_max":397,"o":"m 379 473 q 397 452 397 473 q 385 437 397 441 q 366 428 368 429 q 396 411 376 424 q 359 383 382 404 q 374 374 361 380 q 382 358 382 371 q 359 336 382 353 q 371 329 362 331 q 382 322 379 327 q 241 275 382 303 q 68 249 113 249 q 40 275 40 249 q 50 296 40 288 q 71 311 60 304 q 49 330 62 315 q 75 397 49 387 q 233 443 110 412 q 379 473 356 473 z "},".":{"ha":322,"x_min":33,"x_max":241,"o":"m 129 0 q 89 36 97 0 q 77 18 82 31 q 53 12 66 12 q 33 50 33 22 q 49 163 33 97 q 98 248 68 248 q 111 237 109 248 q 115 218 114 220 q 131 243 123 231 q 155 256 142 256 q 192 248 184 256 q 227 241 210 245 q 241 212 241 237 q 220 79 241 136 q 129 0 191 0 z "},"/":{"ha":591,"x_min":-116,"x_max":724,"o":"m -115 -165 q -44 -43 -94 -121 q 29 78 9 40 q 214 412 101 216 q 399 732 272 522 q 457 834 422 768 q 513 937 496 910 q 563 1030 538 984 q 615 1111 603 1104 q 631 1101 631 1112 q 622 1083 631 1098 q 614 1065 614 1069 q 621 1055 614 1058 q 639 1070 626 1057 q 659 1080 650 1080 q 677 1059 676 1080 q 675 1026 676 1043 l 681 1018 q 707 1050 688 1029 q 724 1034 724 1050 q 672 926 724 1019 q 607 817 624 838 q 457 551 559 754 q 193 89 416 469 q 25 -215 139 -14 q -7 -237 12 -237 q -17 -216 -17 -237 q -15 -194 -17 -208 q -12 -175 -13 -180 q -32 -195 -18 -178 q -52 -208 -45 -208 q -61 -200 -58 -208 q -41 -135 -54 -178 l -45 -126 q -103 -178 -62 -146 q -112 -175 -109 -178 q -115 -165 -116 -171 z "},":":{"ha":322,"x_min":33,"x_max":328,"o":"m 215 397 q 175 433 183 397 q 163 415 168 427 q 139 410 152 410 q 119 447 119 419 q 135 559 119 494 q 184 644 155 644 q 197 634 196 644 q 201 615 200 617 q 217 640 210 627 q 241 653 228 653 q 278 644 271 653 q 313 639 296 642 q 328 610 328 635 q 307 477 328 533 q 215 397 277 397 m 129 0 q 89 36 97 0 q 77 18 82 31 q 53 12 66 12 q 33 50 33 22 q 49 163 33 97 q 98 248 68 248 q 111 237 109 248 q 115 218 114 220 q 131 243 123 231 q 155 256 142 256 q 192 248 184 256 q 227 241 210 245 q 241 212 241 237 q 220 79 241 136 q 129 0 191 0 z "},";":{"ha":322,"x_min":1,"x_max":328,"o":"m 71 -149 q 62 -127 64 -142 q 58 -103 60 -106 q 47 -129 56 -113 q 32 -142 37 -132 q 21 -154 27 -152 q 1 -131 1 -154 q 25 39 1 -87 q 62 207 47 155 q 94 224 67 224 q 133 239 109 224 q 171 254 157 254 q 186 246 176 254 q 201 235 198 236 q 220 249 207 237 q 240 258 231 258 q 257 235 257 258 q 203 33 257 190 q 121 -134 147 -134 q 107 -104 118 -123 q 92 -131 100 -118 q 71 -149 82 -149 m 215 397 q 175 433 183 397 q 163 415 168 427 q 139 410 152 410 q 119 447 119 419 q 135 559 119 494 q 184 644 155 644 q 197 634 196 644 q 201 615 200 617 q 217 640 210 627 q 241 653 228 653 q 278 644 271 653 q 313 639 296 642 q 328 610 328 635 q 307 477 328 533 q 215 397 277 397 z "},"<":{"ha":470,"x_min":-13,"x_max":386,"o":"m 182 584 q 279 465 279 486 q 269 392 279 442 q 258 318 258 342 q 245 275 252 297 q 220 248 235 248 q 123 357 187 276 q 21 463 62 433 q -13 508 -13 487 q 1 587 -13 534 q 18 667 16 646 q 173 781 20 692 q 271 844 222 812 q 363 890 344 890 q 385 867 386 890 q 351 831 376 852 q 315 795 325 808 q 328 781 316 785 l 340 783 l 353 772 q 345 706 349 750 q 268 642 323 679 q 182 584 193 593 z "},"=":{"ha":787,"x_min":23,"x_max":762,"o":"m 743 435 q 758 410 762 432 q 744 397 757 401 q 724 391 726 393 q 751 370 734 386 q 711 348 736 365 q 724 338 713 345 q 730 320 732 332 q 705 302 730 315 q 715 293 707 296 q 725 285 723 290 q 362 249 720 249 q 50 256 98 249 q 26 286 23 260 q 40 305 28 298 q 62 317 51 311 q 43 339 54 321 q 79 401 51 395 q 351 423 111 410 q 701 436 591 436 q 743 435 732 436 m 743 760 q 758 736 762 758 q 744 723 757 726 q 724 718 726 718 q 751 696 734 711 q 711 673 736 690 q 724 663 713 671 q 730 646 732 659 q 705 627 730 641 q 715 618 707 622 q 725 610 723 615 q 362 574 720 574 q 50 581 98 574 q 26 611 23 585 q 40 631 28 625 q 62 643 51 637 q 43 665 54 647 q 79 728 51 720 q 351 748 111 735 q 701 762 591 762 q 743 760 732 762 z "},">":{"ha":470,"x_min":113,"x_max":511,"o":"m 317 568 q 220 688 220 667 q 230 761 220 710 q 241 835 240 811 q 254 877 247 856 q 278 905 263 905 q 376 795 311 877 q 477 690 436 720 q 511 644 511 666 q 498 566 511 619 q 481 485 483 507 q 326 372 479 460 q 229 309 277 340 q 135 262 155 262 q 113 286 113 262 q 148 323 123 300 q 183 357 174 345 q 171 372 182 368 l 159 370 l 146 380 q 154 446 149 402 q 231 511 175 474 q 317 568 306 559 z "},"?":{"ha":541,"x_min":57,"x_max":578,"o":"m 117 734 q 103 749 103 734 q 111 763 103 751 q 119 778 118 775 l 111 785 q 66 755 98 773 q 57 771 57 755 q 226 916 57 792 q 443 1042 398 1042 q 503 1009 458 1042 q 547 964 547 977 q 532 899 547 952 l 538 893 q 570 945 545 913 q 578 895 578 928 q 504 656 578 842 q 397 396 451 526 q 375 334 386 365 q 346 286 355 286 q 335 318 332 286 l 330 322 l 325 315 l 319 317 q 290 283 304 283 q 279 293 279 283 q 282 306 279 297 q 286 318 286 315 l 283 323 q 263 298 273 311 q 240 279 248 279 q 227 298 227 279 q 298 556 227 354 q 370 808 370 758 q 350 842 370 842 q 260 786 330 842 q 170 711 215 749 q 155 722 155 711 q 163 734 155 727 q 174 745 173 744 l 168 753 q 141 744 159 753 q 117 734 123 734 m 283 241 q 314 224 293 235 q 325 229 317 224 q 336 233 333 233 q 361 184 361 233 q 330 68 361 125 q 240 0 294 0 q 210 12 213 0 q 203 36 205 34 q 174 12 179 12 q 161 65 161 12 q 174 161 161 109 q 218 235 190 231 q 243 225 232 231 q 283 241 256 232 z "},"A":{"ha":875,"x_min":-78,"x_max":886,"o":"m 318 160 q 113 -236 222 27 q 86 -269 99 -269 q 66 -241 66 -269 q 74 -215 66 -240 q 49 -191 64 -208 q 58 -170 50 -186 q 65 -149 65 -157 l 57 -142 q 44 -148 54 -142 q 29 -153 33 -153 q 12 -129 12 -153 q 20 -106 12 -120 q 28 -86 28 -92 q 17 -77 28 -77 q -9 -100 11 -85 q -22 -79 -22 -100 q 18 3 -22 -66 q 72 94 45 49 q 64 109 72 104 q -66 77 -56 77 q -78 97 -78 77 q -65 142 -78 131 q -7 167 -7 153 q -26 175 -12 173 q -39 186 -39 176 q -18 225 -39 221 q 75 240 28 233 q 161 268 154 255 q 366 615 227 385 q 519 860 442 738 q 667 1075 652 1070 q 693 1059 687 1072 q 692 1045 693 1055 q 690 1029 690 1035 q 697 1019 690 1023 l 708 1023 q 715 1014 715 1021 q 710 985 715 1004 q 705 956 705 966 q 715 939 705 939 q 728 979 722 949 q 745 1018 735 1007 q 757 993 754 1017 q 765 958 760 965 q 782 972 770 964 q 805 958 796 972 q 814 929 814 944 q 793 701 814 854 q 772 473 772 549 q 782 439 772 439 q 828 455 793 439 q 873 472 862 472 q 886 453 886 472 q 870 421 886 433 q 839 399 854 410 q 856 390 843 392 q 872 383 868 388 q 851 352 872 355 q 829 335 829 350 l 838 326 q 863 334 841 327 q 871 323 871 330 q 810 289 871 308 q 746 236 749 269 l 726 40 q 696 12 724 12 q 685 24 685 12 q 688 38 685 28 q 690 52 690 47 q 676 61 690 61 q 656 25 676 61 q 631 0 643 0 q 623 11 624 3 q 624 29 622 17 q 625 43 625 41 q 616 60 625 54 q 595 21 598 60 q 585 -25 591 -21 l 571 -21 q 545 -49 564 -32 q 534 -31 534 -49 q 549 91 534 10 q 564 211 564 171 q 555 222 564 219 q 438 187 511 203 q 318 160 378 174 m 585 389 l 625 690 l 616 699 q 486 504 580 663 q 397 343 401 358 l 404 336 q 498 358 435 336 q 585 389 541 373 z "},"B":{"ha":772,"x_min":83,"x_max":768,"o":"m 343 543 l 346 534 q 492 669 422 591 q 585 833 585 772 q 547 880 585 880 q 465 857 519 880 q 390 812 410 833 q 343 543 388 798 m 100 730 q 122 754 108 737 q 110 774 116 763 l 119 790 q 102 802 115 797 q 89 815 89 806 q 100 831 89 821 q 113 844 111 841 q 83 867 101 850 q 162 912 83 882 q 261 947 212 930 l 267 953 q 290 1025 278 989 q 318 1083 309 1083 q 330 1072 326 1080 q 338 1057 335 1060 q 357 1063 358 1063 q 371 1043 371 1063 q 369 1027 371 1038 q 366 1011 366 1015 l 371 1004 q 395 1023 378 1012 q 418 1004 402 1017 q 514 1035 449 1005 q 612 1064 580 1064 q 720 997 667 1064 q 768 876 768 933 q 692 677 768 775 q 551 511 622 594 q 563 502 551 503 q 587 502 571 500 q 606 504 606 504 q 711 457 674 504 q 746 345 746 414 q 654 39 746 218 q 565 -110 634 1 q 468 -241 482 -241 q 458 -227 458 -241 l 469 -205 l 461 -196 q 439 -204 446 -204 q 429 -192 429 -204 q 441 -171 429 -184 q 457 -151 455 -155 q 447 -138 456 -144 q 408 -150 414 -150 q 392 -138 392 -150 q 400 -120 392 -132 q 408 -100 408 -108 l 400 -93 l 383 -97 l 375 -86 q 485 89 430 1 q 554 279 554 201 q 519 357 554 337 q 431 371 494 371 q 373 363 406 371 q 329 338 331 353 q 297 72 308 202 q 272 -14 290 -14 q 254 5 256 -14 q 256 37 256 -16 q 245 61 256 61 q 224 35 241 51 q 203 64 218 45 q 182 49 191 57 q 171 64 171 49 l 171 80 q 172 102 171 117 q 161 117 171 109 q 142 98 156 109 q 131 123 131 98 q 143 268 131 180 q 165 412 154 340 q 183 573 174 492 q 215 732 195 671 q 218 754 218 743 q 208 765 218 765 q 158 743 197 765 q 109 721 119 721 q 100 730 101 721 z "},"C":{"ha":591,"x_min":75,"x_max":631,"o":"m 75 314 q 232 822 75 530 q 344 979 272 897 q 490 1083 435 1083 q 585 1013 536 1083 q 631 899 631 947 q 624 833 631 877 q 617 767 617 789 q 608 717 617 745 q 579 682 596 682 q 563 690 574 682 q 547 699 552 697 q 530 672 543 694 q 509 654 522 654 q 496 670 498 654 q 489 693 494 689 q 471 664 479 684 q 459 632 463 637 l 447 629 q 429 611 442 611 q 422 625 420 617 q 464 844 464 765 q 439 892 464 892 q 322 667 401 892 q 241 307 241 437 q 275 215 241 253 q 364 175 311 175 q 593 283 440 175 l 597 275 q 586 256 593 269 q 593 231 589 248 q 567 201 583 222 q 585 171 574 192 q 453 70 584 140 q 269 0 321 0 q 127 100 207 0 q 80 201 90 146 q 75 314 75 230 z "},"D":{"ha":772,"x_min":37,"x_max":761,"o":"m 421 629 q 407 530 421 591 q 382 431 395 480 q 318 111 318 130 q 330 100 318 100 q 414 150 355 100 q 578 447 578 289 q 412 724 578 589 q 119 904 326 793 q 82 930 93 918 q 100 945 89 935 q 71 970 88 951 q 94 1010 71 995 l 110 1007 l 115 1014 q 110 1036 110 1029 q 126 1067 110 1048 l 117 1086 q 129 1097 116 1097 q 326 986 159 1097 q 528 848 427 917 q 716 646 659 762 q 761 464 761 556 q 611 123 761 279 q 295 -94 493 0 q 129 -158 159 -158 q 114 -144 113 -158 q 146 -115 130 -137 q 136 -110 143 -110 q 111 -117 131 -110 q 82 -127 88 -126 q 57 -75 76 -125 q 68 -60 63 -69 l 60 -56 l 43 -58 l 37 -47 q 96 -12 41 -44 q 138 39 130 8 q 183 270 157 119 q 227 501 210 429 q 262 665 238 555 q 293 764 283 764 q 307 751 306 764 q 306 729 306 765 q 319 708 306 711 q 345 708 317 708 q 361 671 361 708 q 391 653 361 659 q 421 629 421 647 z "},"E":{"ha":848,"x_min":75,"x_max":863,"o":"m 372 847 q 363 856 372 856 q 256 834 328 856 q 149 812 184 812 q 134 832 134 812 q 146 847 134 842 q 158 860 158 851 q 149 876 158 864 q 138 892 139 888 q 146 906 138 899 q 157 920 155 913 q 135 943 149 926 q 158 962 135 961 q 245 979 187 964 q 332 1003 328 1002 q 690 1076 452 1025 q 789 1097 785 1097 q 799 1086 800 1097 l 794 1075 q 808 1068 799 1068 q 827 1072 814 1068 q 846 1075 840 1075 q 859 1061 859 1075 q 842 1040 852 1056 q 863 1011 863 1016 q 854 987 863 998 q 840 968 842 974 q 854 949 848 961 q 734 907 854 928 q 579 886 652 892 q 558 869 565 885 q 530 744 551 853 q 509 615 509 634 q 521 603 509 603 q 660 647 543 603 q 798 692 777 692 q 811 676 811 692 q 802 664 811 671 q 789 653 790 656 q 799 639 793 645 q 783 614 793 631 q 796 601 785 609 q 804 582 804 595 q 789 532 804 547 q 642 481 779 522 q 475 431 559 456 q 433 201 454 341 q 449 193 438 193 q 595 218 492 193 q 746 248 704 245 q 783 256 758 248 q 822 264 808 264 q 848 241 848 264 q 822 205 838 231 q 842 184 831 201 q 819 151 833 175 l 832 135 q 808 94 823 121 q 783 89 798 91 q 410 26 569 60 q 235 0 302 4 q 201 -8 224 -1 q 167 -16 179 -16 q 149 -3 149 -16 q 157 14 149 5 q 167 26 165 22 q 144 52 158 33 q 157 69 144 62 q 176 83 174 79 q 149 114 165 92 q 260 163 149 140 q 283 267 269 180 q 296 375 296 349 q 290 389 296 385 q 218 370 282 387 q 147 357 174 357 q 136 368 136 357 l 144 383 q 132 395 144 392 q 114 406 118 398 q 127 428 123 415 l 119 432 q 86 425 83 425 q 75 433 75 425 q 87 461 75 431 l 75 478 q 194 516 119 500 q 317 543 309 541 q 347 684 324 545 q 372 847 372 834 z "},"F":{"ha":798,"x_min":61,"x_max":836,"o":"m 375 357 l 367 364 q 271 337 356 361 q 186 317 201 317 q 174 328 173 317 q 184 345 178 338 l 176 351 q 143 347 165 350 l 135 351 l 136 371 q 118 397 138 394 q 81 395 133 395 q 68 419 68 395 q 90 436 68 429 q 397 531 230 475 q 408 545 406 536 q 427 689 412 558 q 441 840 441 820 q 429 854 441 854 q 301 824 389 854 q 175 794 214 794 q 154 804 154 794 q 165 825 160 813 q 155 836 166 836 q 137 832 150 836 q 118 828 125 828 q 104 839 104 828 q 107 856 104 844 q 111 871 111 867 q 83 880 109 874 q 61 907 61 884 q 79 933 61 926 q 372 1014 177 968 q 669 1069 569 1059 q 736 1085 688 1072 q 803 1097 779 1097 q 821 1069 821 1097 q 811 1050 821 1058 q 796 1034 799 1040 q 808 1022 798 1030 q 815 1006 815 1017 q 804 980 815 991 q 787 958 790 966 q 806 950 791 954 q 818 939 818 946 q 741 912 818 926 q 640 895 691 903 q 607 753 629 882 q 587 602 587 631 q 599 589 587 589 q 705 630 608 589 q 819 672 802 672 q 836 650 836 672 q 823 625 836 633 q 804 608 807 615 q 823 593 806 605 q 833 572 833 584 q 824 552 833 559 q 806 539 808 541 q 820 528 806 530 q 835 514 835 527 q 702 462 835 505 q 558 401 566 418 q 512 182 545 372 q 475 -56 481 7 q 462 -107 473 -73 q 452 -161 452 -138 q 425 -199 452 -199 q 410 -187 413 -199 q 409 -163 407 -179 q 411 -140 411 -140 q 399 -119 411 -119 q 386 -124 395 -119 q 375 -129 378 -129 q 357 -98 359 -129 q 347 -68 355 -68 q 333 -76 342 -68 q 319 -83 323 -83 q 307 -66 307 -83 q 341 143 307 -6 q 375 357 374 293 z "},"G":{"ha":746,"x_min":52,"x_max":760,"o":"m 52 237 q 120 505 52 328 q 257 770 180 661 q 460 991 334 880 q 660 1111 597 1111 q 697 1082 697 1111 q 690 1056 697 1072 q 684 1036 684 1039 q 697 1025 684 1025 q 709 1028 701 1025 q 721 1032 718 1032 q 734 1019 734 1032 q 723 1002 734 1015 q 710 986 711 989 q 722 977 709 977 q 739 980 728 977 q 754 985 750 984 q 760 975 760 982 q 711 940 760 960 q 409 656 594 891 q 218 298 218 414 q 233 279 218 279 q 467 476 275 279 q 669 672 659 672 q 711 633 703 672 q 713 572 713 623 q 717 564 713 564 l 722 566 l 734 582 q 741 585 737 585 q 752 564 752 585 q 671 223 752 464 q 530 -100 591 -18 q 509 -131 517 -118 q 505 -139 509 -136 q 494 -142 500 -142 q 488 -132 488 -139 q 494 -104 488 -134 l 489 -100 q 440 -182 465 -141 q 358 -229 411 -229 q 306 -199 326 -229 q 289 -138 289 -173 q 340 26 289 -95 q 421 154 393 154 l 428 146 q 403 94 418 130 q 422 66 411 86 q 393 -13 408 27 q 372 -89 372 -69 q 390 -113 372 -113 q 419 -77 406 -113 q 488 137 447 3 q 539 335 539 305 q 530 347 539 344 q 360 190 498 322 q 207 53 235 68 q 196 65 196 52 q 201 76 196 68 q 205 87 205 83 q 197 98 205 95 q 140 58 176 79 q 52 237 52 108 z "},"H":{"ha":875,"x_min":-43,"x_max":897,"o":"m 897 546 q 886 526 897 536 q 868 509 871 513 q 893 482 878 503 q 832 450 878 467 q 778 422 787 432 q 747 210 774 376 q 707 18 717 24 q 693 33 701 31 q 681 17 690 27 q 667 24 677 22 q 643 -46 663 -1 q 615 -20 635 -37 q 586 -46 609 -23 q 554 -64 568 -64 q 533 -43 533 -64 q 546 26 533 -52 q 574 180 560 103 q 591 334 591 275 q 586 345 591 341 q 363 268 422 296 q 310 53 350 262 q 258 -164 271 -155 q 237 -150 252 -159 q 207 -179 229 -161 q 186 -171 196 -171 q 132 -224 166 -197 q 109 -201 125 -215 q 92 -219 104 -203 q 71 -231 81 -231 q 64 -212 64 -224 q 107 -17 64 -197 q 161 212 158 197 l 154 218 q 103 211 137 218 q 53 203 68 203 q 39 204 45 203 q 43 222 41 213 q 20 231 31 227 q 7 248 7 235 q 18 267 7 255 q 35 286 32 281 l 28 296 q -3 290 18 296 q -33 285 -23 285 q -43 293 -40 285 q 80 345 -43 311 q 204 387 202 378 q 290 804 231 494 l 307 894 q 315 935 311 920 q 330 970 324 970 q 340 951 336 965 q 350 933 344 938 q 372 982 354 938 q 404 1015 385 1015 q 425 991 410 1006 q 444 1015 429 994 q 467 1031 456 1031 q 498 1000 498 1031 q 401 534 498 942 q 380 444 380 450 q 392 432 380 432 q 498 474 395 432 q 616 525 601 517 q 631 608 616 526 q 693 1011 654 742 q 722 1097 703 1097 q 747 1086 744 1097 q 754 1064 750 1067 q 779 1096 760 1068 q 803 1120 795 1120 q 819 1092 822 1120 l 829 1083 q 844 1099 833 1085 q 861 1111 853 1111 q 871 1099 871 1111 q 828 755 871 981 q 806 631 806 636 q 821 614 806 614 q 846 625 826 614 q 876 636 865 636 q 890 624 890 636 q 881 604 890 614 q 869 589 871 595 q 884 567 871 583 q 897 546 897 550 z "},"I":{"ha":694,"x_min":52,"x_max":717,"o":"m 346 -75 q 258 41 316 -75 q 204 175 204 149 q 222 204 204 204 q 241 195 233 204 q 256 183 250 185 q 268 224 262 203 q 288 253 277 253 q 309 210 297 253 q 338 167 320 167 q 371 262 351 167 q 389 374 389 347 q 372 390 389 390 q 278 375 341 390 q 184 361 216 361 q 168 384 175 361 q 140 408 160 408 q 124 406 135 408 q 109 404 114 404 q 97 427 100 404 q 83 450 95 450 q 52 461 52 450 q 70 484 52 477 q 121 492 87 487 q 393 549 212 511 q 421 568 418 553 q 463 806 463 766 q 280 891 463 840 q 98 964 98 943 q 108 987 98 975 q 123 1007 121 1004 q 115 1038 120 1017 q 135 1061 123 1044 q 121 1090 130 1071 q 142 1111 126 1111 q 388 1038 159 1111 q 639 954 617 966 q 657 913 657 943 q 631 750 657 865 q 604 606 604 636 q 614 590 604 590 q 655 608 619 590 q 704 625 690 625 q 715 611 715 625 q 707 588 715 595 q 692 572 694 578 q 711 553 699 567 l 699 534 q 717 513 705 528 q 706 498 717 505 q 690 486 692 490 l 694 481 l 705 482 l 713 473 q 640 444 713 460 q 561 411 564 427 l 463 -22 q 413 -62 457 -45 q 346 -75 376 -75 z "},"J":{"ha":694,"x_min":52,"x_max":717,"o":"m 335 53 l 338 53 q 350 81 347 52 q 376 212 353 117 q 397 342 397 297 q 387 349 395 349 q 293 333 357 349 q 197 318 229 318 q 184 328 184 318 q 191 351 184 325 q 178 357 188 357 q 157 357 171 359 q 142 355 144 355 q 119 361 122 355 q 121 386 117 365 l 114 395 q 89 387 106 392 q 71 404 83 393 q 52 421 52 404 q 62 439 52 435 q 175 458 100 446 q 404 510 319 484 q 431 548 425 516 q 459 679 445 614 q 476 810 476 759 q 276 885 476 835 q 75 951 75 935 q 84 972 75 967 q 103 983 102 983 q 94 1001 102 987 q 87 1018 87 1013 q 105 1039 87 1033 q 134 1050 130 1046 q 113 1065 130 1058 q 100 1080 100 1072 q 119 1097 100 1097 q 636 953 180 1097 q 676 914 676 940 q 654 759 676 852 q 615 606 635 682 q 604 561 604 561 q 614 550 604 550 q 659 568 622 550 q 708 591 707 591 q 717 565 717 586 q 709 535 717 545 q 694 513 697 519 q 707 505 696 509 q 715 493 715 502 q 707 473 715 485 q 694 452 696 458 q 715 439 703 450 q 652 413 715 430 q 578 380 586 395 q 520 115 576 376 q 409 -227 456 -186 q 364 -240 393 -240 q 262 -118 315 -240 q 200 52 231 -33 q 184 106 193 71 l 191 113 q 208 104 202 109 q 227 134 222 104 q 239 175 231 169 q 257 171 250 174 q 271 224 257 191 q 293 169 279 224 q 308 109 306 115 q 335 53 318 75 z "},"K":{"ha":798,"x_min":75,"x_max":819,"o":"m 279 239 q 273 229 276 239 q 252 89 264 205 q 222 21 245 21 q 197 29 216 21 q 161 37 177 37 q 149 45 151 37 q 149 64 146 52 q 151 81 151 79 q 136 98 151 99 q 103 74 126 89 q 85 100 85 73 q 99 197 85 133 q 114 294 114 262 q 99 320 114 311 q 75 339 79 332 q 93 362 75 353 q 122 375 108 368 q 227 806 170 573 q 329 1059 291 1059 q 388 1040 359 1059 q 421 991 421 1019 q 414 970 421 986 q 407 945 407 954 l 414 936 q 436 942 421 938 q 443 926 443 937 q 392 709 443 899 q 330 484 361 597 q 325 458 325 463 q 336 447 325 447 q 471 619 382 447 q 623 939 547 779 q 732 1111 705 1111 q 789 1065 758 1111 q 819 994 819 1023 q 810 968 819 983 q 796 945 797 945 l 808 937 q 815 926 815 934 q 676 648 815 892 q 500 370 538 404 q 464 343 477 350 q 514 289 471 328 q 572 227 559 246 q 636 183 601 183 q 712 231 665 183 q 775 302 744 267 q 787 293 781 301 q 764 260 779 283 l 768 253 q 783 257 774 256 q 790 248 790 254 q 780 219 790 237 q 766 191 768 197 l 772 186 l 790 192 q 798 179 798 188 q 709 62 798 155 q 590 -33 618 -33 q 537 -16 554 -33 q 417 121 477 52 q 279 239 345 200 z "},"L":{"ha":668,"x_min":-7,"x_max":663,"o":"m -7 46 q 20 64 -7 58 q 75 80 62 73 q 114 132 106 96 q 306 1060 176 442 q 338 1097 314 1097 q 353 1081 348 1097 q 364 1057 360 1061 q 377 1062 368 1058 q 387 1067 386 1067 q 400 1047 400 1067 q 397 1036 400 1044 q 395 1025 395 1028 q 403 1015 395 1018 q 435 1039 412 1024 q 460 1014 441 1029 q 472 1018 472 1018 q 489 997 489 1018 q 404 644 489 996 q 302 200 366 496 l 296 159 q 290 138 293 145 l 298 126 q 475 170 327 131 q 643 203 602 203 q 656 193 656 203 q 642 176 648 186 q 655 164 648 170 q 663 149 663 158 q 642 128 663 140 q 612 110 616 113 q 634 97 618 102 q 656 85 650 92 q 635 54 648 75 q 648 46 635 54 q 656 32 656 41 q 603 12 656 21 q 211 -61 473 -14 q 117 -80 205 -62 q 22 -92 58 -92 q -1 -82 -1 -92 q 12 -64 -1 -71 q 31 -50 27 -56 q 8 -32 22 -45 q 32 -12 18 -27 q 12 -5 30 -11 q -1 8 -1 -1 q 6 19 -1 13 q 14 26 13 25 q 2 34 12 30 q -7 46 -7 39 z "},"M":{"ha":1132,"x_min":45,"x_max":1088,"o":"m 452 1097 q 505 1067 477 1097 q 533 1011 533 1038 q 484 714 533 907 q 416 418 425 477 l 419 412 q 585 702 459 451 q 722 933 700 933 q 743 926 726 933 l 751 928 q 755 916 755 924 q 752 903 755 911 q 749 890 749 895 q 764 875 749 875 q 782 882 766 875 q 800 804 800 882 q 770 593 800 743 q 739 399 739 444 q 747 387 739 391 q 816 517 760 387 q 850 602 833 559 q 892 681 871 652 q 953 799 922 724 q 991 839 969 839 q 1039 825 1016 839 q 1065 787 1065 810 q 1056 746 1065 773 q 1047 705 1047 720 q 1055 689 1047 694 q 1069 708 1063 694 q 1080 726 1076 722 q 1088 707 1088 720 q 1086 637 1088 683 q 1084 567 1084 587 l 1084 568 l 1084 564 l 1083 555 l 1080 500 l 1065 281 q 1055 181 1064 257 q 1047 81 1047 119 q 1031 49 1047 49 q 1022 64 1023 52 q 1024 85 1021 71 q 1026 103 1026 100 q 1015 122 1026 122 q 998 81 1006 122 q 977 40 989 40 q 966 62 969 46 q 957 85 962 79 q 943 57 953 81 q 926 37 935 37 q 911 74 924 51 q 896 26 898 74 q 872 -22 895 -22 q 861 -5 861 -22 q 878 125 861 31 q 899 257 897 226 q 913 386 901 299 l 905 395 q 770 140 904 393 q 627 -83 663 -62 q 591 -54 613 -77 q 566 -17 566 -29 q 567 -3 566 -12 q 568 11 568 7 q 559 35 568 26 q 536 8 553 25 q 526 22 526 7 q 557 201 526 73 q 589 371 589 330 q 568 387 589 387 q 399 98 503 281 q 232 -193 277 -117 q 210 -205 224 -205 q 171 -162 204 -205 q 138 -114 138 -119 q 179 142 138 -42 q 240 400 210 271 q 286 587 263 494 q 317 772 317 720 q 304 785 317 785 q 237 729 283 772 q 170 677 195 690 l 161 685 q 178 699 163 691 q 189 717 189 705 l 182 725 q 149 701 172 715 l 144 705 q 158 732 158 738 q 150 745 158 741 q 97 701 134 728 q 86 726 96 711 q 57 708 77 720 q 45 720 51 710 q 222 891 100 780 q 401 1064 345 1003 q 452 1097 431 1097 z "},"N":{"ha":875,"x_min":60,"x_max":827,"o":"m 827 591 q 806 273 827 473 q 786 78 797 208 q 772 37 785 37 q 751 64 767 47 q 741 39 745 59 q 729 22 739 22 q 721 41 723 27 q 713 60 718 55 q 694 23 705 60 q 669 -14 684 -14 q 660 7 663 -8 q 652 28 658 22 q 633 -11 635 28 q 618 -50 631 -50 q 599 -29 599 -50 q 608 60 599 -23 q 631 286 614 136 q 643 422 643 371 q 629 473 643 473 q 602 437 617 463 q 576 401 587 411 q 371 104 543 371 q 186 -138 214 -138 q 143 -97 172 -138 q 114 -39 114 -56 q 148 163 114 14 q 196 363 172 263 q 247 575 222 469 q 288 783 288 747 q 279 798 288 793 q 231 755 270 798 q 179 713 191 713 l 172 721 q 179 737 175 730 l 172 746 q 136 732 161 741 l 127 741 q 137 753 129 744 q 144 768 144 763 q 135 774 144 774 q 99 759 121 774 q 71 743 77 743 q 61 753 60 743 q 372 1060 223 946 q 422 1111 386 1080 q 467 1080 452 1111 q 482 1042 474 1061 l 497 1053 q 507 1038 507 1053 q 434 616 507 913 q 378 393 378 387 q 385 376 378 382 q 524 581 396 385 q 656 789 648 771 q 720 878 698 878 q 755 851 755 878 q 750 817 755 840 q 745 783 745 794 q 755 768 745 768 q 768 795 765 768 q 777 833 773 829 q 813 724 796 833 q 827 591 827 636 z "},"O":{"ha":746,"x_min":61,"x_max":777,"o":"m 61 302 q 237 779 61 547 q 648 1082 413 1012 q 754 1111 747 1111 q 775 1097 775 1111 q 764 1082 775 1090 q 747 1068 749 1072 q 764 1063 749 1066 q 777 1054 777 1061 q 758 1035 777 1046 q 733 1015 737 1023 q 753 999 741 1013 q 733 982 748 991 q 714 965 719 972 q 748 956 718 962 q 770 936 770 952 q 599 865 770 922 q 344 641 463 820 q 228 319 228 466 q 253 218 228 261 q 338 167 283 167 q 519 349 444 167 q 581 625 581 497 q 588 715 581 655 q 595 806 595 775 q 604 833 595 833 q 615 814 611 830 q 625 800 618 800 q 633 809 627 802 q 643 817 638 817 q 654 803 652 817 q 655 777 656 794 q 653 755 653 754 q 660 745 653 748 q 673 769 664 748 q 689 786 681 786 q 699 764 695 780 q 708 742 702 748 q 742 783 717 758 q 764 704 764 783 q 754 600 764 653 q 667 276 715 382 q 443 35 592 109 q 315 0 374 0 q 167 62 252 0 q 61 302 61 140 z "},"P":{"ha":772,"x_min":75,"x_max":745,"o":"m 745 364 q 661 140 745 203 q 623 111 642 125 q 575 97 604 97 q 471 195 546 97 q 399 319 399 290 q 407 330 399 326 q 435 298 416 319 l 443 304 q 416 367 433 325 l 422 374 q 447 361 431 369 l 457 368 q 424 429 446 388 q 433 441 423 441 q 490 374 442 441 q 557 306 538 306 q 595 376 595 306 q 532 595 595 475 q 387 774 469 711 q 282 842 360 795 q 169 883 271 848 q 82 925 82 913 q 104 937 82 933 q 135 943 133 942 q 114 955 132 947 q 100 970 100 961 q 123 983 100 983 q 143 981 130 983 q 163 978 156 978 q 176 991 176 978 q 126 1005 176 1001 q 75 1022 76 1010 q 98 1036 82 1031 q 123 1043 111 1040 q 89 1079 110 1053 q 110 1097 89 1097 q 209 1067 121 1097 q 310 1031 294 1039 q 632 764 527 920 q 745 364 745 599 m 298 798 q 319 764 313 798 q 330 715 326 722 q 347 732 339 715 q 366 749 355 749 q 389 684 389 749 q 397 657 389 662 q 408 675 404 661 q 416 693 411 689 q 427 668 427 693 q 412 550 427 623 q 388 433 400 492 q 298 -43 363 299 q 287 -115 293 -79 q 265 -174 277 -174 q 258 -146 261 -169 q 245 -127 255 -127 q 211 -183 228 -155 q 168 -224 184 -224 q 146 -186 163 -210 q 124 -224 134 -186 q 97 -262 113 -262 q 82 -239 82 -262 q 118 -36 82 -205 q 244 610 159 180 q 298 798 282 798 z "},"Q":{"ha":823,"x_min":61,"x_max":978,"o":"m 61 302 q 237 779 61 547 q 648 1082 413 1012 q 754 1111 747 1111 q 775 1097 775 1111 q 764 1082 775 1090 q 747 1068 749 1072 q 764 1063 749 1066 q 777 1054 777 1061 q 758 1036 777 1046 q 733 1015 737 1023 q 753 999 741 1013 q 733 982 748 991 q 714 965 719 972 q 748 956 718 962 q 770 936 770 952 q 599 865 770 922 q 344 641 463 820 q 228 319 228 466 q 252 219 228 261 q 335 167 281 170 q 306 212 306 196 q 314 225 306 221 l 328 216 q 339 228 339 216 q 333 240 339 231 q 326 258 326 250 q 361 265 326 272 l 367 272 q 361 290 361 290 q 371 300 361 300 q 458 243 399 280 q 547 425 511 312 q 581 625 581 533 q 588 715 581 655 q 595 806 595 775 q 604 833 595 833 q 615 815 612 829 q 625 800 618 800 q 633 809 627 802 q 643 817 638 817 q 654 803 652 817 q 655 777 656 794 q 653 755 653 754 q 660 745 653 748 q 673 769 664 748 q 689 786 681 786 q 699 764 695 780 q 708 742 702 748 q 742 783 717 758 q 764 704 764 783 q 719 418 764 569 q 596 161 671 258 q 779 56 669 109 q 971 -33 875 12 q 978 -47 978 -41 q 966 -60 978 -60 q 950 -55 963 -60 q 933 -50 937 -51 l 925 -61 q 942 -80 928 -68 q 956 -98 956 -91 q 946 -112 956 -109 q 926 -111 939 -113 q 908 -109 910 -109 q 899 -114 901 -109 q 920 -139 907 -121 q 903 -154 920 -154 q 686 -66 871 -154 q 469 49 506 20 q 315 0 385 0 q 167 62 254 0 q 61 302 61 138 z "},"R":{"ha":772,"x_min":75,"x_max":755,"o":"m 755 412 q 672 240 755 240 q 589 269 654 240 q 575 254 575 270 q 659 20 575 229 q 743 -212 743 -189 q 732 -221 740 -221 q 710 -185 722 -221 q 688 -149 698 -149 q 675 -160 675 -149 q 679 -180 675 -167 q 682 -199 682 -193 q 671 -210 682 -210 q 640 -169 659 -210 q 610 -127 620 -127 q 602 -158 600 -127 l 589 -165 q 559 -139 581 -155 l 555 -146 l 555 -157 l 545 -164 q 450 92 535 -156 q 366 355 366 339 q 382 416 366 383 q 425 456 401 456 q 490 431 436 456 q 555 407 545 407 q 581 440 581 407 q 509 604 581 484 q 177 900 390 807 q 121 921 149 911 q 75 950 80 938 q 90 968 75 968 q 113 963 98 968 q 135 958 129 959 l 143 968 q 116 983 140 970 q 100 1007 100 991 q 119 1031 100 1025 q 151 1043 146 1038 q 138 1057 149 1048 q 129 1072 129 1064 q 172 1097 129 1097 q 201 1088 181 1097 q 231 1075 229 1076 q 589 815 431 1004 q 755 412 755 614 m 252 5 q 227 24 235 5 q 210 53 214 50 q 180 22 202 41 q 166 38 172 26 q 155 53 159 50 q 144 25 151 49 q 123 7 138 7 q 107 43 107 7 q 151 312 107 93 q 208 587 180 450 q 268 806 252 806 q 310 774 297 806 q 326 718 318 746 q 353 747 333 730 q 380 724 369 746 q 389 688 389 706 q 358 503 389 640 q 297 168 340 391 q 273 35 273 58 q 252 5 273 5 z "},"S":{"ha":616,"x_min":52,"x_max":652,"o":"m 648 1083 q 621 1056 648 1071 q 593 1034 593 1042 q 599 1023 593 1025 q 612 1023 603 1021 q 625 1025 624 1025 q 635 1015 635 1025 q 617 994 635 1006 q 599 972 599 982 l 606 964 l 621 968 l 627 961 q 610 946 621 957 q 619 936 609 936 q 632 939 623 936 q 644 943 641 943 l 652 935 q 431 774 538 864 q 278 574 278 643 q 319 542 278 542 q 419 561 352 542 q 521 579 486 579 q 581 533 557 579 q 600 454 600 494 q 227 -31 600 239 q 78 -121 102 -121 q 52 -86 52 -121 q 64 -61 52 -73 q 83 -39 81 -45 l 82 -26 l 86 -11 q 64 -8 82 -3 l 56 0 q 71 27 56 14 q 94 49 82 38 l 89 54 q 79 49 87 54 q 69 45 72 45 q 56 60 56 45 q 143 136 56 75 q 304 257 262 220 q 392 385 392 334 q 366 400 392 400 q 303 388 345 400 q 239 375 261 375 q 136 428 173 375 q 103 543 103 475 q 276 872 103 693 q 587 1101 425 1027 q 625 1111 608 1111 q 648 1083 648 1111 z "},"T":{"ha":643,"x_min":75,"x_max":669,"o":"m 103 961 q 134 981 103 973 q 176 990 155 985 q 623 1083 554 1083 q 665 1061 665 1083 q 652 1040 665 1049 q 629 1026 631 1027 l 637 1019 q 656 1025 653 1025 q 669 1011 669 1025 q 644 990 669 999 q 618 972 618 982 q 631 964 622 963 q 648 968 656 968 q 665 947 665 968 q 606 909 665 913 q 378 874 546 905 q 160 825 203 842 q 90 806 110 806 q 75 825 75 806 q 94 852 75 839 q 123 873 123 873 q 104 878 113 876 q 89 889 92 880 q 116 900 97 897 q 143 909 136 904 q 119 924 134 912 q 149 947 130 930 q 135 958 149 958 q 111 953 134 958 l 103 961 m 260 153 q 309 517 260 243 q 399 840 363 814 q 408 831 406 840 q 408 812 409 825 q 406 798 406 798 q 415 786 406 785 q 430 827 417 789 q 456 854 439 854 q 469 842 469 854 q 467 814 469 833 q 464 787 464 796 q 473 770 464 770 q 489 814 481 770 q 510 859 496 859 q 530 836 530 859 q 510 716 530 823 q 460 489 485 602 q 428 269 428 342 q 461 214 428 214 q 556 248 498 214 q 643 304 600 276 l 652 296 q 611 260 637 285 l 616 253 q 643 264 625 257 l 650 257 q 621 220 639 245 l 624 215 q 647 232 631 221 l 652 225 q 619 191 640 215 l 625 186 q 643 196 631 192 l 648 191 q 509 75 619 157 q 363 -14 390 -14 q 337 3 351 -8 q 297 39 300 35 q 288 62 288 48 q 289 83 288 64 q 290 121 290 102 q 283 135 290 130 q 277 112 278 129 q 268 89 275 95 q 260 153 260 97 z "},"U":{"ha":875,"x_min":52,"x_max":868,"o":"m 637 -36 q 589 3 603 -36 q 568 65 578 34 q 560 51 563 62 q 553 37 557 41 q 546 79 546 52 q 583 320 546 189 q 596 390 596 369 q 589 401 596 398 q 441 214 552 372 q 328 65 337 66 q 321 81 323 73 q 281 54 293 54 q 227 110 227 54 q 228 123 227 117 l 222 129 q 208 122 216 125 q 183 204 183 122 q 245 642 183 353 q 265 782 265 733 q 253 799 265 799 q 205 764 239 799 q 157 718 163 723 q 147 733 147 718 q 151 749 147 739 q 155 765 155 760 q 149 775 155 772 q 121 755 140 767 q 111 774 114 761 q 104 794 108 789 q 58 755 88 775 l 52 762 q 219 951 58 789 q 393 1111 378 1111 q 441 1065 425 1111 q 453 993 453 1031 q 453 995 453 995 q 452 991 452 994 l 450 981 q 443 932 443 941 q 447 922 443 924 q 456 945 449 930 l 463 939 q 410 574 448 758 q 367 357 367 369 q 385 336 367 336 q 558 595 401 336 q 729 854 715 854 q 762 820 757 854 q 762 765 765 807 l 766 760 q 790 782 773 768 q 819 736 819 771 q 776 486 819 669 q 733 243 733 304 q 745 212 733 212 q 804 250 764 212 q 857 304 831 277 l 864 294 q 831 241 852 277 l 836 236 q 860 254 843 243 l 864 248 q 832 182 850 227 l 838 178 q 861 196 844 185 l 868 187 q 763 65 868 166 q 637 -36 658 -36 z "},"V":{"ha":721,"x_min":37,"x_max":737,"o":"m 401 1097 q 435 1081 431 1097 q 433 1040 433 1087 q 437 1031 433 1034 l 447 1036 q 453 1026 453 1034 q 447 1008 453 1021 l 454 1002 l 467 1006 q 473 991 473 1002 q 458 935 473 981 q 375 593 422 819 q 325 254 325 347 q 359 142 325 142 q 479 332 412 142 q 547 570 529 470 q 574 836 574 711 q 595 865 574 865 q 630 829 623 865 q 642 771 636 800 q 652 789 645 774 q 668 802 659 802 q 681 771 681 802 l 696 755 q 699 693 699 749 q 705 684 699 686 q 726 711 711 694 q 737 682 737 711 q 652 326 737 534 q 464 14 568 117 q 416 -41 440 -14 q 355 -75 384 -75 q 258 -27 321 -75 q 178 104 196 21 q 167 262 167 151 q 194 526 167 370 q 243 785 218 655 q 233 802 245 802 q 186 767 225 802 q 129 732 148 732 q 118 742 117 732 q 129 764 129 770 q 121 779 129 774 q 92 762 90 762 q 82 775 82 762 q 86 787 82 779 q 92 798 91 795 l 81 806 q 45 781 69 796 l 37 789 q 199 944 41 800 q 401 1097 366 1097 z "},"W":{"ha":978,"x_min":61,"x_max":951,"o":"m 416 1111 q 453 1094 435 1111 q 471 1059 471 1078 q 468 1033 471 1050 q 465 1007 465 1015 q 471 993 465 998 q 497 1031 478 1006 q 504 1019 504 1027 q 445 724 504 976 q 366 412 389 484 q 345 342 345 348 q 354 328 345 328 q 452 460 381 328 q 532 629 498 547 q 574 699 562 699 q 603 673 579 699 q 644 648 620 669 q 758 318 720 318 q 785 461 785 318 q 767 733 785 551 q 749 999 749 916 q 760 1010 749 1010 q 772 997 766 1010 q 783 979 781 981 q 800 990 788 986 q 827 956 814 990 q 847 907 844 911 q 857 941 852 911 q 876 964 862 964 q 894 940 888 964 q 907 905 902 910 q 917 921 913 909 q 925 936 920 932 l 937 926 q 951 699 951 804 q 925 370 951 581 q 844 78 891 100 q 817 74 841 77 q 779 53 803 66 l 760 57 q 745 46 757 56 q 729 37 734 37 q 623 194 703 37 q 538 350 543 350 q 360 92 449 221 q 192 -117 214 -117 q 149 -61 157 -117 q 146 17 146 -45 q 140 32 146 27 q 111 7 132 22 q 106 18 106 10 q 208 486 106 68 q 285 818 285 799 q 275 832 285 832 q 223 799 267 832 q 164 755 173 760 q 153 777 156 755 q 147 807 149 804 q 131 795 142 805 q 110 786 119 786 q 102 802 104 790 q 97 818 100 814 q 84 803 96 817 q 68 794 77 794 q 61 804 61 797 q 227 967 61 823 q 416 1111 392 1111 z "},"X":{"ha":798,"x_min":9,"x_max":787,"o":"m 325 509 q 237 738 325 515 q 143 972 151 957 q 157 986 143 986 q 170 970 164 986 q 180 947 178 950 q 188 1000 184 974 q 203 1042 193 1042 q 222 1030 217 1042 q 236 1011 231 1015 q 250 1055 238 1014 q 275 1083 258 1083 q 302 1063 294 1083 q 372 869 337 966 q 449 693 420 736 q 597 937 469 711 q 631 1013 614 975 q 688 1061 657 1061 q 727 1029 703 1061 q 751 979 751 996 q 739 937 751 968 q 720 895 729 916 l 730 889 q 753 909 737 897 l 760 903 q 640 667 749 848 q 533 485 533 491 q 672 225 642 225 q 775 304 705 225 q 783 294 783 302 q 757 245 783 286 l 755 232 q 721 180 742 216 l 726 175 q 752 200 738 179 q 777 228 767 222 l 782 221 q 755 170 772 204 l 760 165 q 783 183 767 172 l 787 175 q 727 91 787 156 q 646 11 674 33 q 602 0 631 0 q 496 135 555 0 q 412 300 431 286 q 134 -109 313 163 q 100 -138 116 -138 q 79 -110 85 -130 q 85 -87 80 -104 q 89 -64 89 -72 q 83 -52 89 -55 q 68 -58 74 -58 q 49 -41 49 -58 q 52 -24 49 -35 q 56 -7 56 -12 q 46 3 56 3 q 33 -2 43 3 q 18 -8 22 -7 q 9 5 9 -4 q 167 247 9 20 q 325 509 325 475 z "},"Y":{"ha":772,"x_min":75,"x_max":762,"o":"m 275 800 q 226 758 255 787 q 178 713 193 724 q 150 726 150 713 q 155 751 150 718 l 147 755 l 126 745 l 122 751 q 138 783 138 782 l 129 787 q 83 746 113 767 q 75 755 75 749 q 237 942 75 772 q 419 1111 399 1111 q 467 1051 450 1111 q 452 997 460 1034 l 458 989 q 481 1011 465 998 q 492 985 492 1011 q 448 769 492 958 q 393 545 420 657 q 374 474 384 509 q 363 403 363 429 q 372 387 363 387 q 539 609 402 412 q 681 793 667 793 q 709 776 690 793 q 735 724 735 751 q 733 699 735 717 q 732 669 732 682 q 741 654 732 661 q 749 670 745 659 q 757 685 752 681 l 762 677 q 753 588 762 659 q 705 235 715 286 q 575 -93 664 31 l 570 -86 q 575 -50 572 -74 l 571 -41 q 526 -138 549 -90 q 422 -229 479 -229 q 382 -157 382 -229 q 407 33 382 -85 q 472 203 436 169 q 479 191 479 199 q 468 152 479 181 q 452 111 452 113 l 457 104 q 478 123 463 112 l 484 114 q 461 23 483 85 q 440 -72 440 -39 q 458 -113 440 -113 q 479 -95 471 -106 q 534 170 487 -84 q 582 437 582 419 q 575 447 582 444 q 420 264 564 446 q 250 82 275 82 q 208 106 231 82 q 174 147 191 127 l 172 157 q 180 192 172 159 l 172 197 q 150 183 165 191 l 143 192 q 271 726 144 265 q 285 787 285 777 q 275 800 285 801 z "},"Z":{"ha":848,"x_min":61,"x_max":843,"o":"m 165 437 q 153 449 166 449 q 119 443 148 449 q 94 476 94 451 q 115 496 102 480 l 109 502 q 92 501 103 502 q 77 500 81 500 q 61 510 61 500 q 138 534 61 519 q 226 551 182 543 q 406 591 286 565 q 488 755 424 625 q 561 911 561 901 q 443 929 561 929 q 377 933 421 929 q 311 937 333 937 q 272 935 298 937 q 233 933 246 933 q 202 949 214 933 q 191 983 191 964 q 210 1015 191 1008 q 243 1029 239 1025 q 219 1042 239 1034 q 205 1068 205 1048 q 218 1098 205 1086 q 249 1111 231 1111 q 447 1090 254 1111 q 783 1071 557 1087 q 823 1028 823 1066 q 728 836 823 1010 q 632 648 632 663 q 643 642 635 642 q 726 673 648 642 q 825 704 803 704 q 843 686 843 704 q 827 662 843 673 q 802 644 804 647 q 824 633 806 638 q 840 623 840 629 q 824 600 840 614 q 802 578 805 583 l 806 574 q 832 581 814 576 q 840 571 840 578 q 699 510 840 551 q 524 458 526 460 q 390 210 477 376 q 407 197 390 197 q 503 211 442 197 q 599 232 551 221 q 703 254 651 243 q 808 267 767 267 q 829 249 829 267 q 807 228 829 234 q 785 211 785 222 q 804 199 788 205 q 817 186 817 195 q 782 153 817 176 l 787 143 q 808 146 804 146 q 822 129 822 146 q 789 96 822 102 q 350 27 652 67 q 109 0 146 0 q 87 22 87 0 q 100 43 87 38 q 123 53 123 52 q 105 62 123 61 q 87 72 87 63 q 100 93 87 85 q 119 109 117 104 q 108 117 119 110 q 102 129 102 121 q 136 165 102 151 q 189 184 162 175 q 252 299 193 189 q 315 418 311 408 l 307 427 q 231 410 298 425 q 154 399 182 399 q 138 411 138 399 q 165 437 148 418 z "},"[":{"ha":463,"x_min":-14,"x_max":665,"o":"m 272 900 l 222 899 q 207 909 214 900 q 229 932 215 916 q 209 940 224 938 q 189 947 195 942 q 198 962 191 953 q 205 979 205 970 l 193 997 q 220 1006 201 1003 q 248 1015 239 1010 q 233 1022 243 1022 q 208 1019 225 1022 q 183 1017 191 1017 q 168 1028 168 1017 q 386 1076 183 1040 q 599 1111 579 1111 q 618 1095 601 1097 q 646 1093 632 1094 q 661 1086 656 1090 q 646 1076 657 1079 q 628 1071 631 1073 q 650 1059 639 1065 q 665 1043 665 1052 q 639 1013 655 1034 q 659 991 646 1008 q 566 960 659 979 q 449 939 507 949 q 334 458 391 698 q 245 -3 245 77 q 338 14 266 0 q 429 26 395 26 q 439 17 439 26 q 415 1 438 16 l 415 -2 q 408 -29 415 -14 q 392 -46 397 -35 q 414 -65 400 -52 q 404 -92 410 -74 q 411 -102 405 -94 q 418 -113 418 -109 q 323 -139 418 -123 q 168 -170 245 -154 q 22 -192 50 -192 q 12 -187 14 -192 q 12 -174 10 -182 q 14 -161 14 -163 q 5 -152 14 -156 q -4 -142 -4 -147 q 1 -127 -4 -137 q 7 -115 7 -118 q -2 -105 7 -108 q -14 -97 -12 -102 q 9 -72 -5 -90 q -3 -56 3 -66 q 28 -43 -3 -52 q 68 -29 62 -33 q 272 900 113 145 z "},"\\":{"ha":613,"x_min":-122,"x_max":718,"o":"m 717 -165 q 646 -43 695 -121 q 572 78 592 40 q 388 412 500 216 q 203 732 330 522 q 144 834 179 768 q 89 937 105 910 q 39 1030 64 984 q -14 1111 -1 1104 q -29 1101 -29 1112 q -21 1083 -29 1098 q -12 1065 -12 1069 q -19 1055 -12 1058 q -37 1070 -24 1057 q -57 1080 -48 1080 q -75 1059 -75 1080 q -73 1026 -75 1043 l -79 1018 q -105 1050 -87 1029 q -122 1034 -122 1050 q -71 926 -122 1019 q -5 817 -22 838 q 144 551 43 754 q 408 89 186 469 q 576 -215 463 -14 q 608 -237 590 -237 q 618 -216 618 -237 q 616 -194 618 -208 q 614 -175 614 -180 q 633 -195 619 -178 q 653 -208 646 -208 q 663 -200 660 -208 q 643 -135 655 -178 l 646 -126 q 705 -178 664 -146 q 714 -175 710 -178 q 717 -165 718 -171 z "},"]":{"ha":463,"x_min":-106,"x_max":574,"o":"m 288 20 l 338 21 q 353 9 345 20 q 330 -12 345 3 q 351 -20 336 -18 q 371 -28 366 -22 q 362 -42 370 -33 q 354 -60 354 -52 q 367 -78 361 -68 q 313 -96 348 -81 q 326 -103 317 -103 q 351 -100 334 -103 q 376 -97 368 -97 q 392 -109 392 -97 q 175 -157 379 -119 q -39 -192 -20 -192 q -71 -175 -41 -175 q -102 -167 -92 -175 q -86 -157 -98 -159 q -68 -151 -71 -153 q -91 -140 -79 -146 q -106 -123 -106 -132 q -79 -93 -96 -115 q -90 -83 -81 -90 q -98 -72 -98 -76 q -5 -40 -98 -58 q 111 -20 53 -30 q 226 462 168 221 q 314 922 314 843 q 222 905 294 920 q 131 893 165 893 q 121 903 120 893 q 144 918 129 907 l 144 922 q 151 949 144 933 q 168 965 163 954 q 146 985 160 970 q 155 1011 149 994 q 148 1021 155 1014 q 142 1032 142 1029 q 236 1059 142 1042 q 392 1088 314 1074 q 538 1111 510 1111 q 548 1105 546 1111 q 548 1093 549 1101 q 546 1080 546 1082 q 555 1071 546 1075 q 564 1061 564 1067 q 558 1046 564 1056 q 553 1035 553 1037 q 562 1025 553 1027 q 574 1017 572 1022 q 550 991 565 1009 q 562 975 557 985 q 532 962 562 971 q 492 949 496 951 q 288 20 446 774 z "},"^":{"ha":594,"x_min":-3,"x_max":597,"o":"m 290 1351 q 339 1348 323 1351 q 389 1345 355 1345 q 513 1171 426 1345 q 597 952 597 1002 q 589 920 597 926 q 563 916 584 916 q 508 927 553 916 q 416 916 429 916 q 350 987 389 935 q 284 1059 311 1040 q 214 985 261 1040 q 141 916 172 936 q 93 947 93 916 q 104 985 93 952 l 96 996 q 58 964 77 980 q 20 941 29 941 q -3 964 -3 941 q 132 1172 -3 994 q 290 1351 267 1351 z "},"_":{"ha":694,"x_min":0,"x_max":694,"o":"m 694 -174 l 0 -174 l 0 -104 l 694 -104 l 694 -174 z "},"`":{"ha":309,"x_min":125,"x_max":358,"o":"m 235 962 q 317 874 271 962 q 358 770 358 796 q 343 749 358 749 q 320 760 333 749 q 300 778 310 769 l 292 772 q 297 739 297 731 q 279 729 297 729 q 194 814 264 729 q 125 916 125 899 q 147 937 125 937 q 184 917 159 930 l 191 922 q 182 946 182 936 q 235 962 182 962 z "},"a":{"ha":566,"x_min":16,"x_max":572,"o":"m 16 186 q 100 428 16 302 q 284 612 177 545 q 397 667 373 667 q 429 647 429 667 q 406 610 429 633 l 408 606 q 422 610 420 610 q 443 590 443 610 q 435 578 443 586 q 427 567 428 570 l 429 561 q 444 566 433 562 q 460 570 455 570 q 469 555 470 570 q 300 418 385 487 q 163 245 210 340 q 140 172 140 201 q 165 158 140 158 q 305 304 204 158 q 416 450 406 450 q 456 412 425 450 q 489 366 484 378 q 476 288 489 340 q 464 211 464 237 q 476 196 464 195 q 520 239 499 210 q 557 288 554 285 l 564 282 q 514 212 564 264 l 519 208 q 546 225 528 214 l 553 218 q 519 176 541 205 l 525 171 q 564 200 537 181 l 570 196 q 549 164 562 186 l 553 161 l 568 165 l 572 161 q 493 71 572 142 q 390 0 414 0 q 338 45 364 0 q 314 115 314 87 q 317 139 314 123 q 321 161 321 154 q 313 176 321 172 q 125 0 172 0 q 40 70 71 0 q 16 186 16 125 z "},"b":{"ha":514,"x_min":28,"x_max":514,"o":"m 28 210 q 62 560 28 361 q 127 907 94 734 q 175 1064 156 1064 q 193 1031 195 1064 q 199 990 191 994 q 211 1008 205 994 q 221 1026 216 1021 q 234 1000 231 1026 q 239 964 238 966 q 261 978 245 969 q 317 880 288 977 q 342 753 342 794 q 311 574 342 698 q 243 432 275 432 l 237 439 q 254 479 245 459 q 265 518 265 508 q 262 528 265 525 q 243 500 258 517 l 237 507 q 272 611 254 559 q 292 718 292 675 q 272 786 292 786 q 243 686 257 786 q 202 459 222 572 q 178 231 178 321 q 233 161 178 161 q 283 186 255 161 q 275 307 275 235 q 307 440 275 352 q 375 539 343 539 q 435 484 408 539 q 458 397 458 435 q 427 235 458 321 q 504 269 452 238 l 513 261 q 468 224 513 245 l 471 221 q 490 227 477 222 l 500 221 q 490 207 500 212 q 471 197 479 202 l 478 192 q 490 196 485 196 q 501 187 498 196 q 475 161 491 180 l 479 157 q 507 171 488 162 l 514 163 q 464 123 514 144 q 395 103 418 103 q 346 114 387 103 q 171 -14 233 -14 q 108 16 146 -14 q 37 100 52 60 q 28 210 28 127 z "},"c":{"ha":411,"x_min":16,"x_max":400,"o":"m 16 199 q 74 414 16 300 q 210 593 129 524 q 310 653 279 653 q 380 608 355 653 q 400 524 400 571 q 394 433 400 453 q 389 424 392 424 q 378 439 381 424 q 368 463 376 458 l 358 456 q 361 443 359 452 q 363 429 363 434 q 354 399 363 409 q 336 422 349 408 q 321 390 335 410 q 301 418 316 400 q 289 354 296 410 q 275 347 285 347 q 264 386 264 347 q 261 471 264 444 q 254 494 258 494 q 206 388 233 494 q 182 253 182 292 q 216 175 182 175 q 308 201 259 175 q 390 253 319 207 l 396 249 q 366 212 385 237 l 374 207 q 393 214 385 210 l 399 208 q 361 158 386 192 l 364 154 q 392 167 373 159 l 400 163 q 292 65 378 127 q 163 0 201 0 q 85 40 130 0 q 28 110 47 74 q 16 199 16 132 z "},"d":{"ha":541,"x_min":16,"x_max":525,"o":"m 16 194 q 169 616 16 419 q 245 688 224 688 q 258 679 255 688 q 253 662 258 674 q 248 647 248 650 q 253 637 248 640 q 271 644 260 642 l 275 636 q 257 597 268 624 l 264 590 q 289 606 271 596 l 296 597 q 278 539 289 578 l 283 533 q 310 551 292 541 l 317 542 q 294 510 310 528 q 165 214 165 361 q 181 171 165 189 q 221 153 197 153 q 329 279 290 153 q 358 463 358 373 q 304 670 358 555 q 202 844 271 739 q 146 943 146 928 l 154 951 q 177 940 163 951 q 197 922 187 931 l 200 924 q 186 949 199 928 q 176 972 176 968 q 187 985 176 985 q 225 968 198 985 l 229 975 q 208 1023 221 991 q 228 1050 214 1029 q 240 1063 231 1051 q 257 1069 246 1069 q 338 970 273 1069 q 525 481 525 687 q 466 231 525 336 q 290 41 412 137 q 178 -14 220 -14 q 41 83 132 -14 q 16 194 16 111 z "},"e":{"ha":463,"x_min":16,"x_max":452,"o":"m 189 0 q 93 39 140 0 q 28 123 52 74 q 16 233 16 149 q 112 501 16 361 q 338 653 216 653 q 412 595 376 653 q 446 500 446 543 q 351 338 446 397 q 165 264 306 309 q 249 167 168 167 q 344 199 281 167 q 428 256 404 229 q 441 265 437 265 q 452 258 449 265 q 421 215 441 244 l 428 211 q 446 225 433 216 l 450 218 q 424 174 440 204 l 428 171 l 443 182 q 450 172 450 179 q 337 73 450 146 q 189 0 224 0 m 296 441 q 284 484 296 460 q 254 511 271 511 q 196 414 229 511 q 165 289 165 326 q 208 309 208 298 q 182 323 199 312 q 207 341 189 332 q 231 355 224 349 q 197 368 217 355 q 254 403 201 372 q 296 441 296 427 z "},"f":{"ha":359,"x_min":5,"x_max":385,"o":"m 366 193 q 293 127 366 171 q 195 79 230 90 q 180 -93 191 22 q 168 -146 174 -146 q 155 -139 164 -146 q 143 -132 146 -132 q 130 -149 135 -132 q 117 -172 124 -168 q 103 -159 108 -172 q 94 -140 96 -142 q 82 -172 88 -156 q 57 -192 73 -189 q 47 -216 53 -196 q 31 -231 42 -231 q 11 -207 11 -231 q 21 -52 11 -149 q 35 104 33 65 q 5 142 5 112 q 26 283 5 283 q 60 267 36 283 q 125 681 78 423 q 215 1067 181 995 q 252 1097 229 1097 q 268 1080 264 1097 q 269 1044 271 1067 q 267 1015 267 1012 q 275 1000 267 1004 q 287 1029 277 1003 q 307 1047 294 1047 q 363 951 337 1047 q 385 823 385 870 q 355 591 385 736 q 275 380 319 418 q 272 395 272 387 q 289 454 272 414 q 306 514 306 494 l 304 522 q 281 484 299 508 l 278 490 q 315 630 296 560 q 335 774 335 711 q 319 821 335 821 q 278 688 298 821 q 222 222 254 525 q 358 286 268 224 l 367 282 q 350 257 360 275 l 354 249 q 328 221 345 240 l 330 216 q 354 227 338 220 l 358 222 q 339 200 351 215 l 343 196 l 361 201 l 366 193 z "},"g":{"ha":566,"x_min":18,"x_max":547,"o":"m 157 167 q 304 283 193 167 q 446 443 375 363 q 460 447 460 447 q 481 435 469 447 q 500 416 496 418 l 519 418 q 533 400 533 418 q 499 214 533 372 q 465 60 471 82 q 408 -85 443 -23 q 353 -161 366 -161 q 329 -176 338 -161 q 314 -201 321 -189 q 309 -191 309 -198 q 312 -172 309 -184 q 315 -154 315 -160 q 311 -142 315 -146 q 277 -216 294 -179 q 214 -258 252 -258 q 163 -186 163 -258 q 202 -36 163 -127 q 283 94 241 53 l 293 89 q 252 12 277 64 l 254 9 q 275 26 260 16 l 278 21 q 212 -161 212 -130 q 229 -183 212 -183 q 300 -12 256 -183 q 349 203 324 96 l 346 205 q 115 8 170 8 q 41 62 68 8 q 18 157 18 105 q 46 330 18 273 q 251 551 99 440 q 526 667 410 667 q 547 652 547 667 q 523 626 547 637 q 486 608 488 610 l 493 600 l 510 602 q 521 593 517 602 l 519 582 l 530 568 q 493 541 517 560 q 529 541 493 541 q 543 525 546 541 q 484 493 529 511 q 418 468 451 480 q 243 353 336 435 q 135 187 135 256 q 157 167 135 167 z "},"h":{"ha":591,"x_min":28,"x_max":579,"o":"m 28 207 q 76 619 28 382 q 171 1025 123 822 q 200 1064 180 1064 q 231 1049 228 1064 q 231 1014 231 1053 q 237 1003 231 1006 q 261 1038 242 1017 l 273 1026 q 269 1008 269 1011 q 276 992 269 1000 q 284 968 283 985 q 292 943 285 950 q 302 964 296 947 q 317 979 307 979 q 326 960 326 979 q 270 720 326 953 q 227 535 238 587 q 195 349 204 431 l 197 349 q 376 595 351 595 q 457 519 428 595 q 479 400 479 462 q 477 348 479 382 q 475 296 475 313 q 493 220 475 220 q 535 256 503 220 q 575 302 555 279 q 579 293 579 300 q 542 229 579 284 l 545 222 q 574 250 553 233 l 578 248 q 567 225 573 235 q 576 214 571 218 q 554 165 568 198 l 558 161 q 574 172 565 167 l 578 165 q 507 66 577 143 q 410 -14 435 -14 q 376 18 386 -14 q 363 68 370 43 q 354 51 357 64 q 346 33 351 37 q 325 118 325 33 q 321 277 325 225 q 313 326 319 326 q 119 11 288 326 q 39 87 58 20 q 28 207 28 123 z "},"i":{"ha":309,"x_min":28,"x_max":306,"o":"m 140 631 q 154 618 151 631 q 154 593 156 610 q 151 572 151 573 q 157 561 151 564 q 174 592 165 576 q 201 611 185 611 q 223 595 215 611 q 237 571 235 574 q 269 607 246 585 q 281 591 281 607 q 229 402 281 553 q 178 208 178 252 q 187 186 178 186 q 298 261 216 186 l 304 257 q 277 216 294 244 l 282 212 l 297 221 l 302 215 q 281 187 294 207 l 294 180 q 306 153 297 168 q 224 58 306 130 q 117 -14 143 -14 q 50 37 77 -14 q 28 122 28 79 q 40 322 28 276 l 83 486 q 140 631 121 631 m 214 728 q 193 738 195 728 q 195 761 195 729 q 187 778 195 772 q 173 758 176 778 q 157 737 170 737 q 135 787 135 737 q 149 887 135 841 q 208 953 169 953 q 235 939 232 953 q 233 905 235 937 l 239 897 q 265 937 246 911 q 301 885 301 937 q 214 728 301 728 z "},"j":{"ha":335,"x_min":28,"x_max":343,"o":"m 212 636 q 237 610 225 636 q 250 571 243 590 q 262 583 251 572 q 275 590 269 590 q 298 567 298 590 q 240 363 298 562 q 182 118 182 163 q 192 111 184 111 q 254 176 200 111 q 318 257 286 217 l 326 252 q 307 218 319 241 q 326 204 315 216 q 318 183 322 197 l 322 179 l 332 182 l 335 178 q 313 140 328 165 l 317 138 q 335 149 326 145 l 343 143 q 218 -66 298 77 q 140 -248 193 -127 q 118 -267 131 -267 q 67 -246 94 -267 q 40 -203 40 -225 q 34 -68 40 -158 q 28 66 28 22 q 149 632 28 311 q 163 653 154 646 q 176 631 176 654 q 174 612 176 625 q 171 593 171 599 q 175 583 171 586 q 189 616 182 600 q 212 636 199 636 m 232 750 q 211 760 213 750 q 212 783 212 752 q 205 800 212 795 q 191 780 194 800 q 175 760 189 760 q 153 810 153 760 q 167 908 153 861 q 227 975 188 975 q 253 962 250 975 q 252 928 254 959 l 257 920 q 283 960 264 934 q 319 907 319 960 q 232 750 319 750 z "},"k":{"ha":566,"x_min":28,"x_max":553,"o":"m 28 111 q 86 716 28 344 q 117 913 102 814 q 172 1080 148 1080 q 183 1067 183 1080 q 180 1052 183 1062 q 178 1038 178 1042 q 182 1028 178 1031 q 208 1039 190 1033 q 218 991 218 1032 l 222 985 q 239 1000 231 992 q 258 1007 248 1007 q 267 993 267 1003 q 260 964 267 983 q 254 936 254 945 q 262 925 254 928 q 297 966 272 941 q 306 950 306 961 q 287 829 306 916 q 260 707 273 768 q 225 549 242 627 q 203 390 203 442 q 212 375 203 375 q 315 521 220 375 q 433 667 411 667 q 501 631 459 667 q 543 572 543 595 q 500 396 543 487 q 395 248 460 309 l 389 254 q 392 279 392 279 q 386 289 392 286 q 364 249 364 277 q 386 208 364 229 q 428 186 408 186 q 493 224 454 186 q 547 283 520 254 l 553 279 q 530 233 544 264 q 543 216 536 222 q 501 163 528 199 l 510 155 q 545 184 522 165 l 550 179 q 541 157 546 172 l 549 142 q 474 45 539 104 q 372 -14 409 -14 q 294 52 345 -14 q 244 142 244 115 q 327 287 244 159 q 410 431 410 415 q 395 441 410 441 q 260 257 363 441 q 142 29 191 134 q 122 17 136 17 q 87 43 97 17 q 79 94 87 77 q 58 52 74 79 q 28 111 28 63 z "},"l":{"ha":335,"x_min":28,"x_max":364,"o":"m 364 814 q 269 396 364 581 q 248 374 264 385 l 241 382 q 289 492 258 418 l 282 503 q 264 486 277 496 l 258 493 q 302 621 281 530 q 322 755 322 708 q 306 790 322 790 q 268 704 286 790 q 214 460 241 582 q 186 212 186 317 q 204 186 186 186 q 330 262 238 186 l 335 257 q 314 221 327 246 q 322 200 317 209 q 313 180 318 189 l 317 178 q 330 182 333 182 q 343 171 343 182 q 255 61 343 136 q 129 -14 167 -14 q 75 35 108 -14 q 32 127 39 85 q 28 231 28 149 q 78 587 28 369 q 153 940 142 869 q 222 1064 170 1064 q 239 1044 239 1064 q 236 1027 239 1038 q 233 1010 233 1015 q 240 1000 233 1003 q 250 1021 241 1002 q 264 1035 255 1035 q 277 1019 274 1035 q 285 997 280 1000 q 301 1007 295 1001 q 347 923 326 1007 q 364 814 364 853 z "},"m":{"ha":823,"x_min":28,"x_max":811,"o":"m 351 32 q 288 78 288 32 q 291 129 288 95 q 294 180 294 163 q 278 267 294 267 q 192 123 277 265 q 107 8 124 8 q 79 49 85 8 q 69 94 74 92 q 61 41 63 86 q 28 178 28 45 q 64 505 28 328 q 115 667 98 667 q 137 650 134 667 q 142 619 142 619 q 155 623 158 623 q 166 612 163 623 q 171 596 170 597 q 184 616 176 600 q 200 629 192 629 q 230 608 214 629 q 245 571 245 586 q 216 454 245 533 q 187 338 187 375 q 195 325 187 329 q 300 478 202 334 q 393 603 385 603 q 434 576 406 603 q 466 534 462 549 q 469 488 469 523 q 462 411 469 462 q 454 335 454 360 q 461 309 454 317 q 549 449 505 379 q 639 561 621 561 q 682 530 658 561 q 722 385 722 476 q 720 320 722 363 q 717 256 717 277 q 729 215 717 215 q 769 241 742 215 q 804 278 787 260 l 811 271 q 782 221 801 254 l 786 214 l 798 216 l 802 214 q 787 192 797 207 q 810 170 795 185 q 728 60 785 132 q 642 -28 657 -28 q 593 11 593 -28 q 595 23 593 15 q 597 36 597 32 q 591 47 597 44 q 583 32 587 39 q 570 22 578 22 q 558 89 558 22 q 563 153 558 110 q 567 216 567 195 q 549 265 567 265 q 463 129 506 197 q 351 32 399 32 z "},"n":{"ha":541,"x_min":16,"x_max":525,"o":"m 16 172 q 40 444 16 260 q 102 667 70 667 q 117 637 115 667 q 125 593 119 600 q 136 612 127 595 q 153 625 144 625 q 178 568 187 625 l 183 559 q 210 590 189 572 q 228 564 228 590 q 197 441 228 524 q 165 318 165 358 q 172 307 165 311 q 266 442 201 336 q 359 596 356 591 q 408 562 382 596 l 412 549 q 454 486 454 533 q 443 368 454 446 q 431 249 431 289 q 447 236 431 236 q 477 263 455 236 q 507 298 505 297 l 514 292 q 506 279 513 289 q 498 264 498 269 q 503 249 498 256 l 514 256 l 519 249 q 501 211 512 237 l 505 200 q 492 174 500 191 l 497 167 q 519 183 504 173 l 525 175 q 451 81 524 160 q 357 0 376 0 q 307 49 334 0 q 281 121 281 94 q 284 188 281 143 q 288 255 288 233 q 279 277 288 270 q 198 136 278 275 q 119 22 133 22 q 49 81 85 22 q 16 172 16 134 z "},"o":{"ha":514,"x_min":16,"x_max":498,"o":"m 498 415 q 416 177 498 319 q 240 24 326 24 q 196 35 247 24 l 189 28 q 224 14 202 22 q 160 8 196 8 q 57 79 103 8 q 16 204 16 143 q 256 624 16 467 q 304 610 272 618 l 307 612 q 277 636 297 623 q 336 667 313 667 q 461 575 414 667 q 498 415 498 501 m 349 385 q 332 455 349 420 q 279 498 311 498 q 201 413 235 498 q 174 288 174 342 q 241 157 174 157 q 328 247 298 157 q 349 385 349 311 z "},"p":{"ha":566,"x_min":41,"x_max":536,"o":"m 536 400 q 519 250 536 327 q 463 111 498 159 q 326 -14 368 -14 q 269 57 295 -14 q 248 155 248 116 q 264 176 248 176 q 291 202 273 182 q 311 231 309 222 q 326 253 316 253 q 347 195 337 253 q 371 136 356 136 q 386 239 386 136 q 350 433 386 433 q 262 318 311 433 q 207 5 207 190 q 208 -86 207 -24 q 210 -182 210 -149 q 201 -275 210 -244 q 150 -248 176 -275 q 131 -186 147 -223 q 113 -218 127 -198 q 100 -188 102 -218 q 93 -149 97 -153 q 68 -175 86 -159 q 45 -109 47 -175 q 41 186 41 -31 q 74 464 41 282 q 131 653 108 653 q 149 646 143 653 q 142 615 142 606 q 147 606 142 608 q 166 615 150 607 q 184 623 179 623 q 210 606 207 623 q 211 574 211 605 q 216 564 211 566 q 235 581 222 570 q 254 549 254 581 q 245 492 254 528 q 233 435 235 448 l 236 435 q 307 536 294 521 q 401 600 359 600 q 508 532 472 600 q 536 400 536 477 z "},"q":{"ha":566,"x_min":21,"x_max":586,"o":"m 21 192 q 147 462 21 326 q 397 642 255 578 q 550 690 504 690 q 586 667 586 690 q 572 643 586 652 q 550 625 553 631 q 570 608 553 620 q 583 586 583 600 q 567 572 583 578 q 543 558 548 565 q 558 532 549 550 q 490 496 537 516 q 279 361 387 451 q 146 167 146 250 q 170 136 146 136 q 274 209 208 136 q 381 344 296 234 q 453 416 437 416 q 498 412 488 416 q 518 376 518 405 q 476 56 518 325 q 418 -245 433 -219 q 389 -273 402 -273 q 343 -229 380 -269 q 330 -183 341 -210 q 318 -224 329 -201 q 290 -176 290 -212 q 311 -16 290 -118 q 338 146 334 100 q 230 50 283 98 q 111 -14 151 -14 q 41 35 79 -14 q 21 192 21 61 z "},"r":{"ha":411,"x_min":28,"x_max":416,"o":"m 294 144 q 201 218 239 144 q 160 9 185 170 q 150 0 159 0 q 100 16 109 0 q 98 69 96 26 l 92 77 q 68 46 85 65 q 28 109 28 46 q 102 652 28 395 q 119 667 106 667 q 144 629 137 657 q 140 610 144 625 q 136 590 136 597 q 143 579 136 583 q 171 607 150 590 q 197 583 192 601 q 191 539 195 568 l 199 532 q 222 568 205 545 q 241 551 241 568 q 214 444 241 516 q 186 332 186 371 l 189 332 q 301 463 259 463 q 330 454 314 463 q 346 435 346 446 q 332 400 346 422 l 334 397 l 334 398 q 345 406 338 401 q 343 399 347 406 l 346 389 q 364 403 355 398 q 382 387 382 403 q 332 262 382 328 q 359 261 342 261 q 415 277 385 261 q 403 252 415 259 q 378 237 391 244 l 383 231 l 396 233 l 400 229 q 385 211 400 217 l 385 208 q 416 214 403 208 q 370 160 414 180 q 294 144 334 144 z "},"s":{"ha":411,"x_min":20,"x_max":405,"o":"m 28 310 q 149 503 28 395 q 346 646 209 555 q 389 667 378 667 q 403 648 404 667 q 371 612 399 640 l 376 604 q 392 608 393 608 q 404 597 405 608 q 380 579 398 589 q 357 561 363 570 q 373 554 361 555 q 390 547 386 553 l 386 522 q 399 494 399 505 q 288 405 399 483 q 178 309 178 327 q 199 298 178 298 q 249 304 215 298 q 300 310 283 310 q 360 283 338 310 q 382 216 382 256 q 258 15 382 117 q 37 -83 140 -83 q 21 -47 20 -83 q 66 -18 22 -46 l 64 -14 q 47 -16 53 -16 q 22 3 22 -16 q 25 34 22 12 q 26 65 28 52 q 119 111 73 88 q 191 165 191 146 q 108 179 148 179 q 81 178 97 179 q 61 176 66 176 q 33 199 39 176 q 28 310 28 222 z "},"t":{"ha":359,"x_min":28,"x_max":345,"o":"m 114 0 q 50 44 75 0 q 29 123 29 81 q 81 524 29 240 q 28 558 28 548 q 60 570 28 574 l 65 574 q 36 587 56 582 l 36 639 q 49 669 36 669 q 111 650 64 669 q 138 767 125 709 q 179 860 163 860 q 208 847 195 860 q 221 818 221 834 q 217 797 221 810 q 214 778 214 784 q 221 765 214 769 q 238 779 224 766 q 258 787 247 787 q 268 769 266 781 q 272 745 270 756 q 288 766 276 753 q 297 749 297 766 q 283 675 297 720 q 262 603 264 608 q 340 587 300 597 l 345 572 q 330 538 339 562 q 339 514 334 530 q 300 511 336 511 q 290 501 290 511 q 323 488 292 500 q 345 468 345 480 q 314 446 345 446 q 271 454 298 446 q 228 465 239 464 q 197 338 215 425 q 179 211 179 245 q 196 192 179 192 q 326 262 235 192 q 336 256 334 262 q 304 218 325 244 l 310 212 q 328 216 321 214 l 336 210 q 298 171 322 198 l 304 165 q 330 174 313 169 l 335 170 q 236 76 335 153 q 114 0 136 0 z "},"u":{"ha":541,"x_min":16,"x_max":541,"o":"m 98 29 q 40 84 68 29 q 16 168 16 133 q 42 434 16 260 q 115 653 75 653 q 143 627 136 653 q 139 606 142 621 q 136 585 136 592 q 142 571 136 575 q 167 603 147 583 q 197 586 191 599 q 187 546 197 583 l 196 539 q 220 564 202 549 q 237 545 237 564 q 193 416 237 526 q 149 261 149 306 q 163 241 149 241 q 279 395 184 241 q 396 586 337 490 q 429 568 422 586 q 439 542 438 543 q 456 545 453 545 q 484 535 469 545 q 498 513 498 525 q 463 385 498 493 q 428 220 428 276 q 437 203 428 203 q 485 231 450 203 q 530 271 507 251 q 538 261 538 268 q 529 246 538 258 q 519 222 519 234 q 492 189 510 212 l 497 183 q 525 195 506 188 l 532 191 q 519 171 531 188 l 524 167 l 536 174 q 541 163 541 170 q 459 72 541 144 q 359 0 378 0 q 298 41 337 0 q 310 92 310 75 l 306 98 q 283 58 300 84 q 265 102 265 58 q 272 151 265 118 q 278 200 278 183 l 273 208 q 189 105 231 157 q 98 29 125 29 z "},"v":{"ha":489,"x_min":16,"x_max":511,"o":"m 16 180 q 46 444 16 264 q 115 653 82 653 q 135 637 135 653 q 132 622 135 632 q 129 607 129 612 q 134 593 129 597 q 161 631 141 612 q 167 615 167 626 q 164 594 167 608 q 161 572 161 580 q 165 561 161 564 q 187 602 171 576 q 196 590 193 599 q 204 578 200 581 q 228 599 211 586 q 252 571 252 599 q 209 427 252 553 q 165 237 165 302 q 200 183 165 183 q 315 417 258 183 q 371 705 326 465 q 396 754 380 754 q 414 742 410 754 q 416 715 418 732 q 414 690 414 688 q 422 673 414 679 q 439 690 426 675 q 458 700 448 700 q 481 670 481 700 q 480 648 481 663 q 478 628 478 633 q 485 607 478 614 q 504 637 489 618 q 511 621 511 632 q 441 317 511 473 q 327 128 400 225 q 163 0 230 0 q 87 40 134 0 q 29 107 44 77 q 16 180 16 134 z "},"w":{"ha":643,"x_min":28,"x_max":627,"o":"m 28 158 q 62 433 28 244 q 138 653 101 653 q 164 643 164 653 q 157 624 164 638 q 150 606 150 610 q 154 595 150 598 q 187 625 163 607 q 200 608 200 626 q 195 584 200 600 q 189 559 189 568 q 195 547 189 551 q 207 563 198 550 q 225 572 213 572 q 257 554 257 572 q 217 386 257 520 q 178 178 178 252 q 193 143 178 143 q 254 273 207 143 q 310 429 271 326 q 339 447 317 447 q 399 412 386 447 q 409 332 401 404 q 440 245 414 276 q 475 456 475 289 q 473 537 475 488 q 472 600 472 587 q 482 667 472 667 q 519 629 511 667 q 530 572 524 600 q 547 603 533 574 q 581 572 575 603 q 587 517 584 544 q 604 559 591 532 q 623 550 614 557 q 627 507 627 531 q 557 166 627 337 q 429 0 490 0 q 351 47 382 0 q 311 135 338 68 q 158 -57 214 -57 q 53 20 87 -57 q 28 158 28 76 z "},"x":{"ha":541,"x_min":3,"x_max":538,"o":"m 62 8 q 7 66 19 8 q 3 158 3 87 q 3 239 3 237 q 35 297 8 300 q 66 334 43 311 q 74 322 74 330 q 71 307 74 317 q 68 290 68 296 l 74 283 q 88 325 83 283 q 103 366 94 366 q 121 326 121 366 q 120 309 121 320 q 120 293 120 298 q 136 254 120 254 q 170 283 158 254 q 144 420 168 294 q 127 557 127 505 q 150 581 127 574 q 168 529 153 562 q 176 547 176 535 q 174 573 176 555 q 171 599 171 590 q 191 610 171 610 q 207 583 193 600 q 216 602 212 589 q 222 624 220 619 q 252 632 235 632 q 295 539 281 632 q 310 412 302 475 q 408 525 337 440 q 509 633 468 598 q 524 615 524 631 q 489 568 522 612 l 494 564 q 522 578 503 569 l 529 570 q 498 528 526 561 l 507 522 q 521 525 522 525 q 530 517 528 525 q 507 479 522 505 l 513 472 l 529 478 q 538 450 538 469 q 350 236 538 439 q 396 170 360 170 q 457 195 420 170 q 514 233 509 231 l 519 229 q 489 196 519 220 l 493 193 q 513 201 500 196 l 518 197 q 485 165 507 185 l 488 161 q 510 170 495 165 l 515 165 q 503 149 510 155 q 529 136 513 147 q 431 52 529 117 q 311 -14 332 -14 q 216 119 248 -14 q 146 50 182 84 q 62 8 99 8 z "},"y":{"ha":514,"x_min":28,"x_max":515,"o":"m 168 -187 l 178 -183 q 282 167 210 -107 l 279 167 q 197 80 239 123 q 109 18 135 18 q 55 56 83 18 q 28 121 28 93 q 93 576 28 284 q 127 653 110 653 q 143 575 151 653 l 149 575 q 170 612 153 612 q 193 595 193 612 q 188 578 193 589 q 183 564 183 567 q 196 553 183 552 q 216 570 202 559 l 222 568 l 214 522 q 231 536 224 522 q 243 557 240 555 q 254 542 254 557 q 216 389 254 503 q 178 218 178 275 q 192 201 178 201 q 302 373 218 201 q 399 590 373 517 q 421 596 406 596 q 454 582 435 596 q 479 554 472 568 q 475 532 479 549 q 472 510 472 518 q 481 490 472 496 q 507 525 488 503 q 515 497 515 515 q 497 384 515 454 q 467 273 482 328 q 404 59 431 133 q 306 -136 369 -33 q 286 -167 293 -157 q 258 -189 269 -189 q 254 -151 252 -186 l 250 -144 l 244 -150 q 210 -218 234 -187 q 147 -257 180 -257 q 109 -175 109 -257 q 133 -66 109 -140 q 183 17 160 16 l 192 9 q 168 -52 183 -13 l 172 -57 q 191 -43 178 -52 l 193 -50 q 171 -115 182 -83 q 158 -182 158 -153 l 168 -187 z "},"z":{"ha":463,"x_min":16,"x_max":456,"o":"m 260 0 q 143 52 229 0 q 47 103 58 103 q 16 129 16 103 q 17 194 16 151 q 18 258 18 237 q 119 343 18 270 q 240 437 228 423 q 147 478 240 446 q 54 521 54 509 q 66 559 54 536 q 93 586 80 586 q 110 583 98 586 q 126 581 121 581 q 138 585 134 581 q 81 619 116 593 q 106 667 81 667 q 275 605 119 667 q 446 532 431 543 q 453 510 453 526 q 435 476 453 484 q 444 456 444 467 q 332 339 444 429 q 184 224 258 281 q 232 193 184 213 q 293 175 277 175 q 450 265 368 175 l 456 257 q 425 218 445 245 l 432 214 q 446 222 437 218 l 454 215 q 433 192 447 208 q 441 175 437 182 q 415 139 432 163 l 421 132 q 449 147 430 138 l 456 143 q 376 57 455 114 q 260 0 297 0 z "},"{":{"ha":463,"x_min":104,"x_max":606,"o":"m 104 408 l 119 517 q 205 550 163 517 q 275 702 261 594 q 294 897 285 800 q 378 1065 313 1010 q 490 1111 433 1111 l 606 1111 l 591 1011 q 478 1000 500 1011 q 431 901 441 981 l 393 629 q 342 520 385 566 q 237 464 300 475 l 236 461 q 349 326 349 445 q 327 151 349 268 q 306 -24 306 35 q 384 -93 306 -93 q 411 -92 393 -93 q 439 -92 429 -92 l 425 -192 l 310 -192 q 210 -146 250 -192 q 170 -41 170 -102 q 191 126 170 15 q 212 294 212 238 q 182 375 212 341 q 104 408 152 408 z "},"|":{"ha":694,"x_min":278,"x_max":418,"o":"m 278 1061 l 418 1061 l 418 -328 l 278 -328 l 278 1061 z "},"}":{"ha":463,"x_min":-60,"x_max":441,"o":"m 441 511 l 427 403 q 290 291 325 403 q 254 57 288 282 q 168 -145 233 -92 q 56 -192 112 -192 l -60 -192 l -46 -92 q 67 -81 45 -92 q 115 18 104 -62 l 153 290 q 203 399 161 355 q 309 456 245 444 l 310 458 q 197 593 197 475 q 219 768 197 652 q 240 943 240 885 q 162 1013 240 1013 q 135 1012 153 1013 q 107 1011 117 1011 l 121 1111 l 236 1111 q 337 1065 296 1111 q 376 961 376 1021 q 355 793 376 905 q 334 626 334 682 q 364 545 334 578 q 441 511 394 511 z "},"~":{"ha":863,"x_min":42,"x_max":825,"o":"m 542 549 q 383 585 456 549 q 300 621 311 621 q 245 586 283 621 q 168 551 206 551 q 136 572 136 551 l 151 590 l 142 601 q 101 585 130 599 q 62 574 77 574 q 43 595 42 574 q 166 702 94 654 q 345 766 264 766 q 466 726 393 766 q 553 685 539 685 q 625 720 582 685 q 683 756 669 755 q 699 727 694 750 q 716 707 703 707 q 767 733 731 717 l 802 734 q 825 718 825 736 q 719 613 825 676 q 542 549 613 549 z "},"":{"ha":359,"x_min":-25,"x_max":310,"o":"m -25 -278 q 86 200 -25 -208 q 106 284 96 242 q 140 347 125 347 q 160 342 139 347 q 174 349 163 342 q 187 355 184 355 q 199 334 199 355 q 195 304 197 319 l 201 297 q 231 342 208 314 q 241 311 241 342 q 231 221 241 277 q 215 131 223 176 q 154 -302 179 -108 q 149 -350 151 -326 q 131 -389 143 -389 q 112 -370 115 -389 q 111 -338 111 -353 l 106 -332 q 91 -349 97 -332 q 75 -366 85 -366 q 35 -340 50 -366 l 39 -315 q 11 -304 28 -314 q -18 -309 1 -306 q -25 -278 -25 -298 m 187 411 q 157 429 178 418 q 146 424 155 429 q 135 419 138 419 q 110 468 110 419 q 140 585 110 528 q 231 653 176 653 q 260 642 258 653 q 268 616 266 619 q 297 640 292 640 q 310 587 310 640 q 298 492 310 543 q 253 418 281 421 q 228 428 239 422 q 187 411 215 421 z "},"":{"ha":644,"x_min":103,"x_max":539,"o":"m 380 500 q 296 386 330 500 q 269 227 269 297 q 326 158 269 158 q 515 237 370 158 l 526 229 q 488 144 511 202 q 494 125 491 134 q 415 54 494 103 q 313 0 347 12 q 298 -79 305 -39 q 275 -144 284 -141 l 256 -134 q 245 -148 250 -137 q 236 -161 241 -158 l 227 -146 q 203 -175 220 -157 l 197 -168 q 233 0 223 -65 q 103 164 103 62 q 172 437 103 313 q 370 637 243 565 q 408 782 393 734 q 422 758 410 772 q 443 796 427 773 q 454 778 446 789 q 476 815 460 791 q 486 803 486 816 q 472 724 486 775 q 453 643 456 665 q 524 583 507 615 q 539 507 539 557 q 538 475 539 498 q 538 439 538 452 q 529 427 538 430 q 514 435 523 431 q 503 416 507 430 q 494 399 499 403 l 479 406 q 465 390 475 399 q 446 399 458 395 q 435 367 440 382 q 418 343 427 343 q 405 367 408 343 q 406 414 403 384 q 408 449 408 450 q 380 500 408 500 z "},"":{"ha":644,"x_min":-11,"x_max":699,"o":"m 551 1050 q 657 958 609 1050 q 699 814 699 878 q 693 755 699 787 q 671 708 685 708 q 659 722 664 711 q 650 734 654 732 l 641 730 q 621 702 631 716 q 595 685 608 685 q 580 697 587 685 q 570 713 574 710 q 553 687 564 709 q 534 669 545 669 q 518 694 518 669 q 529 762 518 717 q 541 831 541 808 q 515 867 541 867 q 387 716 458 867 q 315 507 327 589 q 452 535 347 511 q 587 554 538 554 q 600 547 596 554 q 590 534 601 536 q 574 528 576 532 q 577 517 574 525 q 579 505 579 509 q 572 491 579 496 q 558 481 565 486 q 570 453 563 473 q 549 439 562 449 l 559 424 q 475 399 562 408 l 456 397 q 293 368 441 395 q 268 184 283 308 l 539 239 l 542 236 q 604 252 554 238 q 664 262 643 262 q 681 236 681 262 q 663 221 681 221 l 661 214 q 648 204 654 210 q 672 186 658 200 q 640 146 660 174 l 648 147 q 665 132 665 147 q 639 97 665 97 q 538 83 600 97 q 437 62 463 65 q 288 37 388 57 q 91 5 222 27 q 1 -11 4 -11 q -9 0 -9 -11 q 2 17 -9 5 q 16 33 14 30 q -11 49 5 35 q 9 85 -3 60 q -1 96 8 88 q -9 110 -9 104 q 100 155 -9 133 q 126 339 113 216 q 87 334 113 339 q 49 329 61 329 q 37 339 37 329 q 58 367 45 348 l 53 377 l 43 378 l 37 386 l 46 403 l 41 416 q 53 429 46 425 q 11 440 11 429 q 147 473 37 454 q 439 1000 231 857 q 551 1050 511 1050 z "},"":{"ha":668,"x_min":-8,"x_max":745,"o":"m 29 236 q -8 245 -8 236 q 20 268 3 251 q 0 278 13 271 q 32 286 11 279 l 24 294 l -3 300 q 20 317 -3 315 q 256 334 98 322 q 297 419 272 361 l 286 446 q 96 435 149 435 q 58 444 58 435 q 86 467 69 450 q 66 476 79 470 q 98 485 77 478 l 90 493 l 64 498 q 148 522 64 515 q 249 526 198 524 q 54 1015 54 932 q 58 1031 54 1026 q 90 983 66 1013 q 104 1028 94 999 l 121 1018 q 139 1042 123 1019 q 174 1013 149 1031 q 214 1050 185 1027 q 225 1031 222 1044 q 303 791 249 937 q 389 555 372 608 q 530 930 442 676 q 555 996 545 971 q 589 1050 577 1050 q 603 1013 591 1036 q 656 1043 623 1027 q 665 1022 659 1036 q 692 1029 674 1025 q 704 1008 695 1022 q 739 1042 715 1021 q 745 1011 745 1031 q 550 554 745 945 l 733 576 q 741 572 739 577 q 743 562 743 568 q 722 545 735 557 q 741 534 730 543 q 722 511 734 528 q 732 493 726 501 q 505 465 725 487 q 446 351 494 450 q 667 378 464 353 q 674 374 671 378 q 676 364 676 370 q 656 346 669 359 q 673 336 663 345 q 656 313 667 329 q 665 294 660 302 q 401 262 658 288 q 264 5 359 174 q 248 -31 258 -18 q 229 7 243 -17 q 207 -16 222 -1 q 186 0 201 -9 q 172 -14 186 0 q 155 -21 164 -21 q 146 8 149 -12 q 139 36 143 28 q 111 -11 131 20 q 104 11 104 -3 q 153 123 104 26 q 215 248 184 185 q 29 236 80 236 z "},"":{"ha":309,"x_min":93,"x_max":468,"o":"m 468 907 q 380 750 468 750 q 359 760 361 750 q 361 783 361 752 q 354 800 361 795 q 340 780 342 800 q 323 760 337 760 q 301 810 301 760 q 315 908 301 861 q 375 975 336 975 q 401 962 399 975 q 400 928 402 959 l 406 920 q 432 960 413 934 q 468 907 468 960 m 172 750 q 151 760 153 750 q 153 783 153 752 q 146 800 153 795 q 132 780 134 800 q 115 760 129 760 q 93 810 93 760 q 107 909 93 862 q 167 975 127 975 q 193 962 191 975 q 192 928 194 959 l 197 920 q 224 960 205 934 q 260 907 260 960 q 172 750 260 750 z "},"":{"ha":1234,"x_min":96,"x_max":1221,"o":"m 828 449 l 950 449 q 859 279 932 344 q 679 214 785 214 q 449 308 537 214 q 361 545 361 402 q 445 781 361 690 q 676 875 532 875 q 857 814 785 875 q 945 646 930 753 l 828 646 q 676 758 806 758 q 543 694 589 758 q 503 547 503 639 q 547 399 503 460 q 679 330 595 330 q 779 359 739 330 q 828 449 821 391 m 96 549 q 260 947 96 783 q 659 1111 424 1111 q 1057 947 893 1111 q 1221 549 1221 783 q 1057 150 1221 314 q 659 -14 893 -14 q 260 150 424 -14 q 96 549 96 314 m 245 549 q 352 230 245 351 q 659 103 464 103 q 964 231 853 103 q 1071 549 1071 351 q 964 867 1071 746 q 659 994 853 994 q 352 867 464 994 q 245 549 245 746 z "},"":{"ha":368,"x_min":134,"x_max":497,"o":"m 134 770 q 191 916 134 838 q 309 1025 243 987 q 385 1059 368 1059 q 404 1047 404 1059 q 389 1023 404 1044 q 400 1023 389 1022 q 412 1013 412 1023 q 403 999 408 1004 l 404 994 l 424 1000 l 431 991 q 300 892 357 945 q 216 761 216 814 q 229 750 216 750 q 319 836 254 750 q 396 928 386 924 q 421 904 404 924 q 443 878 439 885 q 434 831 443 862 q 425 785 425 800 q 435 775 425 774 q 463 802 449 783 q 488 831 480 825 l 492 828 q 460 785 492 814 l 463 783 q 479 793 471 789 l 485 789 q 463 764 477 781 l 467 761 q 492 778 475 767 l 496 775 q 482 760 491 770 l 485 755 l 494 757 l 497 753 q 444 696 480 728 q 379 659 401 659 q 344 685 362 659 q 326 728 326 709 q 330 743 326 733 q 334 755 333 752 l 328 764 q 205 659 240 659 q 153 700 174 659 q 134 770 134 735 z "},"":{"ha":566,"x_min":58,"x_max":550,"o":"m 183 336 q 245 260 245 273 q 239 213 245 245 q 232 165 233 181 q 224 138 228 152 q 208 121 218 121 q 145 191 186 138 q 80 258 106 239 q 58 288 58 274 q 67 338 58 304 q 78 391 77 376 q 178 463 79 406 q 240 503 209 483 q 300 533 287 533 q 314 518 314 533 q 269 472 298 504 q 277 463 270 465 l 285 464 l 293 457 q 288 415 291 443 q 239 374 275 397 q 183 336 190 342 m 419 336 q 482 260 482 273 q 475 214 482 247 q 468 165 469 181 q 460 138 464 152 q 444 121 454 121 q 381 191 423 138 q 316 258 343 239 q 294 288 294 274 q 303 338 294 303 q 314 391 313 376 q 414 463 315 406 q 476 503 445 483 q 536 533 524 533 q 550 518 550 533 q 505 472 534 504 q 513 463 506 465 l 521 464 l 529 457 q 524 415 527 443 q 475 374 511 397 q 419 336 422 338 z "},"":{"ha":1234,"x_min":96,"x_max":1221,"o":"m 566 501 l 566 236 l 437 236 l 437 857 l 672 857 q 914 673 914 857 q 760 507 914 522 l 925 236 l 789 236 l 636 501 l 566 501 m 566 593 l 671 593 q 791 697 791 593 q 664 765 791 765 l 566 765 l 566 593 m 96 549 q 260 947 96 783 q 659 1111 424 1111 q 1057 947 893 1111 q 1221 549 1221 783 q 1057 150 1221 314 q 659 -14 893 -14 q 260 150 424 -14 q 96 549 96 314 m 245 549 q 352 230 245 351 q 659 103 464 103 q 964 231 853 103 q 1071 549 1071 351 q 964 867 1071 746 q 659 994 853 994 q 352 867 464 994 q 245 549 245 746 z "},"":{"ha":419,"x_min":64,"x_max":489,"o":"m 64 472 q 188 673 67 494 q 339 900 337 896 l 330 908 q 252 871 320 908 q 167 823 210 847 q 157 833 161 825 q 183 860 165 842 l 176 864 q 158 854 171 860 l 154 863 q 180 893 164 872 l 176 896 q 146 884 167 891 l 140 889 q 157 909 146 895 l 150 913 q 127 903 142 909 l 122 911 q 251 988 122 926 q 415 1050 380 1050 q 451 1037 433 1050 q 468 1007 468 1025 q 446 958 468 996 l 452 950 q 481 975 460 960 q 489 958 489 970 q 380 749 489 899 q 228 543 304 646 l 235 538 q 460 575 266 542 l 468 567 q 448 554 463 559 q 427 545 431 548 q 460 538 438 544 l 454 525 l 457 515 q 424 497 445 511 q 454 484 454 494 q 418 457 454 457 q 258 437 365 457 q 98 416 151 416 q 76 439 88 416 q 64 472 66 458 z "},"":{"ha":419,"x_min":103,"x_max":494,"o":"m 482 742 q 339 551 482 696 q 151 406 195 406 q 142 419 144 406 q 140 439 142 429 q 131 449 131 438 q 142 469 131 460 q 158 486 155 480 l 155 488 q 122 471 144 481 q 103 496 108 477 l 104 500 q 235 608 170 554 q 340 721 340 697 q 319 731 340 730 q 276 730 304 732 q 245 728 245 728 q 220 750 231 728 q 210 786 210 769 l 351 925 l 345 930 q 239 897 344 930 q 149 869 155 869 q 136 884 136 869 q 184 920 136 904 q 147 932 170 920 q 170 960 147 942 q 156 963 168 962 q 146 972 145 964 q 286 1017 155 983 q 437 1050 413 1050 q 481 1015 465 1050 q 447 1006 469 1013 q 477 1004 462 1005 q 494 986 494 1002 q 435 904 494 973 q 359 817 397 860 q 437 800 428 803 q 482 742 482 782 z "},"":{"ha":309,"x_min":186,"x_max":419,"o":"m 310 962 q 363 946 363 962 q 354 922 363 936 l 359 917 q 397 937 372 924 q 419 916 419 937 q 350 814 419 899 q 265 729 281 729 q 248 739 248 729 q 253 772 248 731 l 244 778 q 201 749 210 749 q 186 770 186 749 q 227 873 186 795 q 310 962 274 962 z "},"":{"ha":309,"x_min":-12,"x_max":183,"o":"m -12 -208 q 14 -159 -9 -200 q 33 -110 33 -126 q 24 -82 33 -100 q 16 -58 16 -64 q 40 -39 16 -40 q 92 -29 57 -38 q 146 -20 127 -20 q 183 -109 183 -20 q 172 -154 183 -141 q 120 -203 154 -176 q 62 -236 79 -236 q 54 -225 54 -233 q 46 -210 51 -216 l 52 -196 l 46 -189 q 26 -210 36 -200 q 3 -225 11 -225 q -12 -208 -12 -225 z "},"":{"ha":385,"x_min":93,"x_max":385,"o":"m 325 1050 q 351 985 355 1050 l 357 977 q 374 1002 360 986 q 385 974 385 1002 q 331 702 385 928 q 269 452 300 577 q 257 432 266 439 l 248 436 l 240 453 q 232 456 237 450 q 203 428 225 445 q 187 447 199 435 q 174 433 185 446 q 157 425 168 425 q 144 436 144 425 q 203 653 144 475 q 261 878 262 831 l 257 885 q 175 827 231 864 q 163 833 166 827 q 175 850 167 839 l 172 856 l 164 851 l 161 856 q 138 838 148 838 l 134 843 q 143 868 138 851 l 139 872 q 100 840 127 860 l 93 851 q 209 960 111 874 q 325 1050 311 1050 z "},"":{"ha":334,"x_min":134,"x_max":447,"o":"m 447 924 q 388 750 447 833 q 237 659 323 659 q 165 695 197 659 q 134 772 134 732 q 277 1018 134 920 q 342 1050 323 1050 q 415 1006 381 1050 q 447 924 447 964 m 347 895 q 334 930 347 910 q 306 950 321 950 q 254 899 277 950 q 233 822 233 856 q 281 750 233 750 q 347 895 347 750 z "},"":{"ha":566,"x_min":39,"x_max":530,"o":"m 406 321 q 343 397 343 383 q 350 444 343 412 q 357 492 357 476 q 366 519 361 505 q 380 536 372 536 q 444 467 402 519 q 509 399 482 418 q 530 370 530 384 q 522 319 530 353 q 511 267 513 281 q 411 195 510 252 q 349 154 380 174 q 289 123 300 123 q 275 139 275 123 q 319 184 291 153 q 313 195 319 192 l 304 193 l 296 200 q 301 242 298 214 q 350 283 314 260 q 406 321 399 316 m 170 321 q 107 397 107 383 q 114 444 107 412 q 121 492 121 476 q 130 519 125 505 q 144 536 136 536 q 208 467 166 519 q 273 399 246 418 q 294 370 294 384 q 286 319 294 353 q 275 266 277 281 q 175 195 274 252 q 112 154 144 174 q 53 123 64 123 q 39 139 39 123 q 83 184 54 153 q 77 195 83 192 l 68 193 l 60 200 q 65 242 62 214 q 114 283 78 260 q 170 321 163 316 z "},"":{"ha":541,"x_min":-37,"x_max":484,"o":"m 424 -82 q 437 -96 437 -82 q 430 -111 437 -99 q 421 -125 422 -122 l 429 -132 q 473 -103 443 -121 q 484 -118 484 -102 q 315 -263 484 -140 q 97 -389 142 -389 q 38 -357 82 -389 q -7 -311 -7 -325 q 8 -245 -7 -303 l 3 -240 q -29 -292 -5 -259 q -37 -241 -37 -275 q 37 -2 -37 -189 q 143 257 90 127 q 165 319 154 288 q 195 367 184 367 q 205 335 208 367 l 210 330 l 215 338 l 221 336 q 250 370 237 370 q 261 359 261 370 q 258 347 261 355 q 254 335 255 338 l 257 329 q 277 355 267 342 q 300 374 292 374 q 314 354 314 374 q 242 98 314 298 q 171 -155 171 -103 q 191 -189 171 -189 q 280 -133 210 -189 q 371 -58 326 -96 q 385 -69 385 -58 q 377 -81 385 -74 q 367 -92 368 -91 l 372 -100 q 400 -91 382 -100 q 424 -82 418 -82 m 257 411 q 227 429 248 418 q 215 424 224 429 q 204 419 207 419 q 179 468 179 419 q 210 585 179 527 q 300 653 246 653 q 330 641 327 653 q 338 616 334 620 q 367 640 361 640 q 379 587 379 640 q 367 492 379 543 q 322 418 351 421 q 297 428 309 422 q 257 411 284 421 z "},"":{"ha":875,"x_min":-78,"x_max":886,"o":"m 318 160 q 113 -236 222 27 q 86 -269 99 -269 q 66 -241 66 -269 q 74 -215 66 -240 q 49 -191 64 -208 q 58 -170 50 -186 q 65 -149 65 -157 l 57 -142 q 44 -148 54 -142 q 29 -153 33 -153 q 12 -129 12 -153 q 20 -106 12 -120 q 28 -86 28 -92 q 17 -77 28 -77 q -9 -100 11 -85 q -22 -79 -22 -100 q 18 3 -22 -66 q 72 94 45 49 q 64 109 72 104 q -66 77 -56 77 q -78 97 -78 77 q -65 142 -78 131 q -7 167 -7 153 q -26 175 -12 173 q -39 186 -39 176 q -18 225 -39 221 q 75 240 28 233 q 161 268 154 255 q 366 615 227 385 q 519 860 442 738 q 667 1075 652 1070 q 693 1059 687 1072 q 692 1045 693 1055 q 690 1029 690 1035 q 697 1019 690 1023 l 708 1023 q 715 1014 715 1021 q 710 985 715 1004 q 705 956 705 966 q 715 939 705 939 q 728 979 722 949 q 745 1018 735 1007 q 757 993 754 1017 q 765 958 760 965 q 782 972 770 964 q 805 958 796 972 q 814 929 814 944 q 793 701 814 854 q 772 473 772 549 q 782 439 772 439 q 828 455 793 439 q 873 472 862 472 q 886 453 886 472 q 870 421 886 433 q 839 399 854 410 q 856 390 843 392 q 872 383 868 388 q 851 352 872 355 q 829 335 829 350 l 838 326 q 863 334 841 327 q 871 323 871 330 q 810 289 871 308 q 746 236 749 269 l 726 40 q 696 12 724 12 q 685 24 685 12 q 688 38 685 28 q 690 52 690 47 q 676 61 690 61 q 656 25 676 61 q 631 0 643 0 q 623 11 624 3 q 624 29 622 17 q 625 43 625 41 q 616 60 625 54 q 595 21 598 60 q 585 -25 591 -21 l 571 -21 q 545 -49 564 -32 q 534 -31 534 -49 q 549 91 534 10 q 564 211 564 171 q 555 222 564 219 q 438 187 511 203 q 318 160 378 174 m 585 389 l 625 690 l 616 699 q 486 504 580 663 q 397 343 401 358 l 404 336 q 498 358 435 336 q 585 389 541 373 m 688 1343 q 770 1255 724 1343 q 811 1150 811 1177 q 796 1129 811 1129 q 773 1140 786 1129 q 753 1158 763 1149 l 745 1153 q 750 1120 750 1112 q 732 1109 750 1109 q 647 1195 717 1109 q 578 1296 578 1280 q 600 1318 578 1318 q 637 1297 612 1310 l 644 1303 q 635 1326 635 1316 q 688 1343 635 1343 z "},"":{"ha":875,"x_min":-78,"x_max":886,"o":"m 318 160 q 113 -236 222 27 q 86 -269 99 -269 q 66 -241 66 -269 q 74 -215 66 -240 q 49 -191 64 -208 q 58 -170 50 -186 q 65 -149 65 -157 l 57 -142 q 44 -148 54 -142 q 29 -153 33 -153 q 12 -129 12 -153 q 20 -106 12 -120 q 28 -86 28 -92 q 17 -77 28 -77 q -9 -100 11 -85 q -22 -79 -22 -100 q 18 3 -22 -66 q 72 94 45 49 q 64 109 72 104 q -66 77 -56 77 q -78 97 -78 77 q -65 142 -78 131 q -7 167 -7 153 q -26 175 -12 173 q -39 186 -39 176 q -18 225 -39 221 q 75 240 28 233 q 161 268 154 255 q 366 615 227 385 q 519 860 442 738 q 667 1075 652 1070 q 693 1059 687 1072 q 692 1045 693 1055 q 690 1029 690 1035 q 697 1019 690 1023 l 708 1023 q 715 1014 715 1021 q 710 985 715 1004 q 705 956 705 966 q 715 939 705 939 q 728 979 722 949 q 745 1018 735 1007 q 757 993 754 1017 q 765 958 760 965 q 782 972 770 964 q 805 958 796 972 q 814 929 814 944 q 793 701 814 854 q 772 473 772 549 q 782 439 772 439 q 828 455 793 439 q 873 472 862 472 q 886 453 886 472 q 870 421 886 433 q 839 399 854 410 q 856 390 843 392 q 872 383 868 388 q 851 352 872 355 q 829 335 829 350 l 838 326 q 863 334 841 327 q 871 323 871 330 q 810 289 871 308 q 746 236 749 269 l 726 40 q 696 12 724 12 q 685 24 685 12 q 688 38 685 28 q 690 52 690 47 q 676 61 690 61 q 656 25 676 61 q 631 0 643 0 q 623 11 624 3 q 624 29 622 17 q 625 43 625 41 q 616 60 625 54 q 595 21 598 60 q 585 -25 591 -21 l 571 -21 q 545 -49 564 -32 q 534 -31 534 -49 q 549 91 534 10 q 564 211 564 171 q 555 222 564 219 q 438 187 511 203 q 318 160 378 174 m 585 389 l 625 690 l 616 699 q 486 504 580 663 q 397 343 401 358 l 404 336 q 498 358 435 336 q 585 389 541 373 m 749 1343 q 802 1326 802 1343 q 793 1303 802 1316 l 798 1297 q 836 1318 810 1305 q 858 1296 858 1318 q 789 1195 858 1280 q 704 1109 720 1109 q 686 1120 686 1109 q 692 1153 686 1112 l 683 1158 q 640 1129 648 1129 q 625 1150 625 1129 q 666 1254 625 1176 q 749 1343 713 1343 z "},"":{"ha":875,"x_min":-78,"x_max":901,"o":"m 318 160 q 113 -236 222 27 q 86 -269 99 -269 q 66 -241 66 -269 q 74 -215 66 -240 q 49 -191 64 -208 q 58 -170 50 -186 q 65 -149 65 -157 l 57 -142 q 44 -148 54 -142 q 29 -153 33 -153 q 12 -129 12 -153 q 20 -106 12 -120 q 28 -86 28 -92 q 17 -77 28 -77 q -9 -100 11 -85 q -22 -79 -22 -100 q 18 3 -22 -66 q 72 94 45 49 q 64 109 72 104 q -66 77 -56 77 q -78 97 -78 77 q -65 142 -78 131 q -7 167 -7 153 q -26 175 -12 173 q -39 186 -39 176 q -18 225 -39 221 q 75 240 28 233 q 161 268 154 255 q 366 615 227 385 q 519 860 442 738 q 667 1075 652 1070 q 693 1059 687 1072 q 692 1045 693 1055 q 690 1029 690 1035 q 697 1019 690 1023 l 708 1023 q 715 1014 715 1021 q 710 985 715 1004 q 705 956 705 966 q 715 939 705 939 q 728 979 722 949 q 745 1018 735 1007 q 757 993 754 1017 q 765 958 760 965 q 782 972 770 964 q 805 958 796 972 q 814 929 814 944 q 793 701 814 854 q 772 473 772 549 q 782 439 772 439 q 828 455 793 439 q 873 472 862 472 q 886 453 886 472 q 870 421 886 433 q 839 399 854 410 q 856 390 843 392 q 872 383 868 388 q 851 352 872 355 q 829 335 829 350 l 838 326 q 863 334 841 327 q 871 323 871 330 q 810 289 871 308 q 746 236 749 269 l 726 40 q 696 12 724 12 q 685 24 685 12 q 688 38 685 28 q 690 52 690 47 q 676 61 690 61 q 656 25 676 61 q 631 0 643 0 q 623 11 624 3 q 624 29 622 17 q 625 43 625 41 q 616 60 625 54 q 595 21 598 60 q 585 -25 591 -21 l 571 -21 q 545 -49 564 -32 q 534 -31 534 -49 q 549 91 534 10 q 564 211 564 171 q 555 222 564 219 q 438 187 511 203 q 318 160 378 174 m 585 389 l 625 690 l 616 699 q 486 504 580 663 q 397 343 401 358 l 404 336 q 498 358 435 336 q 585 389 541 373 m 703 1347 q 752 1345 720 1347 q 801 1344 784 1344 q 861 1259 819 1344 q 901 1154 901 1177 q 852 1136 901 1136 q 825 1141 847 1136 q 781 1136 787 1136 q 749 1171 768 1145 q 717 1205 730 1196 q 648 1136 696 1179 q 614 1151 614 1136 q 620 1169 614 1154 l 616 1175 q 572 1148 576 1148 q 562 1159 562 1148 q 627 1260 562 1174 q 703 1347 692 1347 z "},"":{"ha":875,"x_min":-78,"x_max":942,"o":"m 318 160 q 113 -236 222 27 q 86 -269 99 -269 q 66 -241 66 -269 q 74 -215 66 -240 q 49 -191 64 -208 q 58 -170 50 -186 q 65 -149 65 -157 l 57 -142 q 44 -148 54 -142 q 29 -153 33 -153 q 12 -129 12 -153 q 20 -106 12 -120 q 28 -86 28 -92 q 17 -77 28 -77 q -9 -100 11 -85 q -22 -79 -22 -100 q 18 3 -22 -66 q 72 94 45 49 q 64 109 72 104 q -66 77 -56 77 q -78 97 -78 77 q -65 142 -78 131 q -7 167 -7 153 q -26 175 -12 173 q -39 186 -39 176 q -18 225 -39 221 q 75 240 28 233 q 161 268 154 255 q 366 615 227 385 q 519 860 442 738 q 667 1075 652 1070 q 693 1059 687 1072 q 692 1045 693 1055 q 690 1029 690 1035 q 697 1019 690 1023 l 708 1023 q 715 1014 715 1021 q 710 985 715 1004 q 705 956 705 966 q 715 939 705 939 q 728 979 722 949 q 745 1018 735 1007 q 757 993 754 1017 q 765 958 760 965 q 782 972 770 964 q 805 958 796 972 q 814 929 814 944 q 793 701 814 854 q 772 473 772 549 q 782 439 772 439 q 828 455 793 439 q 873 472 862 472 q 886 453 886 472 q 870 421 886 433 q 839 399 854 410 q 856 390 843 392 q 872 383 868 388 q 851 352 872 355 q 829 335 829 350 l 838 326 q 863 334 841 327 q 871 323 871 330 q 810 289 871 308 q 746 236 749 269 l 726 40 q 696 12 724 12 q 685 24 685 12 q 688 38 685 28 q 690 52 690 47 q 676 61 690 61 q 656 25 676 61 q 631 0 643 0 q 623 11 624 3 q 624 29 622 17 q 625 43 625 41 q 616 60 625 54 q 595 21 598 60 q 585 -25 591 -21 l 571 -21 q 545 -49 564 -32 q 534 -31 534 -49 q 549 91 534 10 q 564 211 564 171 q 555 222 564 219 q 438 187 511 203 q 318 160 378 174 m 585 389 l 625 690 l 616 699 q 486 504 580 663 q 397 343 401 358 l 404 336 q 498 358 435 336 q 585 389 541 373 m 783 1132 q 694 1165 735 1132 q 648 1198 654 1198 q 616 1166 638 1198 q 574 1133 595 1133 q 555 1153 555 1133 l 564 1169 l 559 1179 q 537 1166 553 1177 q 514 1154 522 1154 q 503 1175 503 1154 q 572 1273 532 1229 q 673 1332 627 1332 q 741 1294 700 1332 q 789 1257 782 1257 q 830 1290 806 1257 q 863 1322 854 1322 q 871 1295 869 1317 q 881 1278 873 1278 q 910 1301 890 1286 l 929 1303 q 942 1287 942 1303 q 883 1190 942 1249 q 783 1132 823 1132 z "},"":{"ha":875,"x_min":-78,"x_max":929,"o":"m 318 160 q 113 -236 222 27 q 86 -269 99 -269 q 66 -241 66 -269 q 74 -215 66 -240 q 49 -191 64 -208 q 58 -170 50 -186 q 65 -149 65 -157 l 57 -142 q 44 -148 54 -142 q 29 -153 33 -153 q 12 -129 12 -153 q 20 -106 12 -120 q 28 -86 28 -92 q 17 -77 28 -77 q -9 -100 11 -85 q -22 -79 -22 -100 q 18 3 -22 -66 q 72 94 45 49 q 64 109 72 104 q -66 77 -56 77 q -78 97 -78 77 q -65 142 -78 131 q -7 167 -7 153 q -26 175 -12 173 q -39 186 -39 176 q -18 225 -39 221 q 75 240 28 233 q 161 268 154 255 q 366 615 227 385 q 519 860 442 738 q 667 1075 652 1070 q 693 1059 687 1072 q 692 1045 693 1055 q 690 1029 690 1035 q 697 1019 690 1023 l 708 1023 q 715 1014 715 1021 q 710 985 715 1004 q 705 956 705 966 q 715 939 705 939 q 728 979 722 949 q 745 1018 735 1007 q 757 993 754 1017 q 765 958 760 965 q 782 972 770 964 q 805 958 796 972 q 814 929 814 944 q 793 701 814 854 q 772 473 772 549 q 782 439 772 439 q 828 455 793 439 q 873 472 862 472 q 886 453 886 472 q 870 421 886 433 q 839 399 854 410 q 856 390 843 392 q 872 383 868 388 q 851 352 872 355 q 829 335 829 350 l 838 326 q 863 334 841 327 q 871 323 871 330 q 810 289 871 308 q 746 236 749 269 l 726 40 q 696 12 724 12 q 685 24 685 12 q 688 38 685 28 q 690 52 690 47 q 676 61 690 61 q 656 25 676 61 q 631 0 643 0 q 623 11 624 3 q 624 29 622 17 q 625 43 625 41 q 616 60 625 54 q 595 21 598 60 q 585 -25 591 -21 l 571 -21 q 545 -49 564 -32 q 534 -31 534 -49 q 549 91 534 10 q 564 211 564 171 q 555 222 564 219 q 438 187 511 203 q 318 160 378 174 m 585 389 l 625 690 l 616 699 q 486 504 580 663 q 397 343 401 358 l 404 336 q 498 358 435 336 q 585 389 541 373 m 929 1287 q 842 1131 929 1131 q 821 1141 823 1131 q 822 1164 822 1133 q 815 1181 822 1175 q 801 1160 804 1181 q 785 1140 798 1140 q 762 1190 762 1140 q 777 1289 762 1241 q 836 1356 798 1356 q 863 1342 860 1356 q 861 1308 863 1339 l 867 1300 q 893 1340 874 1314 q 929 1287 929 1340 m 633 1131 q 612 1141 614 1131 q 614 1164 614 1133 q 607 1181 614 1175 q 593 1160 595 1181 q 576 1140 590 1140 q 554 1190 554 1140 q 568 1289 554 1242 q 628 1356 589 1356 q 654 1342 652 1356 q 653 1308 655 1339 l 659 1300 q 685 1340 666 1314 q 721 1287 721 1340 q 633 1131 721 1131 z "},"":{"ha":875,"x_min":-78,"x_max":911,"o":"m 318 160 q 113 -236 222 27 q 86 -269 99 -269 q 66 -241 66 -269 q 74 -215 66 -240 q 49 -191 64 -208 q 58 -170 50 -186 q 65 -149 65 -157 l 57 -142 q 44 -148 54 -142 q 29 -153 33 -153 q 12 -129 12 -153 q 20 -106 12 -120 q 28 -86 28 -92 q 17 -77 28 -77 q -9 -100 11 -85 q -22 -79 -22 -100 q 18 3 -22 -66 q 72 94 45 49 q 64 109 72 104 q -66 77 -56 77 q -78 97 -78 77 q -65 142 -78 131 q -7 167 -7 153 q -26 175 -12 173 q -39 186 -39 176 q -18 225 -39 221 q 75 240 28 233 q 161 268 154 255 q 366 615 227 385 q 519 860 442 738 q 667 1075 652 1070 q 693 1059 687 1072 q 692 1045 693 1055 q 690 1029 690 1035 q 697 1019 690 1023 l 708 1023 q 715 1014 715 1021 q 710 985 715 1004 q 705 956 705 966 q 715 939 705 939 q 728 979 722 949 q 745 1018 735 1007 q 757 993 754 1017 q 765 958 760 965 q 782 972 770 964 q 805 958 796 972 q 814 929 814 944 q 793 701 814 854 q 772 473 772 549 q 782 439 772 439 q 828 455 793 439 q 873 472 862 472 q 886 453 886 472 q 870 421 886 433 q 839 399 854 410 q 856 390 843 392 q 872 383 868 388 q 851 352 872 355 q 829 335 829 350 l 838 326 q 863 334 841 327 q 871 323 871 330 q 810 289 871 308 q 746 236 749 269 l 726 40 q 696 12 724 12 q 685 24 685 12 q 688 38 685 28 q 690 52 690 47 q 676 61 690 61 q 656 25 676 61 q 631 0 643 0 q 623 11 624 3 q 624 29 622 17 q 625 43 625 41 q 616 60 625 54 q 595 21 598 60 q 585 -25 591 -21 l 571 -21 q 545 -49 564 -32 q 534 -31 534 -49 q 549 91 534 10 q 564 211 564 171 q 555 222 564 219 q 438 187 511 203 q 318 160 378 174 m 585 389 l 625 690 l 616 699 q 486 504 580 663 q 397 343 401 358 l 404 336 q 498 358 435 336 q 585 389 541 373 m 787 1289 q 751 1251 764 1289 q 741 1194 741 1223 q 768 1149 741 1149 q 828 1233 828 1149 q 787 1289 828 1289 m 743 1090 q 657 1186 657 1090 q 708 1298 657 1240 q 811 1356 759 1356 q 878 1330 846 1356 q 911 1268 911 1302 q 858 1148 911 1206 q 743 1090 805 1090 z "},"":{"ha":1132,"x_min":-32,"x_max":1136,"o":"m 1 -21 l -12 -26 l -20 -18 q 54 121 -11 1 q 114 236 114 233 q 106 248 114 244 q 51 234 87 248 q -4 220 14 220 q -32 233 -32 220 q -9 254 -32 243 q 24 273 19 268 q -9 290 11 276 q 18 315 1 298 q 6 323 12 319 q 0 335 0 327 q 103 381 0 357 q 227 432 213 406 q 390 701 249 474 q 508 893 449 797 q 640 1076 578 1006 q 652 1068 652 1076 q 650 1051 653 1063 l 654 1044 q 679 1059 686 1059 q 686 1028 694 1059 l 692 1022 q 708 1031 699 1027 q 730 1013 714 1023 q 857 1043 772 1023 q 1015 1071 910 1050 q 1014 1071 1013 1071 q 1023 1074 1016 1072 l 1051 1080 q 1069 1082 1057 1082 l 1075 1076 q 1055 1061 1067 1073 l 1063 1055 q 1117 1072 1116 1072 q 1131 1060 1131 1072 q 1122 1044 1131 1050 q 1107 1031 1114 1037 q 1136 1010 1118 1027 q 1115 972 1136 981 q 1083 954 1086 959 l 1088 949 q 1116 954 1116 954 q 1131 942 1131 954 q 1088 917 1131 926 q 839 873 1004 907 q 794 597 819 774 q 961 650 863 618 q 1083 688 1069 688 q 1096 679 1092 688 q 1067 659 1096 665 q 1039 644 1039 652 q 1082 631 1055 644 q 1032 596 1063 621 q 1042 587 1035 587 q 1063 591 1048 587 q 1084 595 1077 595 q 1097 587 1093 595 q 1072 569 1097 576 q 1046 553 1046 561 q 1057 547 1050 545 q 1071 549 1080 549 q 1082 538 1082 549 q 1023 510 1082 526 q 764 431 936 486 q 742 314 753 372 q 729 196 730 245 q 856 216 772 202 q 987 248 922 233 q 1120 268 1067 268 q 1132 249 1132 268 q 1116 218 1132 227 q 1089 201 1093 205 q 1129 184 1104 199 q 1103 151 1118 176 q 1124 140 1111 150 q 1008 75 1124 98 q 860 57 994 73 q 585 8 688 37 q 471 -9 522 -9 q 458 1 458 -9 q 484 26 458 13 q 521 43 503 34 l 513 50 q 460 36 450 36 q 449 47 449 36 q 492 75 449 67 q 538 93 535 83 q 524 102 533 102 q 493 98 513 102 q 463 94 473 94 q 452 104 452 94 q 547 154 452 139 q 572 256 557 168 q 586 366 586 338 q 575 375 586 375 q 355 310 581 375 q 205 33 321 275 q 83 -193 98 -193 q 53 -158 53 -193 q 45 -137 53 -148 q 37 -115 37 -126 q 44 -91 37 -106 q 52 -71 52 -75 q 45 -61 52 -64 q 20 -86 37 -71 q 9 -59 12 -86 q 1 -21 7 -28 m 447 492 l 452 485 q 591 525 473 485 q 633 648 611 532 q 652 786 652 749 q 640 815 652 815 q 541 659 625 801 q 447 492 461 524 z "},"":{"ha":591,"x_min":75,"x_max":631,"o":"m 75 314 q 232 822 75 530 q 344 979 272 897 q 490 1083 435 1083 q 585 1013 536 1083 q 631 899 631 947 q 624 833 631 877 q 617 767 617 789 q 608 717 617 745 q 579 682 596 682 q 563 690 574 682 q 547 699 552 697 q 530 672 543 694 q 509 654 522 654 q 496 670 498 654 q 489 693 494 689 q 471 664 479 684 q 459 632 463 637 l 447 629 q 429 611 442 611 q 422 625 420 617 q 464 844 464 765 q 439 892 464 892 q 322 667 401 892 q 241 307 241 437 q 275 215 241 253 q 364 175 311 175 q 593 283 440 175 l 597 275 q 586 256 593 269 q 593 231 589 248 q 567 201 583 222 q 585 171 574 192 q 453 70 584 140 q 269 0 321 0 q 127 100 207 0 q 80 201 90 146 q 75 314 75 230 m 138 -208 q 164 -159 141 -200 q 183 -110 183 -126 q 174 -82 183 -100 q 165 -58 165 -64 q 190 -39 165 -40 q 242 -29 207 -38 q 296 -20 277 -20 q 333 -109 333 -20 q 322 -154 333 -141 q 270 -203 304 -176 q 212 -236 229 -236 q 204 -225 204 -233 q 196 -210 201 -216 l 201 -196 l 196 -189 q 176 -210 186 -200 q 153 -225 161 -225 q 138 -208 138 -225 z "},"":{"ha":848,"x_min":75,"x_max":863,"o":"m 372 847 q 363 856 372 856 q 256 834 328 856 q 149 812 184 812 q 134 832 134 812 q 146 847 134 842 q 158 860 158 851 q 149 876 158 864 q 138 892 139 888 q 146 906 138 899 q 157 920 155 913 q 135 943 149 926 q 158 962 135 961 q 245 979 187 964 q 332 1003 328 1002 q 690 1076 452 1025 q 789 1097 785 1097 q 799 1086 800 1097 l 794 1075 q 808 1068 799 1068 q 827 1072 814 1068 q 846 1075 840 1075 q 859 1061 859 1075 q 842 1040 852 1056 q 863 1011 863 1016 q 854 987 863 998 q 840 968 842 974 q 854 949 848 961 q 734 907 854 928 q 579 886 652 892 q 558 869 565 885 q 530 744 551 853 q 509 615 509 634 q 521 603 509 603 q 660 647 543 603 q 798 692 777 692 q 811 676 811 692 q 802 664 811 671 q 789 653 790 656 q 799 639 793 645 q 783 614 793 631 q 796 601 785 609 q 804 582 804 595 q 789 532 804 547 q 642 481 779 522 q 475 431 559 456 q 433 201 454 341 q 449 193 438 193 q 595 218 492 193 q 746 248 704 245 q 783 256 758 248 q 822 264 808 264 q 848 241 848 264 q 822 205 838 231 q 842 184 831 201 q 819 151 833 175 l 832 135 q 808 94 823 121 q 783 89 798 91 q 410 26 569 60 q 235 0 302 4 q 201 -8 224 -1 q 167 -16 179 -16 q 149 -3 149 -16 q 157 14 149 5 q 167 26 165 22 q 144 52 158 33 q 157 69 144 62 q 176 83 174 79 q 149 114 165 92 q 260 163 149 140 q 283 267 269 180 q 296 375 296 349 q 290 389 296 385 q 218 370 282 387 q 147 357 174 357 q 136 368 136 357 l 144 383 q 132 395 144 392 q 114 406 118 398 q 127 428 123 415 l 119 432 q 86 425 83 425 q 75 433 75 425 q 87 461 75 431 l 75 478 q 194 516 119 500 q 317 543 309 541 q 347 684 324 545 q 372 847 372 834 m 505 1343 q 588 1255 541 1343 q 629 1150 629 1177 q 614 1129 629 1129 q 591 1140 604 1129 q 570 1158 581 1149 l 562 1153 q 568 1120 568 1112 q 550 1109 568 1109 q 465 1195 534 1109 q 395 1296 395 1280 q 418 1318 395 1318 q 455 1297 430 1310 l 461 1303 q 452 1326 452 1316 q 505 1343 452 1343 z "},"":{"ha":848,"x_min":75,"x_max":863,"o":"m 372 847 q 363 856 372 856 q 256 834 328 856 q 149 812 184 812 q 134 832 134 812 q 146 847 134 842 q 158 860 158 851 q 149 876 158 864 q 138 892 139 888 q 146 906 138 899 q 157 920 155 913 q 135 943 149 926 q 158 962 135 961 q 245 979 187 964 q 332 1003 328 1002 q 690 1076 452 1025 q 789 1097 785 1097 q 799 1086 800 1097 l 794 1075 q 808 1068 799 1068 q 827 1072 814 1068 q 846 1075 840 1075 q 859 1061 859 1075 q 842 1040 852 1056 q 863 1011 863 1016 q 854 987 863 998 q 840 968 842 974 q 854 949 848 961 q 734 907 854 928 q 579 886 652 892 q 558 869 565 885 q 530 744 551 853 q 509 615 509 634 q 521 603 509 603 q 660 647 543 603 q 798 692 777 692 q 811 676 811 692 q 802 664 811 671 q 789 653 790 656 q 799 639 793 645 q 783 614 793 631 q 796 601 785 609 q 804 582 804 595 q 789 532 804 547 q 642 481 779 522 q 475 431 559 456 q 433 201 454 341 q 449 193 438 193 q 595 218 492 193 q 746 248 704 245 q 783 256 758 248 q 822 264 808 264 q 848 241 848 264 q 822 205 838 231 q 842 184 831 201 q 819 151 833 175 l 832 135 q 808 94 823 121 q 783 89 798 91 q 410 26 569 60 q 235 0 302 4 q 201 -8 224 -1 q 167 -16 179 -16 q 149 -3 149 -16 q 157 14 149 5 q 167 26 165 22 q 144 52 158 33 q 157 69 144 62 q 176 83 174 79 q 149 114 165 92 q 260 163 149 140 q 283 267 269 180 q 296 375 296 349 q 290 389 296 385 q 218 370 282 387 q 147 357 174 357 q 136 368 136 357 l 144 383 q 132 395 144 392 q 114 406 118 398 q 127 428 123 415 l 119 432 q 86 425 83 425 q 75 433 75 425 q 87 461 75 431 l 75 478 q 194 516 119 500 q 317 543 309 541 q 347 684 324 545 q 372 847 372 834 m 581 1343 q 633 1326 633 1343 q 625 1303 633 1316 l 630 1297 q 668 1318 642 1305 q 690 1296 690 1318 q 621 1195 690 1280 q 536 1109 551 1109 q 518 1120 518 1109 q 524 1153 518 1112 l 515 1158 q 472 1129 480 1129 q 456 1150 456 1129 q 498 1254 456 1176 q 581 1343 545 1343 z "},"":{"ha":848,"x_min":75,"x_max":863,"o":"m 372 847 q 363 856 372 856 q 256 834 328 856 q 149 812 184 812 q 134 832 134 812 q 146 847 134 842 q 158 860 158 851 q 149 876 158 864 q 138 892 139 888 q 146 906 138 899 q 157 920 155 913 q 135 943 149 926 q 158 962 135 961 q 245 979 187 964 q 332 1003 328 1002 q 690 1076 452 1025 q 789 1097 785 1097 q 799 1086 800 1097 l 794 1075 q 808 1068 799 1068 q 827 1072 814 1068 q 846 1075 840 1075 q 859 1061 859 1075 q 842 1040 852 1056 q 863 1011 863 1016 q 854 987 863 998 q 840 968 842 974 q 854 949 848 961 q 734 907 854 928 q 579 886 652 892 q 558 869 565 885 q 530 744 551 853 q 509 615 509 634 q 521 603 509 603 q 660 647 543 603 q 798 692 777 692 q 811 676 811 692 q 802 664 811 671 q 789 653 790 656 q 799 639 793 645 q 783 614 793 631 q 796 601 785 609 q 804 582 804 595 q 789 532 804 547 q 642 481 779 522 q 475 431 559 456 q 433 201 454 341 q 449 193 438 193 q 595 218 492 193 q 746 248 704 245 q 783 256 758 248 q 822 264 808 264 q 848 241 848 264 q 822 205 838 231 q 842 184 831 201 q 819 151 833 175 l 832 135 q 808 94 823 121 q 783 89 798 91 q 410 26 569 60 q 235 0 302 4 q 201 -8 224 -1 q 167 -16 179 -16 q 149 -3 149 -16 q 157 14 149 5 q 167 26 165 22 q 144 52 158 33 q 157 69 144 62 q 176 83 174 79 q 149 114 165 92 q 260 163 149 140 q 283 267 269 180 q 296 375 296 349 q 290 389 296 385 q 218 370 282 387 q 147 357 174 357 q 136 368 136 357 l 144 383 q 132 395 144 392 q 114 406 118 398 q 127 428 123 415 l 119 432 q 86 425 83 425 q 75 433 75 425 q 87 461 75 431 l 75 478 q 194 516 119 500 q 317 543 309 541 q 347 684 324 545 q 372 847 372 834 m 527 1347 q 575 1345 543 1347 q 625 1344 608 1344 q 684 1259 642 1344 q 725 1154 725 1177 q 675 1136 725 1136 q 649 1141 671 1136 q 604 1136 610 1136 q 572 1171 591 1145 q 541 1205 553 1196 q 471 1136 520 1179 q 438 1151 438 1136 q 444 1169 438 1154 l 439 1175 q 396 1148 399 1148 q 385 1159 385 1148 q 451 1260 385 1174 q 527 1347 516 1347 z "},"":{"ha":848,"x_min":75,"x_max":863,"o":"m 372 847 q 363 856 372 856 q 256 834 328 856 q 149 812 184 812 q 134 832 134 812 q 146 847 134 842 q 158 860 158 851 q 149 876 158 864 q 138 892 139 888 q 146 906 138 899 q 157 920 155 913 q 135 943 149 926 q 158 962 135 961 q 245 979 187 964 q 332 1003 328 1002 q 690 1076 452 1025 q 789 1097 785 1097 q 799 1086 800 1097 l 794 1075 q 808 1068 799 1068 q 827 1072 814 1068 q 846 1075 840 1075 q 859 1061 859 1075 q 842 1040 852 1056 q 863 1011 863 1016 q 854 987 863 998 q 840 968 842 974 q 854 949 848 961 q 734 907 854 928 q 579 886 652 892 q 558 869 565 885 q 530 744 551 853 q 509 615 509 634 q 521 603 509 603 q 660 647 543 603 q 798 692 777 692 q 811 676 811 692 q 802 664 811 671 q 789 653 790 656 q 799 639 793 645 q 783 614 793 631 q 796 601 785 609 q 804 582 804 595 q 789 532 804 547 q 642 481 779 522 q 475 431 559 456 q 433 201 454 341 q 449 193 438 193 q 595 218 492 193 q 746 248 704 245 q 783 256 758 248 q 822 264 808 264 q 848 241 848 264 q 822 205 838 231 q 842 184 831 201 q 819 151 833 175 l 832 135 q 808 94 823 121 q 783 89 798 91 q 410 26 569 60 q 235 0 302 4 q 201 -8 224 -1 q 167 -16 179 -16 q 149 -3 149 -16 q 157 14 149 5 q 167 26 165 22 q 144 52 158 33 q 157 69 144 62 q 176 83 174 79 q 149 114 165 92 q 260 163 149 140 q 283 267 269 180 q 296 375 296 349 q 290 389 296 385 q 218 370 282 387 q 147 357 174 357 q 136 368 136 357 l 144 383 q 132 395 144 392 q 114 406 118 398 q 127 428 123 415 l 119 432 q 86 425 83 425 q 75 433 75 425 q 87 461 75 431 l 75 478 q 194 516 119 500 q 317 543 309 541 q 347 684 324 545 q 372 847 372 834 m 761 1295 q 673 1139 761 1139 q 652 1149 654 1139 q 654 1172 654 1141 q 647 1189 654 1183 q 633 1168 635 1189 q 616 1148 630 1148 q 594 1198 594 1148 q 608 1297 594 1249 q 668 1364 629 1364 q 694 1350 692 1364 q 693 1316 695 1348 l 699 1308 q 725 1348 706 1322 q 761 1295 761 1348 m 465 1139 q 444 1149 446 1139 q 446 1172 446 1141 q 439 1189 446 1183 q 425 1168 427 1189 q 408 1148 422 1148 q 386 1198 386 1148 q 400 1297 386 1251 q 460 1364 420 1364 q 486 1350 484 1364 q 485 1316 487 1348 l 490 1308 q 517 1348 498 1322 q 553 1295 553 1348 q 465 1139 553 1139 z "},"":{"ha":694,"x_min":52,"x_max":717,"o":"m 346 -75 q 258 41 316 -75 q 204 175 204 149 q 222 204 204 204 q 241 195 233 204 q 256 183 250 185 q 268 224 262 203 q 288 253 277 253 q 309 210 297 253 q 338 167 320 167 q 371 262 351 167 q 389 374 389 347 q 372 390 389 390 q 278 375 341 390 q 184 361 216 361 q 168 384 175 361 q 140 408 160 408 q 124 406 135 408 q 109 404 114 404 q 97 427 100 404 q 83 450 95 450 q 52 461 52 450 q 70 484 52 477 q 121 492 87 487 q 393 549 212 511 q 421 568 418 553 q 463 806 463 766 q 280 891 463 840 q 98 964 98 943 q 108 987 98 975 q 123 1007 121 1004 q 115 1038 120 1017 q 135 1061 123 1044 q 121 1090 130 1071 q 142 1111 126 1111 q 388 1038 159 1111 q 639 954 617 966 q 657 913 657 943 q 631 750 657 865 q 604 606 604 636 q 614 590 604 590 q 655 608 619 590 q 704 625 690 625 q 715 611 715 625 q 707 588 715 595 q 692 572 694 578 q 711 553 699 567 l 699 534 q 717 513 705 528 q 706 498 717 505 q 690 486 692 490 l 694 481 l 705 482 l 713 473 q 640 444 713 460 q 561 411 564 427 l 463 -22 q 413 -62 457 -45 q 346 -75 376 -75 m 428 1343 q 511 1255 464 1343 q 551 1150 551 1177 q 536 1129 551 1129 q 513 1140 526 1129 q 493 1158 503 1149 l 485 1153 q 490 1120 490 1112 q 473 1109 490 1109 q 388 1195 457 1109 q 318 1296 318 1280 q 340 1318 318 1318 q 378 1297 353 1310 l 384 1303 q 375 1326 375 1316 q 428 1343 375 1343 z "},"":{"ha":694,"x_min":52,"x_max":717,"o":"m 346 -75 q 258 41 316 -75 q 204 175 204 149 q 222 204 204 204 q 241 195 233 204 q 256 183 250 185 q 268 224 262 203 q 288 253 277 253 q 309 210 297 253 q 338 167 320 167 q 371 262 351 167 q 389 374 389 347 q 372 390 389 390 q 278 375 341 390 q 184 361 216 361 q 168 384 175 361 q 140 408 160 408 q 124 406 135 408 q 109 404 114 404 q 97 427 100 404 q 83 450 95 450 q 52 461 52 450 q 70 484 52 477 q 121 492 87 487 q 393 549 212 511 q 421 568 418 553 q 463 806 463 766 q 280 891 463 840 q 98 964 98 943 q 108 987 98 975 q 123 1007 121 1004 q 115 1038 120 1017 q 135 1061 123 1044 q 121 1090 130 1071 q 142 1111 126 1111 q 388 1038 159 1111 q 639 954 617 966 q 657 913 657 943 q 631 750 657 865 q 604 606 604 636 q 614 590 604 590 q 655 608 619 590 q 704 625 690 625 q 715 611 715 625 q 707 588 715 595 q 692 572 694 578 q 711 553 699 567 l 699 534 q 717 513 705 528 q 706 498 717 505 q 690 486 692 490 l 694 481 l 705 482 l 713 473 q 640 444 713 460 q 561 411 564 427 l 463 -22 q 413 -62 457 -45 q 346 -75 376 -75 m 503 1343 q 556 1326 556 1343 q 547 1303 556 1316 l 553 1297 q 591 1318 565 1305 q 612 1296 612 1318 q 543 1195 612 1280 q 458 1109 474 1109 q 441 1120 441 1109 q 446 1153 441 1112 l 437 1158 q 395 1129 403 1129 q 379 1150 379 1129 q 420 1254 379 1176 q 503 1343 467 1343 z "},"":{"ha":694,"x_min":52,"x_max":717,"o":"m 346 -75 q 258 41 316 -75 q 204 175 204 149 q 222 204 204 204 q 241 195 233 204 q 256 183 250 185 q 268 224 262 203 q 288 253 277 253 q 309 210 297 253 q 338 167 320 167 q 371 262 351 167 q 389 374 389 347 q 372 390 389 390 q 278 375 341 390 q 184 361 216 361 q 168 384 175 361 q 140 408 160 408 q 124 406 135 408 q 109 404 114 404 q 97 427 100 404 q 83 450 95 450 q 52 461 52 450 q 70 484 52 477 q 121 492 87 487 q 393 549 212 511 q 421 568 418 553 q 463 806 463 766 q 280 891 463 840 q 98 964 98 943 q 108 987 98 975 q 123 1007 121 1004 q 115 1038 120 1017 q 135 1061 123 1044 q 121 1090 130 1071 q 142 1111 126 1111 q 388 1038 159 1111 q 639 954 617 966 q 657 913 657 943 q 631 750 657 865 q 604 606 604 636 q 614 590 604 590 q 655 608 619 590 q 704 625 690 625 q 715 611 715 625 q 707 588 715 595 q 692 572 694 578 q 711 553 699 567 l 699 534 q 717 513 705 528 q 706 498 717 505 q 690 486 692 490 l 694 481 l 705 482 l 713 473 q 640 444 713 460 q 561 411 564 427 l 463 -22 q 413 -62 457 -45 q 346 -75 376 -75 m 413 1333 q 461 1332 429 1333 q 511 1331 494 1331 q 570 1246 528 1331 q 611 1140 611 1164 q 562 1122 611 1122 q 535 1128 557 1122 q 490 1122 496 1122 q 458 1157 477 1132 q 427 1192 439 1182 q 357 1122 406 1166 q 324 1137 324 1122 q 330 1156 324 1140 l 326 1161 q 282 1135 286 1135 q 271 1145 271 1135 q 337 1247 271 1160 q 413 1333 402 1333 z "},"":{"ha":694,"x_min":52,"x_max":717,"o":"m 346 -75 q 258 41 316 -75 q 204 175 204 149 q 222 204 204 204 q 241 195 233 204 q 256 183 250 185 q 268 224 262 203 q 288 253 277 253 q 309 210 297 253 q 338 167 320 167 q 371 262 351 167 q 389 374 389 347 q 372 390 389 390 q 278 375 341 390 q 184 361 216 361 q 168 384 175 361 q 140 408 160 408 q 124 406 135 408 q 109 404 114 404 q 97 427 100 404 q 83 450 95 450 q 52 461 52 450 q 70 484 52 477 q 121 492 87 487 q 393 549 212 511 q 421 568 418 553 q 463 806 463 766 q 280 891 463 840 q 98 964 98 943 q 108 987 98 975 q 123 1007 121 1004 q 115 1038 120 1017 q 135 1061 123 1044 q 121 1090 130 1071 q 142 1111 126 1111 q 388 1038 159 1111 q 639 954 617 966 q 657 913 657 943 q 631 750 657 865 q 604 606 604 636 q 614 590 604 590 q 655 608 619 590 q 704 625 690 625 q 715 611 715 625 q 707 588 715 595 q 692 572 694 578 q 711 553 699 567 l 699 534 q 717 513 705 528 q 706 498 717 505 q 690 486 692 490 l 694 481 l 705 482 l 713 473 q 640 444 713 460 q 561 411 564 427 l 463 -22 q 413 -62 457 -45 q 346 -75 376 -75 m 661 1287 q 574 1131 661 1131 q 553 1141 555 1131 q 554 1164 554 1133 q 547 1181 554 1175 q 533 1160 536 1181 q 517 1140 530 1140 q 494 1190 494 1140 q 509 1289 494 1241 q 568 1356 530 1356 q 595 1342 592 1356 q 593 1308 595 1339 l 599 1300 q 625 1340 606 1314 q 661 1287 661 1340 m 366 1131 q 345 1141 347 1131 q 346 1164 346 1133 q 339 1181 346 1175 q 325 1160 328 1181 q 309 1140 322 1140 q 286 1190 286 1140 q 300 1289 286 1242 q 360 1356 321 1356 q 387 1342 384 1356 q 385 1308 387 1339 l 391 1300 q 417 1340 398 1314 q 453 1287 453 1340 q 366 1131 453 1131 z "},"":{"ha":772,"x_min":-33,"x_max":761,"o":"m 761 464 q 611 123 761 279 q 295 -94 493 0 q 129 -158 159 -158 q 114 -144 113 -158 q 146 -115 130 -136 q 136 -110 143 -110 q 111 -117 130 -110 q 82 -127 88 -126 q 57 -75 76 -125 q 68 -60 63 -69 l 60 -56 l 43 -58 l 37 -47 q 97 -11 55 -32 q 138 39 130 5 q 179 253 154 110 q 17 180 40 180 q -11 196 -11 180 q 0 210 -6 205 q -17 221 -4 217 q -33 231 -29 226 q -16 245 -27 235 l -24 260 q 1 278 -14 264 l -5 289 q 199 366 85 322 q 262 665 207 413 q 293 764 283 764 q 307 751 306 764 q 306 729 306 765 q 318 708 306 711 q 345 708 317 708 q 361 671 361 708 q 391 653 361 659 q 421 629 421 647 q 408 538 421 595 q 386 449 397 494 q 463 480 412 458 q 492 493 486 493 q 505 489 501 493 q 494 475 500 483 q 522 456 505 471 q 518 429 521 447 q 549 411 530 427 q 455 372 519 395 q 363 334 392 349 q 335 224 349 279 q 318 111 318 155 q 330 100 318 100 q 414 150 355 100 q 578 447 578 289 q 412 724 578 589 q 119 904 319 798 q 82 930 94 918 q 100 945 89 935 q 71 970 88 951 q 94 1010 71 995 l 110 1007 l 115 1014 q 110 1036 110 1029 q 126 1067 110 1047 l 117 1086 q 129 1097 116 1097 q 329 985 159 1097 q 528 848 428 916 q 716 646 659 762 q 761 464 761 556 z "},"":{"ha":875,"x_min":61,"x_max":903,"o":"m 827 591 q 806 273 827 473 q 786 78 797 208 q 772 37 785 37 q 751 64 767 47 q 741 39 745 59 q 729 22 739 22 q 721 41 723 27 q 713 60 718 55 q 694 23 705 60 q 669 -14 684 -14 q 660 7 663 -8 q 652 28 658 22 q 633 -11 635 28 q 618 -50 631 -50 q 599 -29 599 -50 q 608 60 599 -23 q 631 286 614 136 q 643 422 643 371 q 629 473 643 473 q 602 437 617 463 q 576 401 587 411 q 371 104 543 371 q 186 -138 214 -138 q 143 -97 172 -138 q 114 -39 114 -56 q 148 163 114 14 q 196 363 172 263 q 247 575 222 469 q 288 783 288 747 q 279 798 288 793 q 231 755 270 798 q 179 713 191 713 l 172 721 q 179 737 175 730 l 172 746 q 136 732 161 741 l 127 741 q 137 753 129 744 q 144 768 144 763 q 135 774 144 774 q 99 759 121 774 q 71 743 77 743 q 61 753 60 743 q 372 1060 223 946 q 422 1111 386 1080 q 467 1080 452 1111 q 482 1042 474 1061 l 497 1053 q 507 1038 507 1053 q 434 616 507 913 q 378 393 378 387 q 385 376 378 382 q 524 581 396 385 q 656 789 648 771 q 720 878 698 878 q 755 851 755 878 q 750 817 755 840 q 745 783 745 794 q 755 768 745 768 q 768 795 765 768 q 777 833 773 829 q 813 724 796 833 q 827 591 827 636 m 744 1057 q 655 1090 696 1057 q 608 1124 614 1124 q 577 1091 599 1124 q 534 1059 555 1059 q 516 1078 516 1059 l 525 1095 l 519 1105 q 498 1091 513 1103 q 475 1080 483 1080 q 464 1100 464 1080 q 533 1198 493 1154 q 633 1257 588 1257 q 702 1220 661 1257 q 750 1182 743 1182 q 791 1215 766 1182 q 823 1248 815 1248 q 832 1221 829 1242 q 842 1203 834 1203 q 871 1227 850 1212 l 890 1228 q 903 1213 903 1229 q 843 1116 903 1174 q 744 1057 784 1057 z "},"":{"ha":746,"x_min":61,"x_max":777,"o":"m 61 302 q 237 779 61 547 q 648 1082 413 1012 q 754 1111 747 1111 q 775 1097 775 1111 q 764 1082 775 1090 q 747 1068 749 1072 q 764 1063 749 1066 q 777 1054 777 1061 q 758 1035 777 1046 q 733 1015 737 1023 q 753 999 741 1013 q 733 982 748 991 q 714 965 719 972 q 748 956 718 962 q 770 936 770 952 q 599 865 770 922 q 344 641 463 820 q 228 319 228 466 q 253 218 228 261 q 338 167 283 167 q 519 349 444 167 q 581 625 581 497 q 588 715 581 655 q 595 806 595 775 q 604 833 595 833 q 615 814 611 830 q 625 800 618 800 q 633 809 627 802 q 643 817 638 817 q 654 803 652 817 q 655 777 656 794 q 653 755 653 754 q 660 745 653 748 q 673 769 664 748 q 689 786 681 786 q 699 764 695 780 q 708 742 702 748 q 742 783 717 758 q 764 704 764 783 q 754 600 764 653 q 667 276 715 382 q 443 35 592 109 q 315 0 374 0 q 167 62 252 0 q 61 302 61 140 m 587 1371 q 670 1282 623 1371 q 711 1178 711 1204 q 696 1157 711 1157 q 673 1168 686 1157 q 652 1186 663 1177 l 644 1181 q 650 1147 650 1139 q 632 1137 650 1137 q 547 1222 616 1137 q 477 1324 477 1308 q 500 1345 477 1345 q 537 1325 512 1338 l 543 1331 q 534 1354 534 1344 q 587 1371 534 1371 z "},"":{"ha":746,"x_min":61,"x_max":794,"o":"m 61 302 q 237 779 61 547 q 648 1082 413 1012 q 754 1111 747 1111 q 775 1097 775 1111 q 764 1082 775 1090 q 747 1068 749 1072 q 764 1063 749 1066 q 777 1054 777 1061 q 758 1035 777 1046 q 733 1015 737 1023 q 753 999 741 1013 q 733 982 748 991 q 714 965 719 972 q 748 956 718 962 q 770 936 770 952 q 599 865 770 922 q 344 641 463 820 q 228 319 228 466 q 253 218 228 261 q 338 167 283 167 q 519 349 444 167 q 581 625 581 497 q 588 715 581 655 q 595 806 595 775 q 604 833 595 833 q 615 814 611 830 q 625 800 618 800 q 633 809 627 802 q 643 817 638 817 q 654 803 652 817 q 655 777 656 794 q 653 755 653 754 q 660 745 653 748 q 673 769 664 748 q 689 786 681 786 q 699 764 695 780 q 708 742 702 748 q 742 783 717 758 q 764 704 764 783 q 754 600 764 653 q 667 276 715 382 q 443 35 592 109 q 315 0 374 0 q 167 62 252 0 q 61 302 61 140 m 685 1379 q 738 1362 738 1379 q 729 1339 738 1352 l 734 1333 q 772 1354 747 1341 q 794 1332 794 1354 q 725 1231 794 1316 q 640 1145 656 1145 q 623 1156 623 1145 q 628 1189 623 1147 l 619 1194 q 576 1165 585 1165 q 561 1186 561 1165 q 602 1290 561 1212 q 685 1379 649 1379 z "},"":{"ha":746,"x_min":61,"x_max":777,"o":"m 61 302 q 237 779 61 547 q 648 1082 413 1012 q 754 1111 747 1111 q 775 1097 775 1111 q 764 1082 775 1090 q 747 1068 749 1072 q 764 1063 749 1066 q 777 1054 777 1061 q 758 1035 777 1046 q 733 1015 737 1023 q 753 999 741 1013 q 733 982 748 991 q 714 965 719 972 q 748 956 718 962 q 770 936 770 952 q 599 865 770 922 q 344 641 463 820 q 228 319 228 466 q 253 218 228 261 q 338 167 283 167 q 519 349 444 167 q 581 625 581 497 q 588 715 581 655 q 595 806 595 775 q 604 833 595 833 q 615 814 611 830 q 625 800 618 800 q 633 809 627 802 q 643 817 638 817 q 654 803 652 817 q 655 777 656 794 q 653 755 653 754 q 660 745 653 748 q 673 769 664 748 q 689 786 681 786 q 699 764 695 780 q 708 742 702 748 q 742 783 717 758 q 764 704 764 783 q 754 600 764 653 q 667 276 715 382 q 443 35 592 109 q 315 0 374 0 q 167 62 252 0 q 61 302 61 140 m 574 1347 q 623 1345 591 1347 q 672 1344 655 1344 q 732 1259 690 1344 q 772 1154 772 1177 q 723 1136 772 1136 q 696 1141 718 1136 q 652 1136 658 1136 q 620 1171 639 1145 q 588 1205 601 1196 q 519 1136 568 1179 q 486 1151 486 1136 q 491 1169 486 1154 l 487 1175 q 444 1148 447 1148 q 433 1159 433 1148 q 498 1260 433 1174 q 574 1347 564 1347 z "},"":{"ha":746,"x_min":61,"x_max":781,"o":"m 61 302 q 237 779 61 547 q 648 1082 413 1012 q 754 1111 747 1111 q 775 1097 775 1111 q 764 1082 775 1090 q 747 1068 749 1072 q 764 1063 749 1066 q 777 1054 777 1061 q 758 1035 777 1046 q 733 1015 737 1023 q 753 999 741 1013 q 733 982 748 991 q 714 965 719 972 q 748 956 718 962 q 770 936 770 952 q 599 865 770 922 q 344 641 463 820 q 228 319 228 466 q 253 218 228 261 q 338 167 283 167 q 519 349 444 167 q 581 625 581 497 q 588 715 581 655 q 595 806 595 775 q 604 833 595 833 q 615 814 611 830 q 625 800 618 800 q 633 809 627 802 q 643 817 638 817 q 654 803 652 817 q 655 777 656 794 q 653 755 653 754 q 660 745 653 748 q 673 769 664 748 q 689 786 681 786 q 699 764 695 780 q 708 742 702 748 q 742 783 717 758 q 764 704 764 783 q 754 600 764 653 q 667 276 715 382 q 443 35 592 109 q 315 0 374 0 q 167 62 252 0 q 61 302 61 140 m 622 1132 q 533 1165 574 1132 q 486 1198 492 1198 q 455 1166 477 1198 q 412 1133 433 1133 q 394 1153 394 1133 l 403 1169 l 397 1179 q 376 1166 391 1177 q 353 1154 361 1154 q 342 1175 342 1154 q 411 1273 371 1229 q 511 1332 466 1332 q 579 1294 538 1332 q 628 1257 621 1257 q 669 1290 644 1257 q 701 1322 693 1322 q 710 1295 707 1317 q 720 1278 712 1278 q 749 1301 728 1286 l 768 1303 q 781 1287 781 1303 q 721 1190 781 1249 q 622 1132 662 1132 z "},"":{"ha":746,"x_min":61,"x_max":798,"o":"m 61 302 q 237 779 61 547 q 648 1082 413 1012 q 754 1111 747 1111 q 775 1097 775 1111 q 764 1082 775 1090 q 747 1068 749 1072 q 764 1063 749 1066 q 777 1054 777 1061 q 758 1035 777 1046 q 733 1015 737 1023 q 753 999 741 1013 q 733 982 748 991 q 714 965 719 972 q 748 956 718 962 q 770 936 770 952 q 599 865 770 922 q 344 641 463 820 q 228 319 228 466 q 253 218 228 261 q 338 167 283 167 q 519 349 444 167 q 581 625 581 497 q 588 715 581 655 q 595 806 595 775 q 604 833 595 833 q 615 814 611 830 q 625 800 618 800 q 633 809 627 802 q 643 817 638 817 q 654 803 652 817 q 655 777 656 794 q 653 755 653 754 q 660 745 653 748 q 673 769 664 748 q 689 786 681 786 q 699 764 695 780 q 708 742 702 748 q 742 783 717 758 q 764 704 764 783 q 754 600 764 653 q 667 276 715 382 q 443 35 592 109 q 315 0 374 0 q 167 62 252 0 q 61 302 61 140 m 798 1315 q 711 1158 798 1158 q 690 1168 692 1158 q 691 1192 691 1160 q 684 1208 691 1203 q 670 1188 673 1208 q 654 1168 667 1168 q 631 1218 631 1168 q 646 1316 631 1269 q 705 1383 667 1383 q 732 1370 729 1383 q 730 1336 732 1367 l 736 1328 q 762 1368 743 1342 q 798 1315 798 1368 m 503 1158 q 481 1168 484 1158 q 483 1192 483 1160 q 476 1208 483 1203 q 462 1188 465 1208 q 446 1168 459 1168 q 423 1218 423 1168 q 437 1317 423 1270 q 497 1383 458 1383 q 524 1370 521 1383 q 522 1336 524 1367 l 528 1328 q 554 1368 535 1342 q 590 1315 590 1368 q 503 1158 590 1158 z "},"":{"ha":746,"x_min":-37,"x_max":867,"o":"m 338 167 q 509 324 431 167 q 578 568 578 461 q 250 228 511 500 q 284 184 258 202 q 338 167 310 167 m 654 749 q 817 909 732 829 l 825 904 q 810 873 819 895 l 815 868 q 839 885 823 874 l 846 879 q 831 857 840 872 l 836 851 q 861 867 844 857 l 867 859 q 761 751 838 815 q 764 704 764 726 q 754 600 764 652 q 666 277 714 383 q 444 35 590 107 q 315 0 374 0 q 212 31 269 0 q 126 97 160 59 q 20 0 79 50 l 12 4 l 11 18 q -8 8 5 12 l -12 14 q 8 46 -11 18 l 5 52 q -29 31 -5 43 l -37 37 q 83 164 -26 68 q 61 302 61 217 q 237 779 61 547 q 648 1082 413 1012 q 754 1111 747 1111 q 775 1097 775 1111 q 764 1082 775 1090 q 747 1068 749 1072 q 764 1063 749 1066 q 777 1054 777 1061 q 758 1036 777 1046 q 733 1015 737 1023 q 753 999 741 1013 q 733 982 748 991 q 714 965 719 972 q 748 956 718 962 q 770 936 770 952 q 599 865 770 922 q 344 641 463 820 q 228 319 228 466 q 232 307 228 319 l 235 307 q 587 682 417 513 q 595 806 595 724 q 604 833 595 833 q 615 815 612 829 q 625 800 618 800 q 633 809 627 802 q 643 817 638 817 q 654 803 652 817 q 655 777 656 794 q 653 755 653 754 l 654 749 z "},"":{"ha":875,"x_min":52,"x_max":868,"o":"m 637 -36 q 589 3 603 -36 q 568 65 578 34 q 560 51 563 62 q 553 37 557 41 q 546 79 546 52 q 583 320 546 189 q 596 390 596 369 q 589 401 596 398 q 441 214 552 372 q 328 65 337 66 q 321 81 323 73 q 281 54 293 54 q 227 110 227 54 q 228 123 227 117 l 222 129 q 208 122 216 125 q 183 204 183 122 q 245 642 183 353 q 265 782 265 733 q 253 799 265 799 q 205 764 239 799 q 157 718 163 723 q 147 733 147 718 q 151 749 147 739 q 155 765 155 760 q 149 775 155 772 q 121 755 140 767 q 111 774 114 761 q 104 794 108 789 q 58 755 88 775 l 52 762 q 219 951 58 789 q 393 1111 378 1111 q 441 1065 425 1111 q 453 993 453 1031 q 453 995 453 995 q 452 991 452 994 l 450 981 q 443 932 443 941 q 447 922 443 924 q 456 945 449 930 l 463 939 q 410 574 448 758 q 367 357 367 369 q 385 336 367 336 q 558 595 401 336 q 729 854 715 854 q 762 820 757 854 q 762 765 765 807 l 766 760 q 790 782 773 768 q 819 736 819 771 q 776 486 819 669 q 733 243 733 304 q 745 212 733 212 q 804 250 764 212 q 857 304 831 277 l 864 294 q 831 241 852 277 l 836 236 q 860 254 843 243 l 864 248 q 832 182 850 227 l 838 178 q 861 196 844 185 l 868 187 q 763 65 868 166 q 637 -36 658 -36 m 585 1268 q 667 1180 621 1268 q 708 1076 708 1102 q 693 1055 708 1055 q 670 1065 683 1055 q 650 1084 660 1075 l 642 1078 q 647 1045 647 1037 q 629 1035 647 1035 q 544 1120 614 1035 q 475 1221 475 1205 q 497 1243 475 1243 q 534 1223 509 1236 l 541 1228 q 532 1252 532 1242 q 585 1268 532 1268 z "},"":{"ha":875,"x_min":52,"x_max":868,"o":"m 637 -36 q 589 3 603 -36 q 568 65 578 34 q 560 51 563 62 q 553 37 557 41 q 546 79 546 52 q 583 320 546 189 q 596 390 596 369 q 589 401 596 398 q 441 214 552 372 q 328 65 337 66 q 321 81 323 73 q 281 54 293 54 q 227 110 227 54 q 228 123 227 117 l 222 129 q 208 122 216 125 q 183 204 183 122 q 245 642 183 353 q 265 782 265 733 q 253 799 265 799 q 205 764 239 799 q 157 718 163 723 q 147 733 147 718 q 151 749 147 739 q 155 765 155 760 q 149 775 155 772 q 121 755 140 767 q 111 774 114 761 q 104 794 108 789 q 58 755 88 775 l 52 762 q 219 951 58 789 q 393 1111 378 1111 q 441 1065 425 1111 q 453 993 453 1031 q 453 995 453 995 q 452 991 452 994 l 450 981 q 443 932 443 941 q 447 922 443 924 q 456 945 449 930 l 463 939 q 410 574 448 758 q 367 357 367 369 q 385 336 367 336 q 558 595 401 336 q 729 854 715 854 q 762 820 757 854 q 762 765 765 807 l 766 760 q 790 782 773 768 q 819 736 819 771 q 776 486 819 669 q 733 243 733 304 q 745 212 733 212 q 804 250 764 212 q 857 304 831 277 l 864 294 q 831 241 852 277 l 836 236 q 860 254 843 243 l 864 248 q 832 182 850 227 l 838 178 q 861 196 844 185 l 868 187 q 763 65 868 166 q 637 -36 658 -36 m 705 1268 q 758 1252 758 1268 q 749 1228 758 1242 l 754 1223 q 792 1243 766 1230 q 814 1221 814 1243 q 745 1120 814 1205 q 660 1035 675 1035 q 642 1045 642 1035 q 648 1078 642 1037 l 639 1084 q 596 1055 604 1055 q 581 1076 581 1055 q 622 1179 581 1101 q 705 1268 669 1268 z "},"":{"ha":875,"x_min":52,"x_max":868,"o":"m 637 -36 q 589 3 603 -36 q 568 65 578 34 q 560 51 563 62 q 553 37 557 41 q 546 79 546 52 q 583 320 546 189 q 596 390 596 369 q 589 401 596 398 q 441 214 552 372 q 328 65 337 66 q 321 81 323 73 q 281 54 293 54 q 227 110 227 54 q 228 123 227 117 l 222 129 q 208 122 216 125 q 183 204 183 122 q 245 642 183 353 q 265 782 265 733 q 253 799 265 799 q 205 764 239 799 q 157 718 163 723 q 147 733 147 718 q 151 749 147 739 q 155 765 155 760 q 149 775 155 772 q 121 755 140 767 q 111 774 114 761 q 104 794 108 789 q 58 755 88 775 l 52 762 q 219 951 58 789 q 393 1111 378 1111 q 441 1065 425 1111 q 453 993 453 1031 q 453 995 453 995 q 452 991 452 994 l 450 981 q 443 932 443 941 q 447 922 443 924 q 456 945 449 930 l 463 939 q 410 574 448 758 q 367 357 367 369 q 385 336 367 336 q 558 595 401 336 q 729 854 715 854 q 762 820 757 854 q 762 765 765 807 l 766 760 q 790 782 773 768 q 819 736 819 771 q 776 486 819 669 q 733 243 733 304 q 745 212 733 212 q 804 250 764 212 q 857 304 831 277 l 864 294 q 831 241 852 277 l 836 236 q 860 254 843 243 l 864 248 q 832 182 850 227 l 838 178 q 861 196 844 185 l 868 187 q 763 65 868 166 q 637 -36 658 -36 m 614 1259 q 663 1257 631 1259 q 712 1256 695 1256 q 772 1171 730 1256 q 812 1065 812 1089 q 763 1048 812 1048 q 736 1053 758 1048 q 692 1048 698 1048 q 660 1082 679 1057 q 628 1117 641 1107 q 559 1048 608 1091 q 526 1063 526 1048 q 531 1081 526 1065 l 527 1086 q 484 1060 487 1060 q 473 1071 473 1060 q 538 1172 473 1086 q 614 1259 604 1259 z "},"":{"ha":875,"x_min":52,"x_max":879,"o":"m 637 -36 q 589 3 603 -36 q 568 65 578 34 q 560 51 563 62 q 553 37 557 41 q 546 79 546 52 q 583 320 546 189 q 596 390 596 369 q 589 401 596 398 q 441 214 552 372 q 328 65 337 66 q 321 81 323 73 q 281 54 293 54 q 227 110 227 54 q 228 123 227 117 l 222 129 q 208 122 216 125 q 183 204 183 122 q 245 642 183 353 q 265 782 265 733 q 253 799 265 799 q 205 764 239 799 q 157 718 163 723 q 147 733 147 718 q 151 749 147 739 q 155 765 155 760 q 149 775 155 772 q 121 755 140 767 q 111 774 114 761 q 104 794 108 789 q 58 755 88 775 l 52 762 q 219 951 58 789 q 393 1111 378 1111 q 441 1065 425 1111 q 453 993 453 1031 q 453 995 453 995 q 452 991 452 994 l 450 981 q 443 932 443 941 q 447 922 443 924 q 456 945 449 930 l 463 939 q 410 574 448 758 q 367 357 367 369 q 385 336 367 336 q 558 595 401 336 q 729 854 715 854 q 762 820 757 854 q 762 765 765 807 l 766 760 q 790 782 773 768 q 819 736 819 771 q 776 486 819 669 q 733 243 733 304 q 745 212 733 212 q 804 250 764 212 q 857 304 831 277 l 864 294 q 831 241 852 277 l 836 236 q 860 254 843 243 l 864 248 q 832 182 850 227 l 838 178 q 861 196 844 185 l 868 187 q 763 65 868 166 q 637 -36 658 -36 m 879 1185 q 791 1028 879 1028 q 770 1038 772 1028 q 772 1061 772 1030 q 765 1078 772 1073 q 751 1058 753 1078 q 734 1038 748 1038 q 712 1088 712 1038 q 726 1186 712 1139 q 786 1253 747 1253 q 812 1240 810 1253 q 811 1206 813 1237 l 817 1198 q 843 1238 824 1212 q 879 1185 879 1238 m 583 1028 q 562 1038 564 1028 q 564 1061 564 1030 q 557 1078 564 1073 q 543 1058 545 1078 q 526 1038 540 1038 q 504 1088 504 1038 q 518 1187 504 1140 q 578 1253 538 1253 q 604 1240 602 1253 q 603 1206 605 1237 l 608 1198 q 635 1238 616 1212 q 671 1185 671 1238 q 583 1028 671 1028 z "},"":{"ha":772,"x_min":75,"x_max":762,"o":"m 275 800 q 226 758 255 787 q 178 713 193 724 q 150 726 150 713 q 155 751 150 718 l 147 755 l 126 745 l 122 751 q 138 783 138 782 l 129 787 q 83 746 113 767 q 75 755 75 749 q 237 942 75 772 q 419 1111 399 1111 q 467 1051 450 1111 q 452 997 460 1034 l 458 989 q 481 1011 465 998 q 492 985 492 1011 q 448 769 492 958 q 393 545 420 657 q 374 474 384 509 q 363 403 363 429 q 372 387 363 387 q 539 609 402 412 q 681 793 667 793 q 709 776 690 793 q 735 724 735 751 q 733 699 735 717 q 732 669 732 682 q 741 654 732 661 q 749 670 745 659 q 757 685 752 681 l 762 677 q 753 588 762 659 q 705 235 715 286 q 575 -93 664 31 l 570 -86 q 575 -50 572 -74 l 571 -41 q 526 -138 549 -90 q 422 -229 479 -229 q 382 -157 382 -229 q 407 33 382 -85 q 472 203 436 169 q 479 191 479 199 q 468 152 479 181 q 452 111 452 113 l 457 104 q 478 123 463 112 l 484 114 q 461 23 483 85 q 440 -72 440 -39 q 458 -113 440 -113 q 479 -95 471 -106 q 534 170 487 -84 q 582 437 582 419 q 575 447 582 444 q 420 264 564 446 q 250 82 275 82 q 208 106 231 82 q 174 147 191 127 l 172 157 q 180 192 172 159 l 172 197 q 150 183 165 191 l 143 192 q 271 726 144 265 q 285 787 285 777 q 275 800 285 801 m 653 1268 q 706 1252 706 1268 q 697 1228 706 1242 l 703 1223 q 741 1243 715 1230 q 762 1221 762 1243 q 693 1120 762 1205 q 608 1035 624 1035 q 591 1045 591 1035 q 596 1078 591 1037 l 587 1084 q 545 1055 553 1055 q 529 1076 529 1055 q 570 1179 529 1101 q 653 1268 617 1268 z "},"":{"ha":772,"x_min":75,"x_max":745,"o":"m 745 207 q 683 85 745 142 q 555 28 621 28 q 441 109 512 28 q 374 225 374 187 q 382 236 374 232 q 410 204 390 225 l 418 210 q 392 272 408 230 l 397 279 q 422 267 406 275 l 432 273 q 399 335 420 294 q 408 347 398 347 q 479 275 420 347 q 549 203 538 203 q 595 233 595 203 q 525 406 595 288 q 411 559 459 517 q 290 -102 370 339 q 281 -141 286 -126 q 265 -174 273 -174 q 258 -146 261 -169 q 245 -127 255 -127 q 211 -183 228 -155 q 168 -224 184 -224 q 146 -186 163 -210 q 124 -224 134 -186 q 97 -262 113 -262 q 82 -239 82 -262 q 118 -36 82 -205 q 253 663 163 197 q 157 692 205 677 q 82 730 82 717 q 104 743 82 739 q 135 749 133 747 q 114 760 132 753 q 100 775 100 766 q 123 789 100 789 q 143 786 130 789 q 163 783 156 783 q 176 798 176 783 q 126 811 176 806 q 75 828 76 816 q 98 842 82 838 q 123 848 111 845 q 103 866 121 852 q 89 885 89 878 q 110 903 89 903 q 199 881 130 903 q 289 847 267 859 q 326 1039 294 896 q 357 1111 342 1111 q 377 1077 371 1111 q 389 1029 385 1036 q 406 1046 397 1029 q 424 1063 414 1063 q 447 998 447 1063 q 456 971 447 977 q 466 989 463 975 q 475 1007 469 1003 q 485 982 485 1007 q 470 865 485 937 q 446 749 458 807 q 669 517 597 644 q 745 207 745 385 z "},"":{"ha":566,"x_min":16,"x_max":545,"o":"m 541 494 q 488 214 541 412 q 382 -9 429 -9 q 367 4 367 -9 q 375 39 367 14 l 370 43 q 359 35 368 42 q 345 28 351 28 q 330 54 330 28 q 334 72 330 60 q 338 89 337 83 l 330 97 q 296 69 321 86 q 275 90 275 68 q 321 221 275 115 q 357 351 340 267 q 374 485 374 435 q 353 551 374 526 q 315 579 342 564 q 294 602 294 591 q 306 648 294 617 q 330 686 318 682 q 388 739 364 699 q 411 817 411 778 q 357 901 411 901 q 217 288 271 901 q 195 -117 195 37 q 172 -171 195 -171 q 163 -149 165 -164 q 155 -126 159 -132 q 148 -164 153 -131 q 123 -186 144 -186 q 117 -155 113 -186 l 110 -151 q 91 -199 99 -161 q 78 -233 84 -233 q 64 -192 77 -218 q 56 -233 60 -212 q 40 -264 50 -264 q 16 -153 16 -264 q 22 -12 16 -101 q 29 129 28 90 q 103 641 33 268 q 233 1097 180 1055 q 243 1088 243 1098 q 225 1038 243 1085 l 229 1028 q 240 1042 232 1030 q 254 1051 246 1051 q 267 1033 264 1051 q 272 1006 269 1009 q 299 1046 286 1026 q 359 1076 321 1076 q 479 1021 416 1076 q 545 908 545 964 q 518 787 545 844 q 457 677 488 732 q 541 494 541 629 z "},"":{"ha":566,"x_min":16,"x_max":572,"o":"m 16 186 q 100 428 16 302 q 284 612 177 545 q 397 667 373 667 q 429 647 429 667 q 406 610 429 633 l 408 606 q 422 610 420 610 q 443 590 443 610 q 435 578 443 586 q 427 567 428 570 l 429 561 q 444 566 433 562 q 460 570 455 570 q 469 555 470 570 q 300 418 385 487 q 163 245 210 340 q 140 172 140 201 q 165 158 140 158 q 305 304 204 158 q 416 450 406 450 q 456 412 425 450 q 489 366 484 378 q 476 288 489 340 q 464 211 464 237 q 476 196 464 195 q 520 239 499 210 q 557 288 554 285 l 564 282 q 514 212 564 264 l 519 208 q 546 225 528 214 l 553 218 q 519 176 541 205 l 525 171 q 564 200 537 181 l 570 196 q 549 164 562 186 l 553 161 l 568 165 l 572 161 q 493 71 572 142 q 390 0 414 0 q 338 45 364 0 q 314 115 314 87 q 317 139 314 123 q 321 161 321 154 q 313 176 321 172 q 125 0 172 0 q 40 70 71 0 q 16 186 16 125 m 363 962 q 446 874 399 962 q 487 770 487 796 q 472 749 487 749 q 449 760 462 749 q 429 778 439 769 l 420 772 q 426 739 426 731 q 408 729 426 729 q 323 814 393 729 q 254 916 254 899 q 276 937 254 937 q 313 917 288 930 l 319 922 q 311 946 311 936 q 363 962 311 962 z "},"":{"ha":566,"x_min":16,"x_max":595,"o":"m 16 186 q 100 428 16 302 q 284 612 177 545 q 397 667 373 667 q 429 647 429 667 q 406 610 429 633 l 408 606 q 422 610 420 610 q 443 590 443 610 q 435 578 443 586 q 427 567 428 570 l 429 561 q 444 566 433 562 q 460 570 455 570 q 469 555 470 570 q 300 418 385 487 q 163 245 210 340 q 140 172 140 201 q 165 158 140 158 q 305 304 204 158 q 416 450 406 450 q 456 412 425 450 q 489 366 484 378 q 476 288 489 340 q 464 211 464 237 q 476 196 464 195 q 520 239 499 210 q 557 288 554 285 l 564 282 q 514 212 564 264 l 519 208 q 546 225 528 214 l 553 218 q 519 176 541 205 l 525 171 q 564 200 537 181 l 570 196 q 549 164 562 186 l 553 161 l 568 165 l 572 161 q 493 71 572 142 q 390 0 414 0 q 338 45 364 0 q 314 115 314 87 q 317 139 314 123 q 321 161 321 154 q 313 176 321 172 q 125 0 172 0 q 40 70 71 0 q 16 186 16 125 m 486 962 q 539 946 539 962 q 530 922 539 936 l 536 917 q 574 937 548 924 q 595 916 595 937 q 526 814 595 899 q 441 729 457 729 q 424 739 424 729 q 429 772 424 731 l 420 778 q 378 749 386 749 q 362 770 362 749 q 404 873 362 795 q 486 962 450 962 z "},"":{"ha":566,"x_min":16,"x_max":572,"o":"m 16 186 q 100 428 16 302 q 284 612 177 545 q 397 667 373 667 q 429 647 429 667 q 406 610 429 633 l 408 606 q 422 610 420 610 q 443 590 443 610 q 435 578 443 586 q 427 567 428 570 l 429 561 q 444 566 433 562 q 460 570 455 570 q 469 555 470 570 q 300 418 385 487 q 163 245 210 340 q 140 172 140 201 q 165 158 140 158 q 305 304 204 158 q 416 450 406 450 q 456 412 425 450 q 489 366 484 378 q 476 288 489 340 q 464 211 464 237 q 476 196 464 195 q 520 239 499 210 q 557 288 554 285 l 564 282 q 514 212 564 264 l 519 208 q 546 225 528 214 l 553 218 q 519 176 541 205 l 525 171 q 564 200 537 181 l 570 196 q 549 164 562 186 l 553 161 l 568 165 l 572 161 q 493 71 572 142 q 390 0 414 0 q 338 45 364 0 q 314 115 314 87 q 317 139 314 123 q 321 161 321 154 q 313 176 321 172 q 125 0 172 0 q 40 70 71 0 q 16 186 16 125 m 362 953 q 411 951 378 953 q 460 950 443 950 q 519 865 477 950 q 560 760 560 783 q 511 742 560 742 q 484 747 506 742 q 439 742 446 742 q 408 777 427 751 q 376 811 389 802 q 307 742 355 785 q 273 757 273 742 q 279 775 273 760 l 275 781 q 231 754 235 754 q 220 765 220 754 q 286 866 220 780 q 362 953 351 953 z "},"":{"ha":566,"x_min":16,"x_max":587,"o":"m 16 186 q 100 428 16 302 q 284 612 177 545 q 397 667 373 667 q 429 647 429 667 q 406 610 429 633 l 408 606 q 422 610 420 610 q 443 590 443 610 q 435 578 443 586 q 427 567 428 570 l 429 561 q 444 566 433 562 q 460 570 455 570 q 469 555 470 570 q 300 418 385 487 q 163 245 210 340 q 140 172 140 201 q 165 158 140 158 q 305 304 204 158 q 416 450 406 450 q 456 412 425 450 q 489 366 484 378 q 476 288 489 340 q 464 211 464 237 q 476 196 464 195 q 520 239 499 210 q 557 288 554 285 l 564 282 q 514 212 564 264 l 519 208 q 546 225 528 214 l 553 218 q 519 176 541 205 l 525 171 q 564 200 537 181 l 570 196 q 549 164 562 186 l 553 161 l 568 165 l 572 161 q 493 71 572 142 q 390 0 414 0 q 338 45 364 0 q 314 115 314 87 q 317 139 314 123 q 321 161 321 154 q 313 176 321 172 q 125 0 172 0 q 40 70 71 0 q 16 186 16 125 m 429 751 q 340 785 380 751 q 293 818 299 818 q 262 785 283 818 q 219 753 240 753 q 201 772 201 753 l 210 789 l 204 799 q 183 785 198 797 q 159 774 168 774 q 149 794 149 774 q 218 892 178 848 q 318 951 273 951 q 386 914 345 951 q 435 876 427 876 q 475 909 451 876 q 508 942 500 942 q 517 915 514 937 q 526 897 519 897 q 555 921 535 906 l 574 922 q 587 907 587 923 q 528 810 587 868 q 429 751 469 751 z "},"":{"ha":566,"x_min":16,"x_max":597,"o":"m 16 186 q 100 428 16 302 q 284 612 177 545 q 397 667 373 667 q 429 647 429 667 q 406 610 429 633 l 408 606 q 422 610 420 610 q 443 590 443 610 q 435 578 443 586 q 427 567 428 570 l 429 561 q 444 566 433 562 q 460 570 455 570 q 469 555 470 570 q 300 418 385 487 q 163 245 210 340 q 140 172 140 201 q 165 158 140 158 q 305 304 204 158 q 416 450 406 450 q 456 412 425 450 q 489 366 484 378 q 476 288 489 340 q 464 211 464 237 q 476 196 464 195 q 520 239 499 210 q 557 288 554 285 l 564 282 q 514 212 564 264 l 519 208 q 546 225 528 214 l 553 218 q 519 176 541 205 l 525 171 q 564 200 537 181 l 570 196 q 549 164 562 186 l 553 161 l 568 165 l 572 161 q 493 71 572 142 q 390 0 414 0 q 338 45 364 0 q 314 115 314 87 q 317 139 314 123 q 321 161 321 154 q 313 176 321 172 q 125 0 172 0 q 40 70 71 0 q 16 186 16 125 m 597 907 q 509 750 597 750 q 488 760 490 750 q 490 783 490 752 q 483 800 490 795 q 469 780 471 800 q 452 760 466 760 q 430 810 430 760 q 444 908 430 861 q 504 975 465 975 q 530 962 528 975 q 529 928 531 959 l 534 920 q 561 960 542 934 q 597 907 597 960 m 301 750 q 280 760 282 750 q 281 783 281 752 q 275 800 281 795 q 260 780 263 800 q 244 760 258 760 q 222 810 222 760 q 236 909 222 862 q 296 975 256 975 q 322 962 319 975 q 321 928 323 959 l 326 920 q 353 960 334 934 q 389 907 389 960 q 301 750 389 750 z "},"":{"ha":566,"x_min":16,"x_max":572,"o":"m 16 186 q 100 428 16 302 q 284 612 177 545 q 397 667 373 667 q 429 647 429 667 q 406 610 429 633 l 408 606 q 422 610 420 610 q 443 590 443 610 q 435 578 443 586 q 427 567 428 570 l 429 561 q 444 566 433 562 q 460 570 455 570 q 469 555 470 570 q 300 418 385 487 q 163 245 210 340 q 140 172 140 201 q 165 158 140 158 q 305 304 204 158 q 416 450 406 450 q 456 412 425 450 q 489 366 484 378 q 476 288 489 340 q 464 211 464 237 q 476 196 464 195 q 520 239 499 210 q 557 288 554 285 l 564 282 q 514 212 564 264 l 519 208 q 546 225 528 214 l 553 218 q 519 176 541 205 l 525 171 q 564 200 537 181 l 570 196 q 549 164 562 186 l 553 161 l 568 165 l 572 161 q 493 71 572 142 q 390 0 414 0 q 338 45 364 0 q 314 115 314 87 q 317 139 314 123 q 321 161 321 154 q 313 176 321 172 q 125 0 172 0 q 40 70 71 0 q 16 186 16 125 m 399 908 q 363 871 376 908 q 353 814 353 843 q 380 768 353 768 q 440 852 440 768 q 399 908 440 908 m 355 710 q 269 806 269 710 q 320 917 269 859 q 423 975 371 975 q 490 949 458 975 q 524 888 524 922 q 470 768 524 825 q 355 710 417 710 z "},"":{"ha":721,"x_min":12,"x_max":708,"o":"m 433 -14 q 302 92 361 -14 q 143 0 193 0 q 41 57 75 0 q 12 176 12 104 q 25 275 12 245 q 94 353 41 312 q 196 422 127 378 q 161 503 194 443 q 127 576 127 562 q 155 608 127 608 q 173 604 161 608 q 191 599 185 600 q 207 632 192 612 q 225 624 219 629 l 231 627 q 225 642 225 636 q 244 653 225 653 q 311 580 272 653 q 359 478 336 529 q 591 653 480 653 q 667 591 627 653 q 704 494 704 534 q 607 332 704 399 q 425 248 558 299 q 496 161 441 161 q 701 261 550 161 l 708 254 q 686 224 700 245 q 704 207 694 220 q 684 176 696 197 l 690 168 l 703 170 l 708 164 q 580 56 672 120 q 433 -14 477 -14 m 163 236 q 215 158 163 158 q 249 168 229 158 q 272 191 272 178 q 258 254 272 193 q 242 318 243 315 q 228 326 239 326 q 182 289 202 315 q 163 236 163 263 m 546 437 q 537 473 546 455 q 511 494 527 494 q 450 410 485 494 q 418 297 418 332 q 463 310 463 299 l 453 332 q 465 345 456 340 q 476 354 473 350 q 460 368 469 356 q 511 396 486 382 q 546 437 546 417 z "},"":{"ha":411,"x_min":16,"x_max":400,"o":"m 16 199 q 74 414 16 300 q 210 593 129 524 q 310 653 279 653 q 380 608 355 653 q 400 524 400 571 q 394 433 400 453 q 389 424 392 424 q 378 439 381 424 q 368 463 376 458 l 358 456 q 361 443 359 452 q 363 429 363 434 q 354 399 363 409 q 336 422 349 408 q 321 390 335 410 q 301 418 316 400 q 289 354 296 410 q 275 347 285 347 q 264 386 264 347 q 261 471 264 444 q 254 494 258 494 q 206 388 233 494 q 182 253 182 292 q 216 175 182 175 q 308 201 259 175 q 390 253 319 207 l 396 249 q 366 212 385 237 l 374 207 q 393 214 385 210 l 399 208 q 361 158 386 192 l 364 154 q 392 167 373 159 l 400 163 q 292 65 378 127 q 163 0 201 0 q 85 40 130 0 q 28 110 47 74 q 16 199 16 132 m 39 -208 q 66 -159 43 -200 q 85 -110 85 -126 q 76 -82 85 -100 q 67 -58 67 -64 q 92 -39 67 -40 q 144 -29 109 -38 q 197 -20 179 -20 q 235 -109 235 -20 q 224 -154 235 -141 q 172 -203 205 -176 q 114 -236 131 -236 q 106 -225 106 -233 q 98 -210 102 -216 l 103 -196 l 98 -189 q 77 -210 87 -200 q 54 -225 62 -225 q 39 -208 39 -225 z "},"":{"ha":463,"x_min":16,"x_max":452,"o":"m 189 0 q 93 39 140 0 q 28 123 52 74 q 16 233 16 149 q 112 501 16 361 q 338 653 216 653 q 412 595 376 653 q 446 500 446 543 q 351 338 446 397 q 165 264 306 309 q 249 167 168 167 q 344 199 281 167 q 428 256 404 229 q 441 265 437 265 q 452 258 449 265 q 421 215 441 244 l 428 211 q 446 225 433 216 l 450 218 q 424 174 440 204 l 428 171 l 443 182 q 450 172 450 179 q 337 73 450 146 q 189 0 224 0 m 296 441 q 284 484 296 460 q 254 511 271 511 q 196 414 229 511 q 165 289 165 326 q 208 309 208 298 q 182 323 199 312 q 207 341 189 332 q 231 355 224 349 q 197 368 217 355 q 254 403 201 372 q 296 441 296 427 m 257 962 q 340 874 293 962 q 380 770 380 796 q 366 749 380 749 q 342 760 355 749 q 322 778 332 769 l 314 772 q 319 739 319 731 q 302 729 319 729 q 217 814 286 729 q 147 916 147 899 q 170 937 147 937 q 207 917 182 930 l 213 922 q 204 946 204 936 q 257 962 204 962 z "},"":{"ha":463,"x_min":16,"x_max":497,"o":"m 189 0 q 93 39 140 0 q 28 123 52 74 q 16 233 16 149 q 112 501 16 361 q 338 653 216 653 q 412 595 376 653 q 446 500 446 543 q 351 338 446 397 q 165 264 306 309 q 249 167 168 167 q 344 199 281 167 q 428 256 404 229 q 441 265 437 265 q 452 258 449 265 q 421 215 441 244 l 428 211 q 446 225 433 216 l 450 218 q 424 174 440 204 l 428 171 l 443 182 q 450 172 450 179 q 337 73 450 146 q 189 0 224 0 m 296 441 q 284 484 296 460 q 254 511 271 511 q 196 414 229 511 q 165 289 165 326 q 208 309 208 298 q 182 323 199 312 q 207 341 189 332 q 231 355 224 349 q 197 368 217 355 q 254 403 201 372 q 296 441 296 427 m 388 962 q 441 946 441 962 q 432 922 441 936 l 437 917 q 475 937 450 924 q 497 916 497 937 q 428 814 497 899 q 343 729 359 729 q 326 739 326 729 q 331 772 326 731 l 322 778 q 279 749 288 749 q 264 770 264 749 q 305 873 264 795 q 388 962 352 962 z "},"":{"ha":463,"x_min":16,"x_max":496,"o":"m 189 0 q 93 39 140 0 q 28 123 52 74 q 16 233 16 149 q 112 501 16 361 q 338 653 216 653 q 412 595 376 653 q 446 500 446 543 q 351 338 446 397 q 165 264 306 309 q 249 167 168 167 q 344 199 281 167 q 428 256 404 229 q 441 265 437 265 q 452 258 449 265 q 421 215 441 244 l 428 211 q 446 225 433 216 l 450 218 q 424 174 440 204 l 428 171 l 443 182 q 450 172 450 179 q 337 73 450 146 q 189 0 224 0 m 296 441 q 284 484 296 460 q 254 511 271 511 q 196 414 229 511 q 165 289 165 326 q 208 309 208 298 q 182 323 199 312 q 207 341 189 332 q 231 355 224 349 q 197 368 217 355 q 254 403 201 372 q 296 441 296 427 m 298 953 q 346 951 314 953 q 396 950 378 950 q 455 865 413 950 q 496 760 496 783 q 446 742 496 742 q 420 747 441 742 q 375 742 381 742 q 343 777 362 751 q 311 811 324 802 q 242 742 291 785 q 209 757 209 742 q 214 775 209 760 l 210 781 q 167 754 170 754 q 156 765 156 754 q 221 866 156 780 q 298 953 287 953 z "},"":{"ha":463,"x_min":16,"x_max":546,"o":"m 189 0 q 93 39 140 0 q 28 123 52 74 q 16 233 16 149 q 112 501 16 361 q 338 653 216 653 q 412 595 376 653 q 446 500 446 543 q 351 338 446 397 q 165 264 306 309 q 249 167 168 167 q 344 199 281 167 q 428 256 404 229 q 441 265 437 265 q 452 258 449 265 q 421 215 441 244 l 428 211 q 446 225 433 216 l 450 218 q 424 174 440 204 l 428 171 l 443 182 q 450 172 450 179 q 337 73 450 146 q 189 0 224 0 m 296 441 q 284 484 296 460 q 254 511 271 511 q 196 414 229 511 q 165 289 165 326 q 208 309 208 298 q 182 323 199 312 q 207 341 189 332 q 231 355 224 349 q 197 368 217 355 q 254 403 201 372 q 296 441 296 427 m 546 907 q 458 750 546 750 q 437 760 439 750 q 439 783 439 752 q 432 800 439 795 q 418 780 420 800 q 401 760 415 760 q 379 810 379 760 q 393 908 379 861 q 453 975 414 975 q 479 962 477 975 q 478 928 480 959 l 484 920 q 510 960 491 934 q 546 907 546 960 m 250 750 q 229 760 231 750 q 231 783 231 752 q 224 800 231 795 q 210 780 212 800 q 193 760 207 760 q 171 810 171 760 q 185 909 171 862 q 245 975 205 975 q 271 962 269 975 q 270 928 272 959 l 275 920 q 302 960 283 934 q 338 907 338 960 q 250 750 338 750 z "},"":{"ha":309,"x_min":28,"x_max":358,"o":"m 140 631 q 154 618 151 631 q 154 593 156 610 q 151 572 151 573 q 157 561 151 564 q 174 592 165 576 q 201 611 185 611 q 223 595 215 611 q 237 571 235 574 q 269 607 246 585 q 281 591 281 607 q 229 402 281 553 q 178 208 178 252 q 187 186 178 186 q 298 261 216 186 l 304 257 q 277 216 294 244 l 282 212 l 297 221 l 302 215 q 281 187 294 207 l 294 180 q 306 153 297 168 q 224 58 306 130 q 117 -14 143 -14 q 50 37 77 -14 q 28 122 28 79 q 40 322 28 276 l 83 486 q 140 631 121 631 m 235 962 q 317 874 271 962 q 358 770 358 796 q 343 749 358 749 q 320 760 333 749 q 300 778 310 769 l 292 772 q 297 739 297 731 q 279 729 297 729 q 194 814 264 729 q 125 916 125 899 q 147 937 125 937 q 184 917 159 930 l 191 922 q 182 946 182 936 q 235 962 182 962 z "},"":{"ha":309,"x_min":28,"x_max":419,"o":"m 140 631 q 154 618 151 631 q 154 593 156 610 q 151 572 151 573 q 157 561 151 564 q 174 592 165 576 q 201 611 185 611 q 223 595 215 611 q 237 571 235 574 q 269 607 246 585 q 281 591 281 607 q 229 402 281 553 q 178 208 178 252 q 187 186 178 186 q 298 261 216 186 l 304 257 q 277 216 294 244 l 282 212 l 297 221 l 302 215 q 281 187 294 207 l 294 180 q 306 153 297 168 q 224 58 306 130 q 117 -14 143 -14 q 50 37 77 -14 q 28 122 28 79 q 40 322 28 276 l 83 486 q 140 631 121 631 m 310 962 q 363 946 363 962 q 354 922 363 936 l 359 917 q 397 937 372 924 q 419 916 419 937 q 350 814 419 899 q 265 729 281 729 q 248 739 248 729 q 253 772 248 731 l 244 778 q 201 749 210 749 q 186 770 186 749 q 227 873 186 795 q 310 962 274 962 z "},"":{"ha":309,"x_min":28,"x_max":418,"o":"m 140 631 q 154 618 151 631 q 154 593 156 610 q 151 572 151 573 q 157 561 151 564 q 174 592 165 576 q 201 611 185 611 q 223 595 215 611 q 237 571 235 574 q 269 607 246 585 q 281 591 281 607 q 229 402 281 553 q 178 208 178 252 q 187 186 178 186 q 298 261 216 186 l 304 257 q 277 216 294 244 l 282 212 l 297 221 l 302 215 q 281 187 294 207 l 294 180 q 306 153 297 168 q 224 58 306 130 q 117 -14 143 -14 q 50 37 77 -14 q 28 122 28 79 q 40 322 28 276 l 83 486 q 140 631 121 631 m 220 953 q 268 951 236 953 q 318 950 300 950 q 377 865 335 950 q 418 760 418 783 q 368 742 418 742 q 342 747 363 742 q 297 742 303 742 q 265 777 284 751 q 233 811 246 802 q 164 742 213 785 q 131 757 131 742 q 136 775 131 760 l 132 781 q 89 754 92 754 q 78 765 78 754 q 143 866 78 780 q 220 953 209 953 z "},"":{"ha":309,"x_min":28,"x_max":468,"o":"m 140 631 q 154 618 151 631 q 154 593 156 610 q 151 572 151 573 q 157 561 151 564 q 174 592 165 576 q 201 611 185 611 q 223 595 215 611 q 237 571 235 574 q 269 607 246 585 q 281 591 281 607 q 229 402 281 553 q 178 208 178 252 q 187 186 178 186 q 298 261 216 186 l 304 257 q 277 216 294 244 l 282 212 l 297 221 l 302 215 q 281 187 294 207 l 294 180 q 306 153 297 168 q 224 58 306 130 q 117 -14 143 -14 q 50 37 77 -14 q 28 122 28 79 q 40 322 28 276 l 83 486 q 140 631 121 631 m 468 907 q 380 750 468 750 q 359 760 361 750 q 361 783 361 752 q 354 800 361 795 q 340 780 342 800 q 323 760 337 760 q 301 810 301 760 q 315 908 301 861 q 375 975 336 975 q 401 962 399 975 q 400 928 402 959 l 406 920 q 432 960 413 934 q 468 907 468 960 m 172 750 q 151 760 153 750 q 153 783 153 752 q 146 800 153 795 q 132 780 134 800 q 115 760 129 760 q 93 810 93 760 q 107 909 93 862 q 167 975 127 975 q 193 962 191 975 q 192 928 194 959 l 197 920 q 224 960 205 934 q 260 907 260 960 q 172 750 260 750 z "},"":{"ha":514,"x_min":16,"x_max":525,"o":"m 178 -14 q 97 29 148 -14 q 32 100 52 67 q 16 196 16 126 q 85 460 16 338 q 159 563 114 511 q 253 632 218 632 q 259 612 257 629 q 265 589 261 595 l 277 595 l 281 585 q 275 561 279 576 l 279 554 q 289 557 289 557 q 298 546 298 557 q 285 511 298 542 q 309 496 294 509 q 237 397 273 446 q 165 214 165 290 q 181 171 165 189 q 221 153 197 153 q 329 280 290 153 q 358 463 358 374 q 322 618 358 513 q 253 751 284 728 q 158 700 222 733 q 109 731 150 703 q 66 765 66 760 q 121 804 66 773 q 189 843 185 840 q 118 935 163 872 q 122 945 118 941 q 132 949 125 949 q 161 929 141 941 l 170 936 q 149 968 162 946 q 158 986 149 986 q 176 981 165 986 q 195 972 190 974 l 200 979 q 187 1000 198 987 q 179 1026 179 1011 q 193 1054 179 1040 q 220 1068 206 1068 q 292 1006 244 1068 q 354 920 323 962 q 423 969 382 936 q 490 1022 475 1011 q 498 1018 496 1022 q 500 1008 500 1014 q 492 979 492 994 q 503 956 492 984 q 496 939 503 946 l 501 926 q 454 879 501 911 q 407 839 407 847 q 466 703 407 850 q 525 481 525 557 q 466 231 525 334 q 290 41 414 138 q 178 -14 220 -14 z "},"":{"ha":541,"x_min":16,"x_max":530,"o":"m 16 172 q 40 444 16 260 q 102 667 70 667 q 117 637 115 667 q 125 593 119 600 q 136 612 127 595 q 153 625 144 625 q 178 568 187 625 l 183 559 q 210 590 189 572 q 228 564 228 590 q 197 441 228 524 q 165 318 165 358 q 172 307 165 311 q 266 442 201 336 q 359 596 356 591 q 408 562 382 596 l 412 549 q 454 486 454 533 q 443 368 454 446 q 431 249 431 289 q 447 236 431 236 q 477 263 455 236 q 507 298 505 297 l 514 292 q 506 279 513 289 q 498 264 498 269 q 503 249 498 256 l 514 256 l 519 249 q 501 211 512 237 l 505 200 q 492 174 500 191 l 497 167 q 519 183 504 173 l 525 175 q 451 81 524 160 q 357 0 376 0 q 307 49 334 0 q 281 121 281 94 q 284 188 281 143 q 288 255 288 233 q 279 277 288 270 q 198 136 278 275 q 119 22 133 22 q 49 81 85 22 q 16 172 16 134 m 372 751 q 283 785 323 751 q 236 818 242 818 q 205 785 227 818 q 162 753 183 753 q 144 772 144 753 l 153 789 l 147 799 q 126 785 141 797 q 102 774 111 774 q 92 794 92 774 q 161 892 121 848 q 261 951 216 951 q 329 914 288 951 q 378 876 370 876 q 418 909 394 876 q 451 942 443 942 q 460 915 457 937 q 469 897 462 897 q 498 921 478 906 l 517 922 q 530 907 530 923 q 471 810 530 868 q 372 751 412 751 z "},"":{"ha":514,"x_min":16,"x_max":498,"o":"m 498 415 q 416 177 498 319 q 240 24 326 24 q 196 35 247 24 l 189 28 q 224 14 202 22 q 160 8 196 8 q 57 79 103 8 q 16 204 16 143 q 256 624 16 467 q 304 610 272 618 l 307 612 q 277 636 297 623 q 336 667 313 667 q 461 575 414 667 q 498 415 498 501 m 349 385 q 332 455 349 420 q 279 498 311 498 q 201 413 235 498 q 174 288 174 342 q 241 157 174 157 q 328 247 298 157 q 349 385 349 311 m 338 962 q 420 874 374 962 q 461 770 461 796 q 446 749 461 749 q 423 760 436 749 q 403 778 413 769 l 395 772 q 400 739 400 731 q 382 729 400 729 q 297 814 367 729 q 228 916 228 899 q 250 937 228 937 q 288 917 262 930 l 294 922 q 285 946 285 936 q 338 962 285 962 z "},"":{"ha":514,"x_min":16,"x_max":522,"o":"m 498 415 q 416 177 498 319 q 240 24 326 24 q 196 35 247 24 l 189 28 q 224 14 202 22 q 160 8 196 8 q 57 79 103 8 q 16 204 16 143 q 256 624 16 467 q 304 610 272 618 l 307 612 q 277 636 297 623 q 336 667 313 667 q 461 575 414 667 q 498 415 498 501 m 349 385 q 332 455 349 420 q 279 498 311 498 q 201 413 235 498 q 174 288 174 342 q 241 157 174 157 q 328 247 298 157 q 349 385 349 311 m 413 962 q 466 946 466 962 q 457 922 466 936 l 463 917 q 500 937 475 924 q 522 916 522 937 q 453 814 522 899 q 368 729 384 729 q 351 739 351 729 q 356 772 351 731 l 347 778 q 304 749 313 749 q 289 770 289 749 q 330 873 289 795 q 413 962 377 962 z "},"":{"ha":514,"x_min":16,"x_max":521,"o":"m 498 415 q 416 177 498 319 q 240 24 326 24 q 196 35 247 24 l 189 28 q 224 14 202 22 q 160 8 196 8 q 57 79 103 8 q 16 204 16 143 q 256 624 16 467 q 304 610 272 618 l 307 612 q 277 636 297 623 q 336 667 313 667 q 461 575 414 667 q 498 415 498 501 m 349 385 q 332 455 349 420 q 279 498 311 498 q 201 413 235 498 q 174 288 174 342 q 241 157 174 157 q 328 247 298 157 q 349 385 349 311 m 323 953 q 371 951 339 953 q 421 950 404 950 q 480 865 438 950 q 521 760 521 783 q 471 742 521 742 q 445 747 467 742 q 400 742 406 742 q 368 777 387 751 q 336 811 349 802 q 267 742 316 785 q 234 757 234 742 q 239 775 234 760 l 235 781 q 192 754 195 754 q 181 765 181 754 q 247 866 181 780 q 323 953 312 953 z "},"":{"ha":514,"x_min":16,"x_max":562,"o":"m 498 415 q 416 177 498 319 q 240 24 326 24 q 196 35 247 24 l 189 28 q 224 14 202 22 q 160 8 196 8 q 57 79 103 8 q 16 204 16 143 q 256 624 16 467 q 304 610 272 618 l 307 612 q 277 636 297 623 q 336 667 313 667 q 461 575 414 667 q 498 415 498 501 m 349 385 q 332 455 349 420 q 279 498 311 498 q 201 413 235 498 q 174 288 174 342 q 241 157 174 157 q 328 247 298 157 q 349 385 349 311 m 403 751 q 314 785 355 751 q 267 818 273 818 q 236 785 258 818 q 193 753 214 753 q 175 772 175 753 l 184 789 l 178 799 q 157 785 172 797 q 134 774 142 774 q 123 794 123 774 q 192 892 152 848 q 292 951 247 951 q 360 914 319 951 q 409 876 401 876 q 450 909 425 876 q 482 942 474 942 q 491 915 488 937 q 500 897 493 897 q 530 921 509 906 l 549 922 q 562 907 562 923 q 502 810 562 868 q 403 751 443 751 z "},"":{"ha":514,"x_min":16,"x_max":571,"o":"m 498 415 q 416 177 498 319 q 240 24 326 24 q 196 35 247 24 l 189 28 q 224 14 202 22 q 160 8 196 8 q 57 79 103 8 q 16 204 16 143 q 256 624 16 467 q 304 610 272 618 l 307 612 q 277 636 297 623 q 336 667 313 667 q 461 575 414 667 q 498 415 498 501 m 349 385 q 332 455 349 420 q 279 498 311 498 q 201 413 235 498 q 174 288 174 342 q 241 157 174 157 q 328 247 298 157 q 349 385 349 311 m 571 907 q 484 750 571 750 q 463 760 465 750 q 464 783 464 752 q 457 800 464 795 q 443 780 446 800 q 427 760 440 760 q 404 810 404 760 q 418 908 404 861 q 478 975 439 975 q 505 962 502 975 q 503 928 505 959 l 509 920 q 535 960 516 934 q 571 907 571 960 m 275 750 q 254 760 256 750 q 256 783 256 752 q 249 800 256 795 q 235 780 237 800 q 218 760 232 760 q 196 810 196 760 q 210 909 196 862 q 270 975 231 975 q 296 962 294 975 q 295 928 297 959 l 300 920 q 327 960 308 934 q 363 907 363 960 q 275 750 363 750 z "},"":{"ha":514,"x_min":-46,"x_max":559,"o":"m 279 498 q 201 413 235 498 q 174 288 174 342 l 175 273 l 328 463 q 279 498 298 498 m 241 157 q 326 243 297 157 q 349 378 347 305 l 346 380 q 273 282 327 345 q 192 189 233 236 q 241 157 210 157 m 81 53 l 7 -33 q -1 -14 6 -33 l -12 -17 q -26 0 -14 -10 l -39 -1 l -46 3 l 39 107 q 16 204 16 146 q 256 624 16 467 q 304 610 272 618 l 307 612 q 277 636 297 623 q 336 667 313 667 q 440 600 385 667 q 511 686 466 627 l 522 677 q 505 646 515 667 l 509 644 q 539 669 518 653 l 543 667 q 530 640 539 658 l 533 636 q 555 654 541 642 l 559 648 q 481 543 533 610 q 498 415 498 510 q 415 176 498 318 q 240 24 325 24 q 196 35 247 24 l 189 28 q 224 14 189 28 q 160 8 196 8 q 81 53 125 8 z "},"":{"ha":541,"x_min":16,"x_max":541,"o":"m 98 29 q 40 84 68 29 q 16 168 16 133 q 42 434 16 260 q 115 653 75 653 q 143 627 136 653 q 139 606 142 621 q 136 585 136 592 q 142 571 136 575 q 167 603 147 583 q 197 586 191 599 q 187 546 197 583 l 196 539 q 220 564 202 549 q 237 545 237 564 q 193 416 237 526 q 149 261 149 306 q 163 241 149 241 q 279 395 184 241 q 396 586 337 490 q 429 568 422 586 q 439 542 438 543 q 456 545 453 545 q 484 535 469 545 q 498 513 498 525 q 463 385 498 493 q 428 220 428 276 q 437 203 428 203 q 485 231 450 203 q 530 271 507 251 q 538 261 538 268 q 529 246 538 258 q 519 222 519 234 q 492 189 510 212 l 497 183 q 525 195 506 188 l 532 191 q 519 171 531 188 l 524 167 l 536 174 q 541 163 541 170 q 459 72 541 144 q 359 0 378 0 q 298 41 337 0 q 310 92 310 75 l 306 98 q 283 58 300 84 q 265 102 265 58 q 272 151 265 118 q 278 200 278 183 l 273 208 q 189 105 231 157 q 98 29 125 29 m 285 962 q 368 874 321 962 q 408 770 408 796 q 393 749 408 749 q 370 760 383 749 q 350 778 360 769 l 342 772 q 347 739 347 731 q 330 729 347 729 q 244 814 314 729 q 175 916 175 899 q 197 937 175 937 q 235 917 210 930 l 241 922 q 232 946 232 936 q 285 962 232 962 z "},"":{"ha":541,"x_min":16,"x_max":541,"o":"m 98 29 q 40 84 68 29 q 16 168 16 133 q 42 434 16 260 q 115 653 75 653 q 143 627 136 653 q 139 606 142 621 q 136 585 136 592 q 142 571 136 575 q 167 603 147 583 q 197 586 191 599 q 187 546 197 583 l 196 539 q 220 564 202 549 q 237 545 237 564 q 193 416 237 526 q 149 261 149 306 q 163 241 149 241 q 279 395 184 241 q 396 586 337 490 q 429 568 422 586 q 439 542 438 543 q 456 545 453 545 q 484 535 469 545 q 498 513 498 525 q 463 385 498 493 q 428 220 428 276 q 437 203 428 203 q 485 231 450 203 q 530 271 507 251 q 538 261 538 268 q 529 246 538 258 q 519 222 519 234 q 492 189 510 212 l 497 183 q 525 195 506 188 l 532 191 q 519 171 531 188 l 524 167 l 536 174 q 541 163 541 170 q 459 72 541 144 q 359 0 378 0 q 298 41 337 0 q 310 92 310 75 l 306 98 q 283 58 300 84 q 265 102 265 58 q 272 151 265 118 q 278 200 278 183 l 273 208 q 189 105 231 157 q 98 29 125 29 m 360 962 q 413 946 413 962 q 404 922 413 936 l 410 917 q 448 937 422 924 q 469 916 469 937 q 400 814 469 899 q 315 729 331 729 q 298 739 298 729 q 303 772 298 731 l 294 778 q 252 749 260 749 q 236 770 236 749 q 277 873 236 795 q 360 962 324 962 z "},"":{"ha":541,"x_min":16,"x_max":541,"o":"m 98 29 q 40 84 68 29 q 16 168 16 133 q 42 434 16 260 q 115 653 75 653 q 143 627 136 653 q 139 606 142 621 q 136 585 136 592 q 142 571 136 575 q 167 603 147 583 q 197 586 191 599 q 187 546 197 583 l 196 539 q 220 564 202 549 q 237 545 237 564 q 193 416 237 526 q 149 261 149 306 q 163 241 149 241 q 279 395 184 241 q 396 586 337 490 q 429 568 422 586 q 439 542 438 543 q 456 545 453 545 q 484 535 469 545 q 498 513 498 525 q 463 385 498 493 q 428 220 428 276 q 437 203 428 203 q 485 231 450 203 q 530 271 507 251 q 538 261 538 268 q 529 246 538 258 q 519 222 519 234 q 492 189 510 212 l 497 183 q 525 195 506 188 l 532 191 q 519 171 531 188 l 524 167 l 536 174 q 541 163 541 170 q 459 72 541 144 q 359 0 378 0 q 298 41 337 0 q 310 92 310 75 l 306 98 q 283 58 300 84 q 265 102 265 58 q 272 151 265 118 q 278 200 278 183 l 273 208 q 189 105 231 157 q 98 29 125 29 m 270 953 q 318 951 286 953 q 368 950 351 950 q 427 865 385 950 q 468 760 468 783 q 418 742 468 742 q 392 747 414 742 q 347 742 353 742 q 315 777 334 751 q 283 811 296 802 q 214 742 263 785 q 181 757 181 742 q 186 775 181 760 l 182 781 q 139 754 142 754 q 128 765 128 754 q 194 866 128 780 q 270 953 259 953 z "},"":{"ha":541,"x_min":16,"x_max":541,"o":"m 98 29 q 40 84 68 29 q 16 168 16 133 q 42 434 16 260 q 115 653 75 653 q 143 627 136 653 q 139 606 142 621 q 136 585 136 592 q 142 571 136 575 q 167 603 147 583 q 197 586 191 599 q 187 546 197 583 l 196 539 q 220 564 202 549 q 237 545 237 564 q 193 416 237 526 q 149 261 149 306 q 163 241 149 241 q 279 395 184 241 q 396 586 337 490 q 429 568 422 586 q 439 542 438 543 q 456 545 453 545 q 484 535 469 545 q 498 513 498 525 q 463 385 498 493 q 428 220 428 276 q 437 203 428 203 q 485 231 450 203 q 530 271 507 251 q 538 261 538 268 q 529 246 538 258 q 519 222 519 234 q 492 189 510 212 l 497 183 q 525 195 506 188 l 532 191 q 519 171 531 188 l 524 167 l 536 174 q 541 163 541 170 q 459 72 541 144 q 359 0 378 0 q 298 41 337 0 q 310 92 310 75 l 306 98 q 283 58 300 84 q 265 102 265 58 q 272 151 265 118 q 278 200 278 183 l 273 208 q 189 105 231 157 q 98 29 125 29 m 518 907 q 431 750 518 750 q 410 760 412 750 q 411 783 411 752 q 404 800 411 795 q 390 780 393 800 q 374 760 387 760 q 351 810 351 760 q 366 908 351 861 q 425 975 387 975 q 452 962 449 975 q 450 928 452 959 l 456 920 q 482 960 463 934 q 518 907 518 960 m 222 750 q 201 760 203 750 q 203 783 203 752 q 196 800 203 795 q 182 780 184 800 q 165 760 179 760 q 143 810 143 760 q 157 909 143 862 q 217 975 178 975 q 243 962 241 975 q 242 928 244 959 l 248 920 q 274 960 255 934 q 310 907 310 960 q 222 750 310 750 z "},"":{"ha":514,"x_min":28,"x_max":515,"o":"m 168 -187 l 178 -183 q 282 167 210 -107 l 279 167 q 197 80 239 123 q 109 18 135 18 q 55 56 83 18 q 28 121 28 93 q 93 576 28 284 q 127 653 110 653 q 143 575 151 653 l 149 575 q 170 612 153 612 q 193 595 193 612 q 188 578 193 589 q 183 564 183 567 q 196 553 183 552 q 216 570 202 559 l 222 568 l 214 522 q 231 536 224 522 q 243 557 240 555 q 254 542 254 557 q 216 389 254 503 q 178 218 178 275 q 192 201 178 201 q 302 373 218 201 q 399 590 373 517 q 421 596 406 596 q 454 582 435 596 q 479 554 472 568 q 475 532 479 549 q 472 510 472 518 q 481 490 472 496 q 507 525 488 503 q 515 497 515 515 q 497 384 515 454 q 467 273 482 328 q 404 59 431 133 q 306 -136 369 -33 q 286 -167 293 -157 q 258 -189 269 -189 q 254 -151 252 -186 l 250 -144 l 244 -150 q 210 -218 234 -187 q 147 -257 180 -257 q 109 -175 109 -257 q 133 -66 109 -140 q 183 17 160 16 l 192 9 q 168 -52 183 -13 l 172 -57 q 191 -43 178 -52 l 193 -50 q 171 -115 182 -83 q 158 -182 158 -153 l 168 -187 m 346 962 q 399 946 399 962 q 390 922 399 936 l 395 917 q 433 937 408 924 q 455 916 455 937 q 386 814 455 899 q 301 729 317 729 q 283 739 283 729 q 289 772 283 731 l 280 778 q 237 749 245 749 q 222 770 222 749 q 263 873 222 795 q 346 962 310 962 z "},"":{"ha":566,"x_min":41,"x_max":536,"o":"m 536 400 q 519 250 536 327 q 463 111 498 159 q 326 -14 368 -14 q 269 57 295 -14 q 248 155 248 116 q 264 176 248 177 q 291 202 273 182 q 311 231 309 222 q 326 253 317 253 q 347 195 337 253 q 371 136 356 136 q 386 239 386 136 q 350 433 386 433 q 262 318 311 433 q 207 5 207 191 q 208 -86 207 -24 q 210 -182 210 -149 q 201 -275 210 -244 q 150 -248 176 -275 q 131 -186 147 -223 q 113 -218 127 -198 q 100 -187 102 -218 q 93 -149 96 -153 q 68 -175 86 -159 q 45 -109 47 -175 q 41 186 41 -33 q 65 562 41 351 q 130 936 90 790 q 186 1048 159 1048 q 205 1038 205 1048 q 201 1021 205 1032 q 197 1004 197 1010 q 203 994 197 997 q 222 1004 205 995 q 240 1011 235 1011 q 266 995 262 1011 q 267 962 267 994 q 272 953 267 956 q 293 970 278 960 q 310 943 310 970 q 296 857 310 912 q 275 770 278 787 q 233 435 248 597 l 236 435 q 305 535 300 529 q 396 600 358 600 q 507 533 469 600 q 536 400 536 479 z "},"":{"ha":514,"x_min":28,"x_max":515,"o":"m 168 -187 l 178 -183 q 282 167 210 -107 l 279 167 q 197 80 239 123 q 109 18 135 18 q 55 56 83 18 q 28 121 28 93 q 93 576 28 284 q 127 653 110 653 q 143 575 151 653 l 149 575 q 170 612 153 612 q 193 595 193 612 q 188 578 193 589 q 183 564 183 567 q 196 553 183 552 q 216 570 202 559 l 222 568 l 214 522 q 231 536 224 522 q 243 557 240 555 q 254 542 254 557 q 216 389 254 503 q 178 218 178 275 q 192 201 178 201 q 302 373 218 201 q 399 590 373 517 q 421 596 406 596 q 454 582 435 596 q 479 554 472 568 q 475 532 479 549 q 472 510 472 518 q 481 490 472 496 q 507 525 488 503 q 515 497 515 515 q 497 384 515 454 q 467 273 482 328 q 404 59 431 133 q 306 -136 369 -33 q 286 -167 293 -157 q 258 -189 269 -189 q 254 -151 252 -186 l 250 -144 l 244 -150 q 210 -218 234 -187 q 147 -257 180 -257 q 109 -175 109 -257 q 133 -66 109 -140 q 183 17 160 16 l 192 9 q 168 -52 183 -13 l 172 -57 q 191 -43 178 -52 l 193 -50 q 171 -115 182 -83 q 158 -182 158 -153 l 168 -187 m 504 907 q 416 750 504 750 q 395 760 397 750 q 397 783 397 752 q 390 800 397 795 q 376 780 378 800 q 359 760 373 760 q 337 810 337 760 q 351 908 337 861 q 411 975 372 975 q 437 962 435 975 q 436 928 438 959 l 441 920 q 468 960 449 934 q 504 907 504 960 m 208 750 q 187 760 189 750 q 189 783 189 752 q 182 800 189 795 q 168 780 170 800 q 151 760 165 760 q 129 810 129 760 q 143 909 129 862 q 203 975 163 975 q 229 962 227 975 q 228 928 230 959 l 233 920 q 260 960 241 934 q 296 907 296 960 q 208 750 296 750 z "},"":{"ha":772,"x_min":-33,"x_max":761,"o":"m 761 464 q 611 123 761 279 q 295 -94 493 0 q 129 -158 159 -158 q 114 -144 113 -158 q 146 -115 130 -136 q 136 -110 143 -110 q 111 -117 130 -110 q 82 -127 88 -126 q 57 -75 76 -125 q 68 -60 63 -69 l 60 -56 l 43 -58 l 37 -47 q 97 -11 55 -32 q 138 39 130 5 q 179 253 154 110 q 17 180 40 180 q -11 196 -11 180 q 0 210 -6 205 q -17 221 -4 217 q -33 231 -29 226 q -16 245 -27 235 l -24 260 q 1 278 -14 264 l -5 289 q 199 366 85 322 q 262 665 207 413 q 293 764 283 764 q 307 751 306 764 q 306 729 306 765 q 318 708 306 711 q 345 708 317 708 q 361 671 361 708 q 391 653 361 659 q 421 629 421 647 q 408 538 421 595 q 386 449 397 494 q 463 480 412 458 q 492 493 486 493 q 505 489 501 493 q 494 475 500 483 q 522 456 505 471 q 518 429 521 447 q 549 411 530 427 q 455 372 519 395 q 363 334 392 349 q 335 224 349 279 q 318 111 318 155 q 330 100 318 100 q 414 150 355 100 q 578 447 578 289 q 412 724 578 589 q 119 904 319 798 q 82 930 94 918 q 100 945 89 935 q 71 970 88 951 q 94 1010 71 995 l 110 1007 l 115 1014 q 110 1036 110 1029 q 126 1067 110 1047 l 117 1086 q 129 1097 116 1097 q 329 985 159 1097 q 528 848 428 916 q 716 646 659 762 q 761 464 761 556 z "},"":{"ha":514,"x_min":16,"x_max":525,"o":"m 178 -14 q 97 29 148 -14 q 32 100 52 67 q 16 196 16 126 q 85 460 16 338 q 159 563 114 511 q 253 632 218 632 q 259 612 257 629 q 265 589 261 595 l 277 595 l 281 585 q 275 561 279 576 l 279 554 q 289 557 289 557 q 298 546 298 557 q 285 511 298 542 q 309 496 294 509 q 237 397 273 446 q 165 214 165 290 q 181 171 165 189 q 221 153 197 153 q 329 280 290 153 q 358 463 358 374 q 322 618 358 513 q 253 751 284 728 q 158 700 222 733 q 109 731 150 703 q 66 765 66 760 q 121 804 66 773 q 189 843 185 840 q 118 935 163 872 q 122 945 118 941 q 132 949 125 949 q 161 929 141 941 l 170 936 q 149 968 162 946 q 158 986 149 986 q 176 981 165 986 q 195 972 190 974 l 200 979 q 187 1000 198 987 q 179 1026 179 1011 q 193 1054 179 1040 q 220 1068 206 1068 q 292 1006 244 1068 q 354 920 323 962 q 423 969 382 936 q 490 1022 475 1011 q 498 1018 496 1022 q 500 1008 500 1014 q 492 979 492 994 q 503 956 492 984 q 496 939 503 946 l 501 926 q 454 879 501 911 q 407 839 407 847 q 466 703 407 850 q 525 481 525 557 q 466 231 525 334 q 290 41 414 138 q 178 -14 220 -14 z "},"":{"ha":309,"x_min":28,"x_max":306,"o":"m 140 631 q 154 618 151 631 q 154 593 156 610 q 151 572 151 573 q 157 561 151 564 q 174 592 165 576 q 201 611 185 611 q 223 595 215 611 q 237 571 235 574 q 269 607 246 585 q 281 591 281 607 q 229 402 281 553 q 178 208 178 252 q 187 186 178 186 q 298 261 216 186 l 304 257 q 277 216 294 244 l 282 212 l 297 221 l 302 215 q 281 187 294 207 l 294 180 q 306 153 297 168 q 224 58 306 130 q 117 -14 143 -14 q 50 37 77 -14 q 28 122 28 79 q 40 322 28 276 l 83 486 q 140 631 121 631 z "},"":{"ha":668,"x_min":-25,"x_max":663,"o":"m 196 534 l 306 1060 q 338 1097 313 1097 q 353 1081 348 1097 q 364 1057 360 1061 q 376 1062 368 1058 q 387 1067 385 1067 q 400 1047 400 1067 q 397 1036 400 1044 q 395 1025 395 1028 q 403 1015 395 1018 q 435 1039 412 1023 q 460 1014 441 1029 q 472 1018 472 1018 q 489 997 489 1018 q 399 616 489 998 q 498 661 414 624 q 583 697 581 697 q 597 693 593 697 q 586 679 591 687 q 614 660 597 675 q 610 633 612 651 q 640 615 621 631 q 507 557 593 590 q 371 503 404 518 q 302 200 345 402 l 295 155 q 290 138 292 144 q 298 126 291 130 q 390 150 329 136 q 483 165 452 159 q 574 189 534 175 q 643 203 611 203 q 656 193 656 203 q 642 176 648 186 q 655 164 648 170 q 663 149 663 158 q 642 128 663 140 q 612 110 616 113 q 634 97 618 102 q 656 85 650 92 q 635 54 648 75 q 648 46 635 54 q 656 32 656 42 q 603 12 656 21 q 379 -32 594 11 q 22 -92 78 -92 q -1 -82 -1 -92 q 12 -64 -1 -71 q 31 -50 27 -56 q 8 -32 22 -45 q 32 -12 18 -27 q 12 -5 30 -11 q -1 8 -1 0 q 6 19 -1 13 q 14 26 13 26 q 2 34 12 30 q -7 46 -7 39 q 19 64 -7 58 q 72 79 58 73 q 114 132 103 96 q 147 279 130 189 q 174 428 160 353 q 26 364 46 364 q -1 379 -1 364 q 9 393 3 388 q -25 406 -3 394 q -7 421 -18 410 q -16 435 -12 427 q 9 453 -6 439 l 3 464 q 96 500 26 479 q 196 534 181 528 z "},"":{"ha":335,"x_min":-109,"x_max":453,"o":"m 139 -14 q 77 32 108 -14 q 39 104 71 42 q 28 231 28 125 q 47 399 28 284 q -64 351 -52 351 q -86 364 -86 351 q -78 376 -82 371 q -109 386 -90 377 q -93 399 -103 390 l -100 411 q -79 427 -92 415 l -85 436 q -14 465 -60 450 q 61 489 53 486 q 112 767 91 663 q 180 1033 154 979 q 222 1064 195 1064 q 239 1044 239 1064 q 236 1027 239 1038 q 233 1010 233 1015 q 240 1000 233 1003 q 250 1021 241 1002 q 264 1035 255 1035 q 277 1020 275 1035 q 285 997 279 1001 q 301 1007 295 1001 q 351 924 326 1007 q 372 814 372 852 q 343 654 372 654 q 323 722 326 654 q 306 790 321 790 q 263 687 288 790 q 237 561 250 624 q 406 636 393 636 q 416 632 413 636 q 408 621 412 627 q 431 604 417 617 l 428 581 q 453 566 438 578 q 218 467 438 558 q 186 212 186 314 q 204 186 186 186 q 330 262 245 186 l 335 257 q 314 221 327 246 q 322 200 317 209 q 313 180 318 189 l 317 178 q 330 182 333 182 q 343 171 343 182 q 255 65 343 143 q 139 -14 168 -14 z "},"":{"ha":1132,"x_min":61,"x_max":1139,"o":"m 61 275 q 189 693 61 480 q 496 1007 315 903 q 648 1083 628 1083 q 661 1071 662 1083 q 629 1039 650 1061 q 650 1031 637 1038 l 646 1008 q 849 1059 747 1034 q 1051 1093 994 1093 q 1063 1086 1059 1093 l 1053 1067 l 1061 1061 q 1088 1067 1068 1062 q 1116 1071 1106 1071 q 1128 1060 1128 1071 q 1105 1046 1122 1053 q 1082 1034 1088 1040 q 1125 1019 1097 1031 q 1078 956 1125 981 q 1093 951 1084 949 q 1108 956 1108 956 q 1118 945 1118 956 q 1113 940 1118 942 q 1008 918 1077 933 q 832 879 950 905 q 790 610 787 724 l 790 603 q 935 657 794 604 q 1069 697 1043 697 q 1084 684 1084 697 q 1067 665 1084 675 q 1043 648 1046 652 q 1074 639 1055 648 q 1050 619 1074 630 q 1017 600 1021 606 q 1034 595 1022 595 q 1058 597 1042 595 q 1084 600 1075 600 q 1093 589 1094 600 q 1072 576 1087 581 q 1048 568 1061 572 q 1076 543 1059 562 q 1053 524 1076 532 q 906 480 1013 509 q 761 432 812 456 q 729 201 729 232 q 1114 283 1067 283 q 1139 252 1139 283 q 1084 200 1139 225 q 1094 194 1087 195 q 1107 195 1098 193 q 1118 196 1116 196 q 1131 184 1131 196 q 1114 169 1131 171 q 1088 163 1091 165 q 1097 147 1089 159 q 1103 131 1103 138 q 1057 100 1103 108 q 543 28 671 28 q 525 45 525 28 q 541 121 525 55 l 538 123 q 433 27 457 43 q 298 -14 374 -14 q 127 84 200 -14 q 61 275 61 174 m 579 410 q 520 397 559 410 q 463 385 481 385 q 441 419 451 385 q 457 435 444 431 q 429 442 454 437 q 410 458 410 446 q 431 477 410 470 q 461 486 446 481 q 440 494 456 492 q 418 503 424 496 q 596 549 446 515 q 619 690 608 619 q 632 831 632 774 q 612 864 632 864 q 471 771 564 864 q 313 557 379 678 q 236 306 236 417 q 341 153 236 153 q 499 241 423 153 q 579 410 570 324 z "},"":{"ha":772,"x_min":4,"x_max":768,"o":"m 336 366 q 321 440 336 404 q 269 486 302 486 q 194 399 230 486 q 163 273 163 323 q 239 158 163 158 q 311 243 281 158 q 336 366 336 311 m 561 511 q 510 427 547 511 q 472 321 472 342 q 481 309 472 313 q 509 326 503 313 q 501 345 505 334 q 522 363 509 349 q 513 379 517 370 q 566 406 539 393 q 599 449 599 424 q 587 488 599 465 q 561 511 574 511 m 339 653 q 410 621 375 653 q 463 561 416 615 q 540 620 501 591 q 629 653 589 653 q 718 594 676 653 q 757 490 757 540 q 725 405 757 453 q 610 317 689 350 q 478 257 498 271 q 500 192 478 219 q 562 163 525 163 q 663 209 606 163 q 753 273 730 265 l 758 267 q 741 243 751 259 q 760 224 748 237 q 743 193 753 214 l 750 186 l 760 187 l 768 180 q 680 90 768 156 q 560 14 603 33 q 493 0 532 0 q 408 38 448 0 q 343 109 376 73 q 262 32 292 52 q 157 0 215 0 q 73 38 117 0 q 14 126 28 75 q 4 233 4 162 q 116 494 4 344 q 339 653 234 653 z "},"":{"ha":616,"x_min":52,"x_max":652,"o":"m 648 1083 q 621 1056 648 1071 q 593 1034 593 1042 q 599 1023 593 1025 q 612 1023 603 1021 q 625 1025 624 1025 q 635 1015 635 1025 q 617 994 635 1006 q 599 972 599 982 l 606 964 l 621 968 l 627 961 q 610 946 621 957 q 619 936 609 936 q 632 939 623 936 q 644 943 641 943 l 652 935 q 431 774 538 864 q 278 574 278 643 q 319 542 278 542 q 419 561 352 542 q 521 579 486 579 q 581 533 557 579 q 600 454 600 494 q 227 -31 600 239 q 78 -121 102 -121 q 52 -86 52 -121 q 64 -61 52 -73 q 83 -39 81 -45 l 82 -26 l 86 -11 q 64 -8 82 -3 l 56 0 q 71 27 56 14 q 94 49 82 38 l 89 54 q 79 49 87 54 q 69 45 72 45 q 56 60 56 45 q 143 136 56 75 q 304 257 262 220 q 392 385 392 334 q 366 400 392 400 q 303 388 345 400 q 239 375 261 375 q 136 428 173 375 q 103 543 103 475 q 276 872 103 693 q 587 1101 425 1027 q 625 1111 608 1111 q 648 1083 648 1111 m 446 1095 q 397 1096 429 1095 q 349 1097 365 1097 q 288 1183 330 1097 q 247 1290 247 1265 q 297 1305 247 1305 q 323 1300 301 1305 q 368 1305 361 1305 q 399 1271 380 1297 q 432 1236 418 1245 q 501 1305 452 1262 q 534 1290 534 1305 q 529 1272 534 1289 l 533 1267 q 576 1293 573 1293 q 587 1282 587 1293 q 522 1181 587 1267 q 446 1095 456 1095 z "},"":{"ha":411,"x_min":21,"x_max":463,"o":"m 28 310 q 149 503 28 395 q 346 646 209 555 q 389 667 378 667 q 403 648 404 667 q 371 612 399 640 l 376 604 q 392 608 393 608 q 404 597 405 608 q 380 579 398 589 q 357 561 363 570 q 373 554 361 555 q 390 547 386 553 l 386 522 q 399 494 399 505 q 288 405 399 483 q 178 309 178 327 q 199 298 178 298 q 249 304 215 298 q 300 310 283 310 q 360 283 338 310 q 382 216 382 256 q 258 15 382 117 q 37 -83 140 -83 q 21 -47 20 -83 q 66 -18 22 -46 l 64 -14 q 47 -16 53 -16 q 22 3 22 -16 q 25 34 22 12 q 26 65 28 52 q 119 111 73 88 q 191 165 191 146 q 108 179 148 179 q 81 178 97 179 q 61 176 66 176 q 33 199 39 176 q 28 310 28 222 m 321 745 q 272 746 304 745 q 224 747 240 747 q 163 833 205 747 q 122 940 122 916 q 172 956 122 956 q 199 950 176 956 q 243 956 237 956 q 275 921 256 947 q 307 886 294 895 q 376 956 328 912 q 410 940 410 956 q 404 922 410 939 l 408 917 q 452 943 448 943 q 463 932 463 943 q 397 831 463 918 q 321 745 332 745 z "},"":{"ha":772,"x_min":75,"x_max":895,"o":"m 275 800 q 226 758 255 787 q 178 713 193 724 q 150 726 150 713 q 155 751 150 718 l 147 755 l 126 745 l 122 751 q 138 783 138 782 l 129 787 q 83 746 113 767 q 75 755 75 749 q 237 942 75 772 q 419 1111 399 1111 q 467 1051 450 1111 q 452 997 460 1034 l 458 989 q 481 1011 465 998 q 492 985 492 1011 q 448 769 492 958 q 393 545 420 657 q 374 474 384 509 q 363 403 363 429 q 372 387 363 387 q 539 609 402 412 q 681 793 667 793 q 709 776 690 793 q 735 724 735 751 q 733 699 735 717 q 732 669 732 682 q 741 654 732 661 q 749 670 745 659 q 757 685 752 681 l 762 677 q 753 588 762 659 q 705 235 715 286 q 575 -93 664 31 l 570 -86 q 575 -50 572 -74 l 571 -41 q 526 -138 549 -90 q 422 -229 479 -229 q 382 -157 382 -229 q 407 33 382 -85 q 472 203 436 169 q 479 191 479 199 q 468 152 479 181 q 452 111 452 113 l 457 104 q 478 123 463 112 l 484 114 q 461 23 483 85 q 440 -72 440 -39 q 458 -113 440 -113 q 479 -95 471 -106 q 534 170 487 -84 q 582 437 582 419 q 575 447 582 444 q 420 264 564 446 q 250 82 275 82 q 208 106 231 82 q 174 147 191 127 l 172 157 q 180 192 172 159 l 172 197 q 150 183 165 191 l 143 192 q 271 726 144 265 q 285 787 285 777 q 275 800 285 801 m 895 1213 q 807 1056 895 1056 q 786 1066 788 1056 q 787 1089 787 1058 q 781 1106 787 1101 q 766 1086 769 1106 q 750 1065 764 1065 q 728 1116 728 1065 q 742 1214 728 1166 q 802 1281 763 1281 q 828 1267 825 1281 q 827 1234 829 1265 l 832 1225 q 859 1265 840 1240 q 895 1213 895 1265 m 599 1056 q 578 1066 580 1056 q 579 1089 579 1058 q 572 1106 579 1101 q 558 1086 561 1106 q 542 1065 555 1065 q 519 1116 519 1065 q 534 1215 519 1168 q 593 1281 554 1281 q 620 1267 617 1281 q 618 1234 621 1265 l 624 1225 q 650 1265 631 1240 q 686 1213 686 1265 q 599 1056 686 1056 z "},"":{"ha":848,"x_min":61,"x_max":843,"o":"m 165 437 q 153 449 166 449 q 119 443 148 449 q 94 476 94 451 q 115 496 102 480 l 109 502 q 92 501 103 502 q 77 500 81 500 q 61 510 61 500 q 138 534 61 519 q 226 551 182 543 q 406 591 286 565 q 488 755 424 625 q 561 911 561 901 q 443 929 561 929 q 377 933 421 929 q 311 937 333 937 q 272 935 298 937 q 233 933 246 933 q 202 949 214 933 q 191 983 191 964 q 210 1015 191 1008 q 243 1029 239 1025 q 219 1042 239 1034 q 205 1068 205 1048 q 218 1098 205 1086 q 249 1111 231 1111 q 447 1090 254 1111 q 783 1071 557 1087 q 823 1028 823 1066 q 728 836 823 1010 q 632 648 632 663 q 643 642 635 642 q 726 673 648 642 q 825 704 803 704 q 843 686 843 704 q 827 662 843 673 q 802 644 804 647 q 824 633 806 638 q 840 623 840 629 q 824 600 840 614 q 802 578 805 583 l 806 574 q 832 581 814 576 q 840 571 840 578 q 699 510 840 551 q 524 458 526 460 q 390 210 477 376 q 407 197 390 197 q 503 211 442 197 q 599 232 551 221 q 703 254 651 243 q 808 267 767 267 q 829 249 829 267 q 807 228 829 234 q 785 211 785 222 q 804 199 788 205 q 817 186 817 195 q 782 153 817 176 l 787 143 q 808 146 804 146 q 822 129 822 146 q 789 96 822 102 q 350 27 652 67 q 109 0 146 0 q 87 22 87 0 q 100 43 87 38 q 123 53 123 52 q 105 62 123 61 q 87 72 87 63 q 100 93 87 85 q 119 109 117 104 q 108 117 119 110 q 102 129 102 121 q 136 165 102 151 q 189 184 162 175 q 252 299 193 189 q 315 418 311 408 l 307 427 q 231 410 298 425 q 154 399 182 399 q 138 411 138 399 q 165 437 148 418 m 585 1153 q 536 1154 568 1153 q 488 1156 504 1156 q 427 1241 469 1156 q 386 1348 386 1324 q 436 1364 386 1364 q 463 1358 440 1364 q 507 1364 500 1364 q 538 1329 519 1355 q 571 1295 557 1303 q 640 1364 591 1320 q 673 1348 673 1364 q 668 1331 673 1347 l 672 1325 q 715 1352 712 1352 q 726 1340 726 1352 q 661 1239 726 1326 q 585 1153 595 1153 z "},"":{"ha":463,"x_min":16,"x_max":489,"o":"m 260 0 q 143 52 229 0 q 47 103 58 103 q 16 129 16 103 q 17 194 16 151 q 18 258 18 237 q 119 343 18 270 q 240 437 228 423 q 147 478 240 446 q 54 521 54 509 q 66 559 54 536 q 93 586 80 586 q 110 583 98 586 q 126 581 121 581 q 138 585 134 581 q 81 619 116 593 q 106 667 81 667 q 275 605 119 667 q 446 532 431 543 q 453 510 453 526 q 435 476 453 484 q 444 456 444 467 q 332 339 444 429 q 184 224 258 281 q 232 193 184 213 q 293 175 277 175 q 450 265 368 175 l 456 257 q 425 218 445 245 l 432 214 q 446 222 437 218 l 454 215 q 433 192 447 208 q 441 175 437 182 q 415 139 432 163 l 421 132 q 449 147 430 138 l 456 143 q 376 57 455 114 q 260 0 297 0 m 347 722 q 299 724 331 722 q 250 725 267 725 q 190 810 232 725 q 149 918 149 893 q 199 933 149 933 q 225 928 203 933 q 269 933 263 933 q 301 899 282 924 q 334 864 320 873 q 403 933 354 890 q 436 918 436 933 q 431 900 436 916 l 435 895 q 478 921 475 921 q 489 909 489 921 q 424 809 489 895 q 347 722 358 722 z "},"":{"ha":644,"x_min":0,"x_max":717,"o":"m 596 1050 q 673 989 628 1050 q 717 899 717 932 q 709 769 717 834 q 671 663 697 663 q 652 682 665 670 q 611 639 640 666 q 590 660 606 648 q 566 635 579 653 q 545 610 553 616 q 536 625 536 614 q 556 714 536 640 q 575 825 575 787 q 550 859 575 859 q 371 395 486 859 q 494 419 410 395 q 610 444 578 444 q 619 436 616 444 q 578 403 604 427 q 584 393 578 400 q 590 382 590 386 l 590 376 q 568 358 581 372 q 579 338 573 347 q 568 323 579 330 q 550 313 552 315 q 554 293 554 290 q 458 269 554 281 q 340 248 419 262 q 261 -131 305 109 q 243 -171 254 -171 q 227 -149 239 -162 q 192 -186 216 -167 l 180 -176 q 132 -227 167 -195 q 121 -210 130 -220 q 79 -236 108 -220 q 69 -228 74 -235 l 69 -221 q 102 -91 81 -177 q 167 211 130 31 q 115 201 149 211 q 62 192 80 192 q 49 205 49 192 q 57 218 49 211 q 65 229 65 226 q 45 239 65 237 q 25 252 25 241 q 45 277 33 258 q 22 286 39 283 q 0 296 5 289 q 16 309 0 304 q 191 350 43 316 q 328 765 267 628 q 596 1050 454 1050 z "},"":{"ha":309,"x_min":78,"x_max":418,"o":"m 220 953 q 268 951 236 953 q 318 950 300 950 q 377 865 335 950 q 418 760 418 783 q 368 742 418 742 q 342 747 363 742 q 297 742 303 742 q 265 777 284 751 q 233 811 246 802 q 164 742 213 785 q 131 757 131 742 q 136 775 131 760 l 132 781 q 89 754 92 754 q 78 765 78 754 q 143 866 78 780 q 220 953 209 953 z "},"":{"ha":309,"x_min":93,"x_max":433,"o":"m 292 745 q 243 746 275 745 q 195 747 211 747 q 134 833 176 747 q 93 940 93 916 q 143 956 93 956 q 170 950 147 956 q 214 956 208 956 q 245 921 227 947 q 278 886 264 895 q 347 956 298 912 q 380 940 380 956 q 375 922 380 939 l 379 917 q 422 943 419 943 q 433 932 433 943 q 368 831 433 918 q 292 745 302 745 z "},"":{"ha":309,"x_min":39,"x_max":471,"o":"m 39 836 q 54 846 43 843 q 69 854 66 849 q 60 873 64 863 q 131 890 62 889 q 314 911 192 899 q 382 922 335 912 q 452 932 427 932 q 471 922 471 932 q 462 909 471 916 q 452 900 453 903 q 468 886 458 897 q 453 871 460 878 q 468 856 461 866 l 456 839 q 471 823 462 835 q 410 807 471 814 q 259 791 334 799 q 110 765 171 780 q 98 772 104 767 q 86 768 92 770 q 78 778 78 771 q 87 786 79 782 q 94 798 94 790 q 60 807 82 798 q 74 822 66 817 q 39 836 60 823 z "},"":{"ha":309,"x_min":89,"x_max":473,"o":"m 275 861 q 347 882 317 861 q 384 920 363 893 q 410 940 400 940 q 428 929 426 940 q 419 897 424 919 l 428 892 q 448 912 435 899 q 458 915 458 915 q 473 895 473 915 q 400 791 473 840 q 275 745 332 745 q 149 787 203 745 q 89 903 89 832 q 97 918 89 913 q 121 899 104 911 q 128 920 125 909 q 144 932 134 932 q 201 897 175 932 q 275 861 228 861 z "},"":{"ha":309,"x_min":135,"x_max":301,"o":"m 214 750 q 193 760 195 750 q 195 783 195 751 q 187 800 195 795 q 173 780 176 800 q 157 760 170 760 q 135 810 135 760 q 149 909 135 863 q 208 975 169 975 q 235 962 232 975 q 233 928 235 959 l 239 920 q 265 960 246 934 q 301 907 301 960 q 214 750 301 750 z "},"":{"ha":309,"x_min":140,"x_max":395,"o":"m 271 908 q 234 871 248 908 q 224 814 224 843 q 252 768 224 768 q 311 852 311 768 q 271 908 311 908 m 227 710 q 140 806 140 710 q 191 917 140 859 q 294 975 242 975 q 361 949 329 975 q 395 888 395 922 q 341 768 395 825 q 227 710 288 710 z "},"":{"ha":309,"x_min":125,"x_max":378,"o":"m 204 81 l 279 94 q 220 -45 220 -18 q 233 -77 220 -63 q 264 -92 245 -92 q 308 -66 275 -92 q 351 -32 330 -49 q 355 -45 355 -36 q 349 -61 351 -52 l 359 -64 l 367 -68 q 349 -87 360 -73 q 378 -98 360 -87 q 302 -145 378 -114 q 203 -175 229 -175 q 151 -135 179 -175 q 125 -72 125 -98 q 156 6 125 -45 q 204 81 180 43 z "},"":{"ha":309,"x_min":20,"x_max":458,"o":"m 300 751 q 211 785 252 751 q 164 818 170 818 q 133 785 155 818 q 90 753 111 753 q 72 772 72 753 l 81 789 l 75 799 q 54 785 69 797 q 31 774 39 774 q 20 794 20 774 q 89 892 49 848 q 189 951 144 951 q 257 914 216 951 q 306 876 298 876 q 347 909 322 876 q 379 942 371 942 q 388 915 385 937 q 397 897 390 897 q 427 921 406 906 l 446 922 q 458 907 458 923 q 399 810 458 868 q 300 751 340 751 z "},"":{"ha":309,"x_min":75,"x_max":530,"o":"m 199 962 q 252 946 252 962 q 243 922 252 936 l 249 917 q 286 937 261 924 q 309 916 309 937 q 239 814 309 899 q 154 729 170 729 q 136 739 136 729 q 142 772 136 731 l 134 778 q 113 760 123 769 q 90 749 100 749 q 75 770 75 749 q 116 874 75 796 q 199 962 163 962 m 421 962 q 473 946 473 962 q 465 922 473 936 l 471 917 q 509 937 483 924 q 530 916 530 937 q 461 814 530 899 q 376 729 392 729 q 358 739 358 729 q 364 772 358 731 l 355 778 q 336 760 346 769 q 313 749 323 749 q 297 770 297 749 q 338 873 297 795 q 421 962 385 962 z "},"":{"ha":541,"x_min":4,"x_max":541,"o":"m 113 653 q 143 627 135 653 q 139 606 142 621 q 136 585 136 592 q 142 571 136 575 q 167 603 147 583 q 197 586 191 599 q 187 546 197 583 l 196 539 q 220 564 201 549 q 237 545 237 564 q 193 416 237 526 q 149 261 149 306 q 163 241 149 241 q 279 395 184 241 q 396 586 337 490 q 429 568 422 586 q 439 542 438 543 q 456 545 453 545 q 484 535 469 545 q 498 513 498 525 q 463 386 498 494 q 428 220 428 277 q 437 203 428 203 q 485 231 450 203 q 530 271 507 251 q 538 261 538 268 q 529 246 538 258 q 519 222 519 234 q 492 189 510 212 l 497 183 q 525 195 506 188 l 532 191 q 519 171 531 188 l 524 167 l 536 174 q 541 163 541 170 q 459 72 541 144 q 359 0 378 0 q 298 41 337 0 q 310 92 310 75 l 306 98 q 283 58 300 84 q 265 102 265 58 q 272 151 265 118 q 278 200 278 183 l 273 208 q 222 153 264 208 q 168 81 195 117 q 149 -5 149 56 q 161 -109 149 -40 q 174 -211 174 -177 q 160 -240 174 -231 q 138 -232 151 -235 q 113 -264 132 -244 q 87 -225 102 -259 q 62 -244 80 -233 q 41 -225 56 -237 l 33 -226 l 24 -231 q 4 -32 4 -195 q 18 253 4 94 q 59 523 35 432 q 113 653 94 653 z "},"":{"ha":694,"x_min":0,"x_max":694,"o":"m 694 311 l 0 311 l 0 411 l 694 411 l 694 311 z "},"":{"ha":1389,"x_min":0,"x_max":1389,"o":"m 0 311 l 0 411 l 1389 411 l 1389 311 l 0 311 z "},"":{"ha":322,"x_min":165,"x_max":415,"o":"m 184 751 q 165 772 165 751 q 261 1064 165 796 q 301 1100 274 1100 q 297 1078 297 1090 q 313 1065 297 1065 q 334 1097 319 1078 q 364 1105 347 1104 q 354 1072 360 1095 q 364 1064 357 1065 q 382 1091 370 1068 q 400 1111 393 1111 q 415 1078 415 1111 q 402 995 415 1044 q 383 914 386 931 q 339 757 359 757 q 325 767 327 757 q 322 786 323 777 l 307 779 q 291 763 300 779 q 258 747 281 747 q 243 768 250 747 q 232 798 237 793 q 210 770 229 795 q 184 751 197 751 z "},"":{"ha":322,"x_min":222,"x_max":472,"o":"m 453 1107 q 472 1086 472 1107 q 376 794 472 1062 q 336 758 363 758 q 340 781 340 769 q 325 793 340 793 q 304 761 318 781 q 273 753 290 755 q 283 786 277 764 q 273 794 281 793 q 256 767 268 790 q 237 747 245 747 q 222 781 222 747 q 235 863 222 814 q 254 945 252 928 q 298 1101 278 1101 q 312 1092 311 1101 q 315 1072 314 1082 l 330 1079 q 347 1095 338 1079 q 379 1111 356 1111 q 394 1090 389 1111 q 406 1061 400 1066 q 427 1088 410 1064 q 453 1107 441 1107 z "},"":{"ha":322,"x_min":1,"x_max":252,"o":"m 232 254 q 252 233 252 254 q 155 -58 252 207 q 115 -94 142 -94 q 119 -72 119 -84 q 104 -60 119 -60 l 83 -92 q 53 -100 69 -98 q 62 -66 56 -89 q 53 -58 60 -59 q 35 -85 47 -62 q 17 -106 24 -106 q 1 -72 1 -106 q 14 11 1 -39 q 33 92 31 75 q 78 249 58 249 q 91 239 90 249 q 94 220 93 229 l 110 227 q 126 242 117 227 q 158 258 135 258 q 173 238 168 258 q 184 208 179 213 q 206 236 188 211 q 232 254 220 254 z "},"":{"ha":591,"x_min":165,"x_max":685,"o":"m 454 751 q 435 772 435 751 q 530 1064 435 796 q 571 1100 543 1100 q 567 1078 567 1090 q 582 1065 567 1065 q 603 1097 589 1078 q 633 1105 616 1104 q 624 1072 630 1095 q 633 1064 627 1065 q 652 1091 640 1069 q 669 1111 662 1111 q 685 1078 685 1111 q 672 995 685 1044 q 653 914 656 930 q 608 757 629 757 q 595 767 597 757 q 591 786 592 785 l 576 779 q 560 763 569 779 q 528 747 551 747 q 513 768 519 747 q 501 798 507 792 q 479 770 497 795 q 454 751 466 751 m 184 751 q 165 772 165 751 q 261 1064 165 796 q 301 1100 274 1100 q 297 1078 297 1090 q 313 1065 297 1065 q 334 1097 319 1078 q 364 1105 347 1104 q 354 1072 360 1095 q 364 1064 357 1065 q 382 1091 370 1068 q 400 1111 393 1111 q 415 1078 415 1111 q 402 995 415 1044 q 383 914 386 931 q 339 757 359 757 q 325 767 327 757 q 322 786 323 777 l 307 779 q 291 763 300 779 q 258 747 281 747 q 243 768 250 747 q 232 798 237 793 q 210 770 229 795 q 184 751 197 751 z "}}}
